<?xml version="1.0" standalone="no"?>
<!DOCTYPE svg PUBLIC "-//W3C//DTD SVG 20010904//EN"
 "http://www.w3.org/TR/2001/REC-SVG-20010904/DTD/svg10.dtd">
<svg version="1.0" xmlns="http://www.w3.org/2000/svg"
 width="150.000000pt" height="150.000000pt" viewBox="0 0 150.000000 150.000000"
 preserveAspectRatio="xMidYMid meet">
<metadata>
Created by potrace 1.14, written by Peter Selinger 2001-2017
</metadata>
<g transform="translate(0.000000,150.000000) scale(0.100000,-0.100000)"
fill="#000000" stroke="none">
<path d="M0 750 l0 -750 750 0 750 0 0 750 0 750 -750 0 -750 0 0 -750z m674
547 l-7 -135 -28 -4 c-27 -4 -29 -2 -29 29 0 43 -27 45 -41 3 -9 -24 -17 -30
-40 -30 -16 0 -29 1 -29 3 0 2 7 23 14 48 8 24 27 83 41 131 l26 87 47 3 c26
2 48 2 50 2 2 -1 0 -63 -4 -137z m362 111 c-4 -18 -16 -77 -26 -132 -18 -97
-28 -116 -62 -116 -14 0 -18 9 -19 38 -1 20 -4 51 -8 67 -6 26 -8 27 -13 10
-4 -11 -10 -41 -14 -67 -4 -29 -11 -48 -19 -48 -7 0 -20 -2 -28 -5 -11 -5 -10
16 9 112 13 65 24 128 24 141 0 20 4 23 33 20 31 -3 32 -5 41 -60 4 -32 12
-58 16 -58 4 0 11 21 15 48 9 58 21 82 42 82 12 0 14 -7 9 -32z m-746 -3 c0
-15 -6 -25 -15 -25 -22 0 -32 -27 -46 -127 -13 -91 -13 -91 -43 -96 -17 -3
-32 -4 -34 -2 -1 1 4 31 12 66 8 35 17 85 21 112 6 44 5 47 -15 47 -16 0 -20
4 -16 16 3 9 6 20 6 25 0 5 29 9 65 9 63 0 65 -1 65 -25z m193 4 c14 -22 2
-61 -29 -99 l-26 -31 20 -50 21 -50 -26 -10 c-31 -12 -39 -3 -48 53 -9 51 -22
48 -30 -6 -6 -38 -12 -46 -37 -55 -29 -10 -30 -10 -25 17 3 15 14 75 23 134
20 119 18 117 98 115 33 -1 52 -7 59 -18z m337 14 c0 -15 -48 -255 -52 -257
-2 -2 -16 -6 -31 -10 -26 -6 -28 -5 -21 16 4 13 17 72 29 131 12 62 28 113 36
118 17 11 39 12 39 2z m393 -13 c-4 -14 -14 -20 -33 -20 -20 0 -29 -6 -34 -22
-10 -40 -7 -48 20 -48 35 0 29 -34 -8 -38 -26 -3 -38 -23 -38 -65 0 -14 5 -16
25 -11 20 5 25 3 25 -14 0 -17 -10 -22 -57 -30 -32 -6 -59 -9 -61 -7 -5 4 38
227 48 253 8 19 17 22 64 22 49 0 54 -2 49 -20z m177 0 c61 -61 -24 -237 -123
-255 -21 -4 -40 -5 -43 -2 -3 3 6 64 20 136 14 72 26 133 26 136 0 3 23 5 50
5 37 0 55 -5 70 -20z m-1075 -420 c-3 -5 -10 -10 -16 -10 -5 0 -9 5 -9 10 0 6
7 10 16 10 8 0 12 -4 9 -10z m433 -106 c29 -20 28 -56 -1 -90 -22 -25 -23 -30
-11 -53 19 -36 18 -45 -10 -78 -24 -29 -82 -53 -126 -53 -20 0 -22 4 -16 33 3
17 14 79 24 137 l18 105 34 6 c57 10 65 10 88 -7z m134 -46 l3 -53 19 53 c13
39 22 52 33 48 8 -3 21 -6 29 -6 10 0 2 -24 -27 -82 -23 -46 -47 -103 -54
-128 -10 -41 -14 -45 -44 -48 -30 -3 -32 -2 -24 20 4 13 8 70 8 127 0 95 2
105 20 112 33 13 34 11 37 -43z m-732 -84 c0 -14 -4 -23 -10 -19 -5 3 -10 15
-10 26 0 10 5 19 10 19 6 0 10 -12 10 -26z m531 -528 c-25 -127 -27 -135 -51
-139 -14 -3 -27 -4 -28 -2 -2 2 -6 31 -9 64 -3 34 -9 61 -13 61 -4 0 -11 -21
-14 -47 -11 -72 -15 -80 -42 -86 -22 -4 -25 -2 -20 17 5 20 46 246 46 253 0 2
13 3 29 3 28 0 30 -3 36 -52 11 -82 20 -87 35 -16 16 76 17 78 39 78 16 0 16
-9 -8 -134z m328 66 l-42 -61 18 -62 c9 -35 20 -69 22 -77 4 -10 -4 -13 -33
-10 -33 3 -39 7 -42 28 -1 14 -5 36 -8 50 -7 30 -18 14 -28 -41 -5 -30 -12
-38 -34 -42 -15 -3 -28 -5 -28 -4 -1 1 6 42 16 92 10 50 21 111 24 138 7 44 9
47 37 47 29 0 29 -1 23 -42 l-5 -43 25 40 c19 30 34 41 58 45 18 3 34 5 36 4
1 -1 -16 -29 -39 -62z m-192 36 c-3 -13 -15 -73 -27 -135 -22 -109 -23 -111
-52 -115 -26 -4 -29 -2 -24 16 8 29 34 164 41 208 5 35 15 44 54 47 9 1 11 -6
8 -21z"/>
<path d="M617 1383 c-11 -18 -30 -124 -23 -130 13 -13 24 13 30 75 6 57 4 74
-7 55z"/>
<path d="M388 1350 c-5 -35 9 -39 40 -10 30 28 28 40 -7 40 -24 0 -29 -5 -33
-30z"/>
<path d="M1317 1363 c-5 -15 -19 -82 -32 -145 -6 -33 14 -18 36 25 30 56 41
108 27 124 -14 18 -26 16 -31 -4z"/>
<path d="M670 820 c0 -23 22 -27 39 -7 13 16 5 27 -21 27 -11 0 -18 -7 -18
-20z"/>
<path d="M657 743 c-4 -3 -7 -17 -7 -30 0 -27 21 -30 45 -7 12 12 13 19 4 30
-12 15 -31 18 -42 7z"/>
</g>
</svg>
