<?xml version="1.0" standalone="no"?>
<!DOCTYPE svg PUBLIC "-//W3C//DTD SVG 20010904//EN"
 "http://www.w3.org/TR/2001/REC-SVG-20010904/DTD/svg10.dtd">
<svg version="1.0" xmlns="http://www.w3.org/2000/svg"
 width="500.000000pt" height="500.000000pt" viewBox="0 0 500.000000 500.000000"
 preserveAspectRatio="xMidYMid meet">
<metadata>
Created by potrace 1.14, written by Peter Selinger 2001-2017
</metadata>
<g transform="translate(0.000000,500.000000) scale(0.100000,-0.100000)"
fill="#000000" stroke="none">
<path d="M2090 4940 c0 -6 -9 -10 -19 -10 -11 0 -50 -16 -87 -35 -37 -19 -75
-35 -85 -35 -10 0 -21 -4 -24 -10 -3 -5 -20 -10 -36 -10 -17 0 -28 -4 -25 -9
3 -4 -6 -13 -20 -20 -21 -9 -24 -14 -15 -25 9 -11 5 -22 -20 -50 -17 -20 -28
-36 -25 -36 3 0 -8 -28 -26 -62 -31 -61 -39 -100 -73 -348 -21 -148 -21 -196
-3 -225 4 -6 3 -17 -3 -25 -6 -10 -9 -11 -9 -3 0 7 -18 25 -40 39 l-41 27 -29
-28 c-34 -33 -38 -66 -15 -122 8 -20 17 -50 20 -67 19 -120 46 -161 133 -202
47 -22 72 -47 61 -59 -3 -2 -26 3 -52 12 -44 14 -65 32 -110 93 -13 18 -16 20
-12 6 9 -29 47 -71 95 -103 44 -29 45 -32 59 -109 7 -43 16 -98 20 -121 5 -24
5 -43 2 -43 -4 0 -24 -35 -45 -77 -22 -43 -48 -90 -58 -105 -11 -15 -20 -37
-21 -47 0 -11 -4 -18 -8 -15 -11 7 -32 -25 -26 -40 4 -9 1 -13 -7 -10 -16 6
-50 -31 -41 -45 3 -6 0 -9 -8 -5 -8 3 -20 -3 -28 -12 -12 -15 -12 -17 1 -12
23 7 102 -42 181 -112 39 -36 95 -83 123 -105 119 -93 153 -127 261 -260 171
-212 344 -373 474 -440 28 -14 154 -55 170 -55 2 0 -2 7 -9 15 -7 8 -15 13
-19 11 -4 -3 -8 4 -8 15 -2 16 1 18 11 10 7 -6 16 -7 20 -3 4 4 6 1 4 -7 -1
-8 6 -17 16 -19 14 -3 17 0 13 12 -3 8 -2 18 3 21 6 4 10 -3 10 -15 0 -11 -8
-24 -17 -27 -15 -6 -15 -7 3 -14 32 -13 128 -10 180 6 29 8 62 28 79 45 26 27
30 39 30 88 -1 39 -9 74 -27 113 -25 54 -163 269 -173 269 -3 0 2 -12 11 -28
15 -25 15 -26 -1 -7 -9 11 -21 28 -27 39 -8 14 -7 17 4 11 7 -5 2 4 -12 19
-14 15 -37 34 -52 42 -14 7 -32 19 -40 27 -7 7 -41 30 -76 51 -60 36 -63 40
-57 70 12 60 27 96 36 90 6 -3 16 2 23 12 13 17 14 17 31 0 12 -12 20 -14 25
-6 4 6 13 8 21 5 19 -7 44 21 53 58 4 15 11 25 15 22 5 -3 12 1 14 7 4 10 6
10 6 0 1 -8 7 -6 19 5 10 10 16 26 14 36 -5 19 14 24 21 5 2 -7 4 3 5 22 2 84
13 165 22 168 6 2 6 10 1 21 -6 10 -6 23 -1 31 5 8 4 22 -1 32 -6 10 -7 23 -4
29 4 5 8 24 10 42 15 140 16 161 7 152 -6 -5 -12 -21 -14 -34 -4 -31 -28 -41
-28 -12 0 12 4 21 9 21 6 0 9 15 9 33 -1 17 1 51 5 74 4 29 2 51 -8 70 -8 15
-15 34 -15 42 0 8 -6 11 -15 7 -8 -3 -15 -1 -15 4 0 6 -5 10 -11 10 -5 0 -8
-4 -4 -9 11 -18 -14 -21 -31 -4 -10 10 -19 17 -21 16 -2 -2 -10 -3 -19 -3 -14
0 -15 2 -3 17 12 14 12 16 -2 11 -10 -4 -16 -1 -16 8 0 16 12 14 99 -21 57
-22 78 -19 78 12 0 7 7 13 16 13 14 0 14 3 4 15 -10 12 -10 15 3 15 9 0 18 8
20 18 3 9 11 40 18 67 23 94 78 137 79 61 l1 -31 14 33 c8 17 19 32 25 32 20
0 10 19 -12 23 -20 4 -19 4 5 6 53 2 29 28 -43 47 -43 11 -70 23 -70 31 0 8
-10 33 -22 56 -12 23 -23 44 -23 47 -20 95 -31 119 -55 113 -13 -4 -18 -13
-15 -31 3 -33 -5 -49 -16 -31 -6 10 -8 8 -7 -8 2 -14 7 -19 17 -15 10 4 13 1
9 -9 -5 -12 1 -14 26 -11 l31 4 -25 -23 c-13 -13 -29 -23 -33 -21 -5 1 -14 -1
-21 -6 -6 -5 -18 -12 -27 -15 -13 -4 -16 -1 -12 14 5 16 8 17 21 7 13 -11 15
-10 10 3 -4 9 -1 22 5 28 6 6 7 11 2 11 -5 0 -29 -21 -53 -47 -24 -26 -40 -40
-37 -30 4 10 2 17 -4 17 -6 0 -11 -4 -11 -10 0 -5 -7 -7 -15 -4 -9 4 -15 0
-15 -10 0 -10 -8 -15 -22 -15 -13 0 -38 -2 -56 -4 -30 -5 -32 -4 -20 10 11 14
10 15 -11 8 -17 -5 -21 -4 -16 5 5 8 1 11 -11 8 -11 -2 -24 3 -30 11 -12 15
-21 18 -93 26 -25 3 -60 10 -78 15 -24 8 -38 8 -55 -1 -22 -11 -22 -11 -8 6
14 16 13 17 -8 11 -14 -5 -22 -3 -22 4 0 7 -8 10 -20 7 -11 -3 -21 0 -21 6 -4
29 1 62 10 65 10 3 2 42 -9 42 -8 0 -23 38 -21 52 0 4 -6 5 -14 2 -7 -3 -22
-1 -32 6 -16 10 -15 10 5 5 16 -5 22 -2 22 9 0 8 8 17 18 19 16 4 16 5 0 6
-10 0 -18 6 -18 11 0 6 -12 10 -27 11 -24 0 -25 1 -8 8 11 5 25 6 32 4 7 -3
10 4 7 19 -4 22 -4 22 7 -2 11 -23 12 -24 17 -5 2 11 13 28 24 38 15 15 17 22
7 33 -16 19 -4 18 16 -2 15 -15 14 -18 -7 -42 l-23 -25 22 14 c29 17 36 35 23
60 -8 15 -7 19 4 19 13 0 14 4 4 25 -7 16 -17 24 -26 20 -9 -3 -12 0 -9 9 4
11 1 13 -10 9 -12 -5 -15 -2 -11 8 5 12 -1 14 -26 11 -21 -2 -27 0 -18 6 8 5
13 13 13 18 -1 5 22 10 49 12 54 3 115 -12 138 -34 8 -8 24 -11 42 -7 17 3 36
0 45 -7 8 -6 19 -9 25 -5 6 4 22 -3 36 -16 24 -23 35 -14 12 10 -11 10 -9 11
7 5 11 -4 28 -14 37 -21 9 -8 22 -12 27 -8 6 3 11 2 11 -3 0 -10 35 -22 85
-28 23 -3 26 -1 17 8 -19 19 -14 30 8 18 16 -9 18 -8 14 5 -4 8 -11 15 -17 15
-7 0 -7 4 1 12 9 9 22 2 57 -32 31 -30 45 -39 45 -28 0 9 -4 19 -9 22 -5 3 -8
18 -8 33 0 15 -5 29 -10 30 -5 2 -7 19 -5 37 3 24 -2 40 -15 53 -10 11 -38 41
-62 67 -45 50 -99 88 -141 101 -14 4 -32 13 -40 20 -19 16 -104 35 -150 34
-19 0 -62 1 -95 3 -33 2 -74 1 -90 -3 -17 -3 -41 -2 -53 2 -13 5 -22 4 -22 -1z
m40 -291 c0 -6 -9 -13 -20 -16 -11 -3 -18 -9 -15 -13 3 -5 1 -11 -5 -15 -5 -3
-10 -1 -10 5 0 7 -6 10 -14 7 -29 -11 -24 7 7 23 38 21 57 24 57 9z m4 -54 c3
-8 1 -15 -4 -15 -6 0 -10 7 -10 15 0 8 2 15 4 15 2 0 6 -7 10 -15z m506 -25
c8 -5 11 -10 5 -10 -5 0 -17 5 -25 10 -8 5 -10 10 -5 10 6 0 17 -5 25 -10z
m-462 -55 c-2 -25 -9 -31 -21 -19 -6 7 9 44 18 44 3 0 4 -11 3 -25z m-61 -27
c-3 -8 -6 -5 -6 6 -1 11 2 17 5 13 3 -3 4 -12 1 -19z m43 -166 c0 -4 -4 -13
-9 -21 -7 -11 -11 -10 -19 6 -9 15 -7 19 9 20 10 1 19 -1 19 -5z m20 -43 c0
-5 -4 -9 -10 -9 -5 0 -10 7 -10 16 0 8 5 12 10 9 6 -3 10 -10 10 -16z m-60
-113 c0 -2 -7 -9 -15 -16 -13 -11 -14 -10 -9 4 5 14 24 23 24 12z m-177 -103
c-7 -2 -21 -2 -30 0 -10 3 -4 5 12 5 17 0 24 -2 18 -5z m147 -3 c12 -8 11 -10
-5 -9 -11 1 -31 5 -45 9 -24 8 -24 8 5 9 17 0 37 -4 45 -9z m-490 -10 c0 -5
-2 -10 -4 -10 -3 0 -8 5 -11 10 -3 6 -1 10 4 10 6 0 11 -4 11 -10z m653 -17
c-7 -2 -19 -2 -25 0 -7 3 -2 5 12 5 14 0 19 -2 13 -5z m732 -15 c6 -6 -3 -8
-24 -6 -19 2 -36 9 -39 16 -3 9 4 11 25 6 15 -4 33 -11 38 -16z m-655 -69 c0
-5 -5 -9 -11 -9 -5 0 -8 -4 -4 -9 3 -5 1 -12 -5 -16 -5 -3 -10 0 -10 7 0 8 -5
6 -11 -4 -5 -10 -15 -18 -22 -18 -8 0 -8 3 1 9 10 6 2 11 -24 16 -21 3 -47 14
-58 22 -20 15 -20 15 -1 8 46 -17 66 -17 86 1 13 11 18 26 15 39 -4 16 -1 15
20 -8 13 -15 24 -32 24 -38z m280 -22 c14 -40 24 -76 22 -80 -1 -4 3 -18 10
-30 7 -12 13 -31 14 -42 1 -11 6 -41 12 -68 5 -26 6 -50 1 -52 -4 -3 -25 -3
-46 0 -21 4 -43 7 -50 7 -6 1 -9 8 -5 16 3 9 1 13 -5 9 -8 -5 -8 5 -2 30 5 24
4 42 -3 50 -6 7 -8 13 -4 13 3 0 -3 9 -14 20 -22 22 -26 45 -10 55 6 4 9 -3 7
-16 -1 -12 4 -24 13 -26 13 -4 13 -3 1 5 -12 8 -12 13 -2 25 8 10 9 17 1 22
-5 3 -10 15 -10 26 0 10 -4 19 -8 19 -10 0 -9 20 2 66 6 25 11 30 29 27 18 -4
28 -20 47 -76z m185 45 c-3 -3 -11 0 -18 7 -9 10 -8 11 6 5 10 -3 15 -9 12
-12z m-408 -32 c10 0 14 -6 10 -19 -3 -14 -1 -18 9 -14 8 3 14 10 14 16 0 17
17 -5 22 -28 7 -31 -19 -74 -48 -81 -33 -8 -167 2 -228 17 -51 13 -61 21 -69
64 -6 27 -5 28 5 8 10 -21 18 -23 82 -22 74 1 170 27 172 47 4 33 5 37 11 25
2 -7 12 -13 20 -13z m419 -15 c14 -13 11 -15 -23 -17 -21 -1 -58 0 -81 1 -29
1 -42 -1 -37 -8 3 -6 13 -11 21 -11 8 0 14 -4 14 -10 0 -5 7 -10 15 -10 8 0
12 -6 9 -14 -9 -22 25 -64 54 -69 21 -3 18 -4 -10 -6 -21 0 -38 3 -38 8 0 5
-8 7 -19 4 -10 -3 -22 0 -25 5 -4 6 2 8 14 5 14 -4 20 0 20 11 0 9 -7 16 -16
16 -10 0 -14 5 -10 16 3 8 2 13 -3 10 -5 -3 -11 4 -15 17 -5 18 -8 20 -16 7
-7 -12 -10 -8 -10 17 0 34 3 34 76 18 12 -3 27 2 34 10 16 19 28 19 46 0z
m-726 -41 c0 -11 9 -29 20 -39 23 -21 121 -44 195 -46 42 -1 45 -2 20 -8 -49
-12 -183 -3 -209 14 -12 8 -25 13 -28 10 -7 -7 -25 44 -23 65 1 8 3 24 4 35 1
17 3 18 11 5 5 -8 10 -24 10 -36z m-510 -61 c1 -36 2 -37 15 -19 8 11 16 18
18 15 12 -17 26 -62 22 -70 -9 -14 -41 -11 -56 7 -15 18 -22 104 -8 104 5 0 9
-17 9 -37z m127 15 c-3 -8 -6 -5 -6 6 -1 11 2 17 5 13 3 -3 4 -12 1 -19z m715
-50 c-5 -7 -13 -39 -16 -71 -4 -32 -10 -65 -12 -72 -3 -8 1 -29 10 -46 19 -38
20 -49 5 -49 -5 0 -7 5 -4 10 3 6 1 10 -5 10 -6 0 -13 -6 -16 -14 -3 -9 -18
-13 -40 -12 -19 1 -34 -2 -34 -6 0 -5 -6 -8 -14 -8 -7 0 -19 -7 -26 -15 -7 -8
-20 -15 -29 -14 -12 0 -12 2 3 8 14 5 16 10 7 15 -9 6 -8 13 6 28 18 20 18 21
-7 14 -19 -6 -22 -5 -10 3 13 10 13 12 0 21 -10 6 -11 10 -2 10 6 0 12 4 12
10 0 5 -6 7 -14 4 -8 -3 -17 -1 -21 5 -3 6 1 11 9 11 9 0 16 5 16 10 0 6 -9
10 -20 10 -11 0 -20 4 -20 10 0 5 -7 6 -17 3 -11 -4 -14 -3 -9 6 5 7 1 20 -7
29 -25 29 -29 58 -9 59 109 9 239 26 247 34 14 14 29 11 17 -3z m398 -37 c0
-4 -11 -6 -25 -3 -14 2 -25 6 -25 8 0 2 11 4 25 4 14 0 25 -4 25 -9z m-320
-15 c0 5 4 2 9 -6 12 -22 1 -80 -15 -80 -8 0 -14 9 -14 21 0 11 -4 18 -8 15
-4 -2 -6 11 -4 30 4 28 7 32 18 23 8 -6 14 -8 14 -3z m-830 -11 c10 -12 10
-15 -3 -15 -8 0 -17 7 -21 15 -3 8 -2 15 3 15 5 0 14 -7 21 -15z m948 -240
c-13 -6 -28 -8 -34 -3 -6 4 -14 5 -17 1 -4 -3 -7 -2 -7 4 0 6 18 10 40 10 38
0 39 -1 18 -12z m-71 -21 c-3 -3 -12 -4 -19 -1 -8 3 -5 6 6 6 11 1 17 -2 13
-5z m-154 -61 c-7 -2 -19 -2 -25 0 -7 3 -2 5 12 5 14 0 19 -2 13 -5z m241 -14
c4 -3 -11 -11 -31 -18 -37 -12 -85 -7 -137 15 -15 5 -17 4 -11 -6 5 -9 4 -11
-4 -6 -6 4 -9 11 -7 15 6 8 182 9 190 0z m-307 -35 c-3 -3 -12 -4 -19 -1 -8 3
-5 6 6 6 11 1 17 -2 13 -5z m253 -113 c0 -5 -6 -11 -12 -14 -7 -2 1 -2 17 1
30 4 30 4 10 -16 -11 -10 -22 -18 -24 -16 -2 2 -10 -1 -18 -7 -7 -6 -13 -8
-13 -3 0 5 -14 10 -30 11 -17 1 -30 -2 -30 -7 0 -6 5 -10 11 -10 5 0 7 -5 3
-11 -5 -8 -9 -8 -14 1 -4 6 -10 11 -14 11 -3 -1 -17 1 -30 5 -25 6 -26 34 -1
34 7 0 18 7 25 15 14 17 120 22 120 6z m-183 -63 c-3 -8 -6 -5 -6 6 -1 11 2
17 5 13 3 -3 4 -12 1 -19z m-694 -193 c4 0 6 -2 5 -5 -2 -3 9 -19 25 -35 15
-16 27 -34 27 -40 0 -5 -9 1 -20 15 -11 14 -20 21 -20 16 0 -5 7 -18 16 -27
12 -14 21 -16 35 -9 12 7 20 6 25 -2 4 -6 3 -8 -3 -5 -6 4 -13 1 -16 -7 -4 -9
0 -12 13 -9 10 3 21 -1 25 -8 5 -7 4 -10 -3 -5 -6 3 -14 1 -18 -5 -4 -7 -3 -9
3 -6 5 3 20 -1 32 -9 21 -15 21 -17 6 -34 -14 -16 -14 -18 2 -31 16 -13 17
-12 5 2 -10 14 -10 18 3 23 9 3 14 2 10 -3 -3 -5 2 -17 11 -25 14 -15 14 -16
0 -16 -9 0 -16 -4 -16 -9 0 -5 6 -9 13 -8 29 1 47 -4 47 -12 0 -23 -31 -16
-71 15 -24 19 -65 51 -91 72 -45 34 -61 62 -38 62 6 0 10 5 10 11 0 5 -4 8 -9
4 -13 -8 -23 11 -26 49 -1 18 -5 39 -10 46 -6 10 -4 11 6 4 8 -5 17 -9 22 -9z
m-9 -107 c-3 -5 -14 -2 -25 8 -10 9 -16 21 -13 26 3 5 14 2 25 -8 10 -9 16
-21 13 -26z m241 -138 c3 -5 1 -10 -4 -10 -6 0 -11 5 -11 10 0 6 2 10 4 10 3
0 8 -4 11 -10z m683 -76 c34 -16 40 -24 20 -24 -13 0 -68 39 -57 40 3 0 20 -7
37 -16z m-640 -12 c13 -11 18 -23 13 -31 -6 -10 -12 -7 -25 10 -27 39 -21 50
12 21z m76 -31 c10 -11 22 -19 25 -16 4 2 7 -5 8 -15 1 -11 -1 -19 -5 -19 -4
1 -9 0 -12 -1 -42 -17 -89 14 -72 47 5 10 7 24 4 31 -6 19 26 1 52 -27z m96
-54 c0 -14 -26 0 -27 15 -2 16 0 16 13 4 8 -8 14 -16 14 -19z m-89 -34 c13
-16 12 -17 -3 -4 -10 7 -18 15 -18 17 0 8 8 3 21 -13z m809 -107 c13 -22 18
-36 12 -32 -7 4 -22 26 -33 49 -25 49 -12 39 21 -17z m-292 -68 c-2 -40 2 -48
16 -42 9 3 12 12 9 21 -4 10 -2 14 4 10 14 -9 13 -54 -1 -54 -6 0 -22 -3 -36
-7 -19 -6 -21 -5 -10 3 12 9 12 13 2 19 -7 5 -10 16 -6 25 4 12 1 17 -12 17
-17 0 -16 1 2 15 27 20 33 19 32 -7z m243 -1 c-10 -9 -11 -8 -5 6 3 10 9 15
12 12 3 -3 0 -11 -7 -18z m166 -189 c-3 -7 -5 -2 -5 12 0 14 2 19 5 13 2 -7 2
-19 0 -25z"/>
<path d="M2406 3843 c-6 -14 -5 -15 5 -6 7 7 10 15 7 18 -3 3 -9 -2 -12 -12z"/>
<path d="M2150 3720 c0 -5 5 -10 10 -10 6 0 10 5 10 10 0 6 -4 10 -10 10 -5 0
-10 -4 -10 -10z"/>
<path d="M2350 3680 c-24 -29 -49 -42 -34 -18 4 6 3 8 -3 5 -6 -4 -9 -17 -9
-29 1 -13 -2 -32 -7 -43 -11 -26 47 40 73 83 24 40 13 42 -20 2z"/>
<path d="M2245 3530 c3 -5 8 -10 11 -10 2 0 4 5 4 10 0 6 -5 10 -11 10 -5 0
-7 -4 -4 -10z"/>
<path d="M2027 2601 c6 -25 19 -35 27 -22 3 4 -3 16 -14 26 -18 16 -18 16 -13
-4z"/>
<path d="M2260 4539 c0 -5 5 -7 10 -4 6 3 10 8 10 11 0 2 -4 4 -10 4 -5 0 -10
-5 -10 -11z"/>
<path d="M2710 4501 c0 -6 4 -13 10 -16 6 -3 7 1 4 9 -7 18 -14 21 -14 7z"/>
<path d="M2765 4391 c-3 -6 -1 -11 5 -11 6 0 9 -4 6 -9 -3 -5 1 -12 9 -15 13
-5 14 -2 4 17 -16 30 -16 30 -24 18z"/>
<path d="M2810 4300 c-9 -6 -10 -10 -3 -10 6 0 15 5 18 10 8 12 4 12 -15 0z"/>
<path d="M2575 4100 c-3 -5 -1 -10 4 -10 6 0 11 5 11 10 0 6 -2 10 -4 10 -3 0
-8 -4 -11 -10z"/>
<path d="M3810 3800 c-64 -8 -234 -64 -270 -89 -14 -10 -33 -20 -43 -24 -10
-4 -16 -11 -12 -17 3 -6 21 -2 43 10 52 28 65 25 15 -4 -23 -14 -59 -37 -80
-51 l-38 -28 32 31 c19 19 28 34 22 38 -6 3 -18 -2 -27 -12 -78 -87 -146 -172
-163 -206 -11 -22 -38 -57 -60 -78 -35 -33 -39 -42 -41 -91 -1 -69 -2 -71 -12
-88 -7 -10 -5 -12 3 -6 10 6 11 3 2 -14 -7 -12 -9 -25 -6 -30 5 -9 1 -23 -30
-96 -7 -16 -20 -54 -28 -83 -13 -46 -14 -53 -1 -48 9 3 14 -1 14 -13 0 -11 5
-21 12 -23 7 -3 9 -12 5 -22 -4 -9 -11 -14 -17 -11 -6 4 -11 -9 -12 -32 -1
-47 -2 -52 -12 -82 -5 -13 -10 -85 -12 -160 -5 -151 -8 -199 -16 -206 -3 -3
-17 -8 -31 -11 -18 -3 -27 1 -31 13 -3 10 -15 24 -26 30 -16 11 -18 10 -14 -2
4 -8 10 -15 15 -15 5 0 4 -8 -3 -19 -9 -15 -8 -26 6 -55 10 -21 28 -66 41
-101 26 -73 60 -125 81 -125 8 0 14 -8 14 -17 0 -10 8 -30 18 -44 120 -178
192 -303 209 -364 19 -69 23 -109 15 -147 -5 -26 -13 -42 -21 -40 -7 1 -10 -2
-6 -8 7 -12 -18 -40 -37 -40 -10 0 -10 -2 -1 -8 7 -4 11 -18 8 -30 -2 -13 0
-20 6 -17 5 4 9 1 9 -4 0 -6 -3 -11 -7 -11 -5 0 -8 -10 -9 -22 -1 -13 -13 -73
-28 -135 -33 -141 -33 -204 -2 -275 21 -48 23 -59 13 -96 l-11 -42 -82 84
c-56 57 -111 100 -176 139 -52 32 -98 57 -101 57 -4 0 -4 -7 -1 -15 4 -8 14
-15 24 -15 11 0 22 -5 26 -12 4 -6 3 -8 -2 -5 -5 3 -10 -3 -10 -14 0 -17 2
-17 15 -4 13 13 19 12 50 -7 20 -12 46 -32 59 -45 24 -25 21 -48 -6 -38 -13 5
-12 2 3 -15 21 -24 26 -25 19 -6 -3 8 -1 17 5 21 6 3 11 1 11 -4 0 -6 6 -11
14 -11 17 0 182 -150 178 -162 -1 -4 3 -7 9 -6 6 2 14 -3 17 -11 3 -8 0 -11
-7 -7 -7 4 -11 0 -11 -12 0 -11 -7 -22 -15 -26 -8 -3 -15 -15 -15 -27 0 -20
-4 -18 -36 15 -20 20 -34 39 -31 42 3 3 -6 16 -19 29 -13 13 -24 31 -24 40 0
8 -4 15 -10 15 -5 0 -10 5 -10 11 0 15 -123 134 -170 165 -22 15 -40 31 -40
35 0 5 -14 9 -31 9 -22 0 -40 9 -60 31 -16 17 -29 26 -29 21 0 -6 5 -14 10
-17 6 -3 10 -11 10 -16 0 -6 -4 -7 -10 -4 -6 3 -7 -1 -3 -10 4 -12 8 -13 13
-4 6 8 11 5 19 -10 17 -31 5 -43 -37 -35 -47 8 -57 15 -42 24 9 6 6 12 -11 21
-20 10 -22 10 -12 -2 6 -8 12 -18 12 -24 1 -5 11 -23 23 -40 13 -16 22 -34 20
-38 -1 -5 2 -6 7 -3 14 9 31 -18 22 -33 -11 -17 -53 -8 -92 21 -34 25 -40 47
-7 24 35 -24 44 -19 12 6 -16 12 -32 27 -36 32 -4 6 -10 3 -14 -7 -4 -11 8
-41 34 -85 43 -70 64 -117 56 -124 -2 -3 25 -31 61 -64 36 -32 99 -91 140
-130 41 -38 77 -65 79 -60 6 13 46 -31 46 -50 0 -8 -6 -14 -14 -14 -8 0 -16
-6 -19 -12 -3 -9 -11 -4 -23 12 -23 32 -65 72 -88 85 -9 6 -19 23 -20 38 -4
37 -12 43 -33 26 -15 -12 -16 -12 -10 5 6 15 5 17 -6 8 -10 -9 -22 -5 -51 14
-36 25 -37 27 -20 45 9 10 12 19 6 19 -6 0 -12 -5 -14 -12 -5 -15 -90 31 -96
52 -4 11 1 10 17 -4 11 -11 23 -17 26 -14 3 3 -6 13 -20 22 -14 9 -25 23 -25
31 0 8 -5 15 -10 15 -14 0 -2 -67 18 -100 9 -14 30 -43 47 -65 106 -138 212
-375 140 -315 -12 10 -15 10 -15 0 0 -8 -12 -11 -35 -8 -23 3 -31 1 -25 -7 6
-7 2 -11 -10 -11 -10 0 -17 3 -14 7 2 4 -2 9 -10 12 -8 3 -17 -1 -20 -9 -3 -9
8 -21 32 -33 20 -11 33 -20 29 -21 -5 0 -18 5 -29 11 -14 8 -23 8 -31 0 -7 -7
-4 -10 9 -11 10 0 28 -1 39 -2 11 0 27 1 35 4 8 3 12 3 8 1 -14 -8 -8 -23 8
-23 11 0 14 -5 10 -17 -4 -10 -4 -14 0 -10 4 3 22 -7 40 -23 18 -16 48 -36 67
-45 19 -9 44 -29 56 -45 l22 -30 205 0 c142 0 205 3 202 11 -2 6 -6 9 -10 7
-3 -2 -15 5 -25 15 -11 9 -22 14 -25 11 -6 -5 -62 19 -85 38 -10 8 -10 15 -1
32 10 19 10 20 -5 7 -10 -7 -17 -9 -17 -3 0 13 28 23 35 13 3 -5 14 -7 25 -4
13 3 20 0 20 -8 0 -10 3 -10 12 -1 14 14 32 16 24 3 -3 -5 8 -11 24 -15 17 -3
30 -11 30 -17 0 -8 -4 -8 -15 1 -20 16 -19 6 1 -14 19 -19 58 -22 49 -3 -4 6
1 3 10 -8 9 -11 20 -21 25 -21 20 -3 21 -4 8 -18 -13 -14 -32 -11 -23 4 13 21
-12 16 -28 -6 -18 -25 -10 -33 11 -12 7 7 12 8 12 2 0 -10 98 -10 108 0 2 3
13 1 23 -5 13 -7 26 -6 40 2 15 7 19 8 15 0 -5 -7 139 -11 499 -11 398 0 504
3 499 13 -6 9 -4 9 7 1 8 -6 65 -12 132 -13 l117 -2 0 658 c0 513 -3 662 -12
672 -11 11 -10 12 1 6 11 -6 12 0 8 31 -10 70 -22 109 -33 111 -7 1 -10 -6 -7
-20 4 -17 1 -16 -11 7 -18 32 -20 40 -7 32 5 -4 7 4 3 16 -3 13 -7 17 -10 9
-2 -7 -14 3 -27 25 -13 21 -21 42 -19 45 2 4 -3 10 -11 13 -9 3 -15 15 -13 28
3 26 -39 116 -62 135 -10 9 -11 12 -3 13 7 0 -1 19 -20 44 -17 24 -38 52 -45
62 -13 19 -13 18 -7 0 6 -19 5 -19 -15 -1 -11 10 -20 13 -20 8 0 -6 7 -16 15
-23 8 -7 12 -17 9 -22 -3 -5 3 -12 15 -15 12 -3 21 -10 21 -15 0 -6 -10 -4
-22 5 -13 8 -23 19 -23 24 0 5 -35 50 -77 100 -75 87 -92 113 -66 97 7 -4 8
-3 4 5 -4 6 -11 9 -15 7 -4 -3 -15 11 -25 31 -9 19 -19 33 -22 31 -7 -8 40
-92 75 -134 16 -21 28 -41 26 -45 -3 -4 3 -13 12 -20 14 -12 16 -12 8 0 -5 10
-4 12 4 7 6 -4 9 -11 6 -16 -3 -5 -1 -11 5 -15 5 -3 10 -11 10 -16 0 -6 -5 -7
-12 -3 -7 4 -8 3 -4 -4 4 -6 13 -9 21 -6 9 4 18 -1 22 -11 8 -24 103 -125 116
-125 6 0 3 8 -6 18 -10 10 -17 23 -17 29 0 6 -6 14 -12 17 -7 3 -4 5 7 3 11
-1 20 -9 20 -17 0 -8 17 -41 38 -73 40 -61 44 -84 7 -47 -11 11 -18 26 -14 32
4 7 3 8 -4 4 -6 -3 -15 1 -21 11 -11 22 -132 123 -169 142 -34 17 -22 6 54
-52 68 -51 107 -93 130 -141 l15 -31 -26 30 c-15 17 -44 51 -65 76 -45 54
-177 127 -241 135 -44 5 -68 22 -61 42 2 8 9 9 20 3 9 -4 33 -11 53 -15 21 -4
42 -13 49 -21 7 -8 20 -15 29 -15 17 0 -15 22 -102 68 -110 59 -190 121 -228
177 -13 19 -29 35 -36 35 -15 0 -25 17 -27 44 -1 11 -8 20 -15 18 -7 -1 -10 2
-7 7 3 5 -5 28 -18 52 -13 24 -26 58 -30 74 -4 19 5 7 23 -30 16 -33 36 -69
45 -80 9 -11 3 9 -14 44 -19 38 -30 74 -27 87 2 13 1 24 -3 24 -10 0 -58 183
-75 287 -3 17 -1 34 5 38 5 3 9 -8 9 -27 -1 -55 45 -244 69 -282 3 -6 7 -25 9
-43 2 -28 47 -133 57 -133 8 0 -13 62 -28 85 -8 13 -17 40 -20 61 -5 37 -18
85 -36 129 -10 25 -30 99 -30 111 0 5 5 2 10 -6 6 -9 10 -10 10 -3 0 6 -5 15
-10 18 -6 4 -8 11 -4 16 3 6 1 38 -4 72 -6 34 -13 82 -16 107 -4 38 -4 41 5
20 11 -26 12 -29 29 -125 19 -114 35 -177 43 -169 6 7 12 -63 8 -111 -2 -17 0
-18 9 -5 8 11 9 8 4 -14 -4 -16 -3 -27 2 -24 5 3 25 -28 45 -69 23 -45 31 -69
20 -61 -9 7 -6 1 7 -13 12 -14 22 -33 22 -42 0 -9 11 -24 25 -33 14 -9 22 -21
18 -28 -3 -6 -3 -8 1 -4 5 4 24 -14 43 -40 49 -65 57 -72 48 -43 l-7 24 34
-27 c44 -33 63 -34 23 -1 -16 13 -24 24 -17 25 8 0 4 13 -12 38 -14 20 -28 49
-31 65 -4 15 -11 27 -15 27 -4 0 -7 10 -7 23 1 29 -53 200 -65 208 -5 3 -14
39 -19 80 -6 40 -14 80 -18 89 -4 8 -8 31 -10 51 -1 20 -12 80 -26 134 -26
105 -27 140 -2 58 21 -67 22 -15 1 57 -9 30 -16 63 -15 73 0 9 -4 15 -10 12
-5 -4 -9 3 -9 14 0 31 19 26 25 -6 3 -16 10 -44 15 -63 6 -19 19 -75 30 -124
12 -54 27 -94 38 -102 11 -9 13 -13 4 -14 -7 0 -10 -5 -6 -11 11 -18 21 8 16
42 -3 22 -7 27 -13 18 -5 -8 -9 -9 -9 -4 -1 6 -5 29 -9 52 -5 24 -4 40 0 37 5
-3 9 -16 9 -30 0 -13 5 -24 10 -24 6 0 8 10 5 23 -3 12 -8 36 -10 52 -2 17 -4
31 -6 33 -15 19 8 57 26 42 9 -8 12 -2 10 22 -1 18 -2 50 -3 71 -1 26 -6 36
-14 31 -8 -5 -9 -2 -5 10 10 24 -14 101 -25 84 -5 -9 -8 -6 -8 10 0 14 4 21
11 16 7 -4 9 0 6 12 -3 11 -8 29 -12 42 -4 12 -11 20 -16 17 -5 -4 -9 9 -9 27
0 18 -7 44 -15 58 -8 14 -22 42 -31 63 -9 21 -18 37 -19 35 -2 -2 6 -37 16
-78 11 -41 22 -87 24 -102 7 -47 -11 -31 -23 20 -11 47 -11 47 -7 -23 l4 -70
-13 65 c-18 84 -32 120 -48 120 -9 0 -9 -3 0 -12 14 -14 16 -28 3 -28 -5 0
-14 15 -20 33 -10 26 -14 29 -22 17 -8 -12 -9 -10 -4 8 3 12 2 22 -3 22 -5 0
-12 15 -16 33 -5 25 -9 29 -16 17 -5 -8 -10 -10 -11 -5 0 6 -2 33 -4 60 -4 47
-3 49 10 25 8 -14 14 -20 14 -15 0 6 -6 21 -14 35 -9 18 -10 29 -3 37 7 9 7
13 -1 13 -6 0 -11 5 -11 12 0 6 11 1 24 -12 14 -12 31 -20 39 -17 8 3 20 0 26
-6 19 -19 12 -2 -14 33 -14 19 -25 38 -25 44 0 5 7 1 15 -10 17 -23 20 -11 4
18 -11 21 -11 21 19 -1 17 -12 41 -35 52 -51 12 -17 26 -30 32 -30 7 0 6 5 -2
15 -6 8 -9 19 -5 24 4 7 -1 8 -11 4 -14 -5 -16 -3 -10 12 4 11 0 25 -11 38
-18 20 -18 20 7 7 24 -13 25 -12 8 7 -23 25 -23 40 -1 22 15 -13 15 -12 5 7
-13 25 -69 74 -83 74 -6 0 -7 -6 -3 -12 6 -9 3 -9 -9 0 -18 15 -41 7 -31 -10
4 -7 2 -8 -5 -4 -6 4 -9 11 -6 16 9 15 -14 21 -35 10 -12 -6 -20 -7 -20 -1 0
26 -89 35 -210 21z m188 -20 c7 0 10 -4 7 -10 -6 -10 -107 -6 -125 5 -6 3 -10
3 -10 -2 0 -4 -13 -8 -29 -8 -18 0 -26 4 -21 10 7 8 62 10 178 5z m-204 -35
c-4 -8 -10 -12 -15 -9 -14 8 -10 24 6 24 9 0 12 -6 9 -15z m10 -113 c-11 -9
-19 -27 -18 -40 1 -25 -19 -25 -24 0 -3 17 48 71 57 62 3 -3 -4 -13 -15 -22z
m-22 -89 c6 -16 10 -32 9 -36 -1 -5 3 -6 9 -2 6 3 14 -4 19 -17 6 -13 10 -19
10 -15 1 15 28 -18 48 -59 19 -36 48 -148 71 -267 9 -44 9 -47 -7 -33 -20 18
-67 37 -101 41 -118 14 -165 14 -188 -1 -23 -15 -24 -15 -17 8 6 22 6 22 -9 4
-9 -11 -16 -24 -16 -29 0 -5 -6 -7 -14 -4 -7 3 -26 -1 -41 -9 -35 -18 -38 -18
-27 4 12 22 9 52 -7 77 -9 15 -11 16 -7 3 5 -18 -4 -22 -33 -18 -11 1 -10 -2
3 -15 20 -21 20 -31 -1 -39 -23 -9 -43 12 -23 24 9 6 10 10 3 10 -6 0 -15 -4
-18 -10 -7 -11 -75 19 -75 33 0 5 7 7 15 3 9 -3 15 0 15 9 0 18 12 19 28 3 9
-9 12 -8 12 4 0 9 -6 19 -12 21 -8 3 -6 6 5 6 9 1 17 5 17 11 0 5 7 7 15 4 18
-7 21 26 3 44 -9 9 -8 12 4 12 9 0 19 -6 21 -12 2 -7 3 -1 1 13 -1 14 2 31 7
36 7 7 4 12 -10 16 -22 5 -43 -14 -23 -21 7 -2 12 -9 12 -15 -1 -7 -10 -1 -21
12 -18 22 -18 26 -4 33 8 5 19 6 25 3 16 -10 50 18 44 37 -6 21 21 26 29 6 3
-8 6 -6 6 5 1 9 5 17 10 17 15 0 22 33 10 44 -9 8 -10 8 -6 0 4 -6 0 -20 -9
-30 -14 -18 -15 -18 -9 4 4 14 2 22 -6 22 -12 0 -4 14 9 16 32 2 71 17 66 25
-3 6 6 8 21 5 19 -4 25 -1 22 8 -4 9 4 12 29 10 24 -2 34 2 34 12 0 26 40 16
52 -13z m152 -9 c3 -8 2 -12 -4 -9 -6 3 -10 10 -10 16 0 14 7 11 14 -7z m60
-5 c-3 -5 1 -6 9 -3 24 9 41 -75 38 -188 -1 -58 -21 -65 -21 -8 0 22 -4 40 -9
40 -4 0 -15 17 -24 38 l-15 37 6 -39 c3 -25 2 -37 -5 -33 -12 8 -25 57 -28
105 -2 30 -1 31 15 17 16 -15 17 -13 15 19 -3 26 0 33 11 29 8 -3 11 -9 8 -14z
m-63 -103 c11 -32 18 -63 16 -70 -3 -6 -8 3 -11 19 -4 17 -12 39 -18 49 -6 11
-14 33 -19 50 -15 52 10 15 32 -48z m206 -138 c-3 -8 -6 -5 -6 6 -1 11 2 17 5
13 3 -3 4 -12 1 -19z m47 -38 c7 -41 -8 -21 -18 25 -5 19 -4 26 2 20 5 -5 12
-26 16 -45z m-197 -7 c-3 -10 -5 -4 -5 12 0 17 2 24 5 18 2 -7 2 -21 0 -30z
m300 -55 c-3 -7 -5 -2 -5 12 0 14 2 19 5 13 2 -7 2 -19 0 -25z m-85 -13 c3
-13 2 -22 -2 -20 -4 3 -10 16 -12 30 -3 13 -2 22 2 20 4 -3 10 -16 12 -30z
m-205 -7 c-3 -7 -5 -2 -5 12 0 14 2 19 5 13 2 -7 2 -19 0 -25z m-127 -63 c14
-8 34 -14 45 -15 28 0 52 -54 35 -76 -11 -12 -10 -13 2 -9 13 5 18 -7 26 -57
13 -75 19 -409 8 -427 -5 -7 -17 -11 -27 -8 -10 3 -23 -1 -29 -8 -14 -16 -48
-8 -52 13 -3 14 -5 14 -20 -2 -10 -10 -18 -13 -18 -8 0 14 41 63 48 58 8 -5 6
84 -2 92 -3 3 -6 -2 -6 -11 0 -21 -19 -22 -26 -2 -4 8 -11 15 -16 15 -6 0 -5
-7 3 -16 7 -9 13 -24 14 -35 2 -18 0 -18 -16 -3 -10 9 -16 20 -14 25 3 4 0 11
-6 15 -8 4 -9 3 -5 -4 11 -17 -10 -14 -28 4 -9 8 -20 12 -26 9 -5 -3 -15 5
-22 19 -6 14 -17 26 -25 26 -7 0 -13 5 -13 10 0 6 6 10 12 10 25 0 -28 27 -77
39 -78 20 -135 43 -130 52 9 14 -11 19 -43 10 -26 -8 -32 -6 -37 9 -12 37 20
120 40 102 5 -4 5 -2 2 4 -10 18 12 84 29 84 8 0 12 4 9 10 -3 5 -1 19 5 30 8
15 17 18 43 13 40 -7 44 -10 29 -25 -16 -16 -15 -28 3 -28 7 0 18 -6 22 -13 4
-7 22 -19 38 -26 23 -11 26 -15 13 -18 -10 -3 -18 -8 -18 -13 0 -21 44 -37
102 -38 45 -1 57 1 43 8 -11 5 -30 9 -42 9 -13 1 -23 6 -23 12 0 6 9 9 20 6
10 -3 21 0 23 6 3 10 87 12 119 1 26 -8 32 16 9 40 -12 12 -21 26 -21 31 0 5
7 -1 16 -13 8 -12 20 -22 26 -22 6 0 1 11 -12 25 -13 14 -29 24 -34 22 -6 -2
-16 2 -23 8 -7 7 -32 16 -57 19 -53 8 -76 29 -49 45 26 15 104 13 133 -4z
m-302 -20 c-3 -3 -9 2 -12 12 -6 14 -5 15 5 6 7 -7 10 -15 7 -18z m642 -50 c0
-5 -5 -3 -10 5 -5 8 -10 20 -10 25 0 6 5 3 10 -5 5 -8 10 -19 10 -25z m50 -24
c0 -32 -6 -24 -14 19 -4 25 -3 31 4 20 5 -8 10 -26 10 -39z m-435 18 c5 -7 -5
-8 -32 -3 -51 9 -54 14 -10 14 20 0 39 -5 42 -11z m475 -24 c0 -8 -2 -15 -4
-15 -2 0 -6 7 -10 15 -3 8 -1 15 4 15 6 0 10 -7 10 -15z m-553 -42 c-2 -2 -11
-1 -20 3 -13 5 -14 9 -4 25 11 18 12 18 20 -3 4 -11 6 -23 4 -25z m323 -18 c3
-30 3 -52 -1 -48 -9 10 -20 118 -12 109 4 -4 10 -31 13 -61z m-663 39 c-3 -3
-12 -4 -19 -1 -8 3 -5 6 6 6 11 1 17 -2 13 -5z m28 -4 c3 -5 1 -10 -4 -10 -6
0 -11 5 -11 10 0 6 2 10 4 10 3 0 8 -4 11 -10z m870 -19 c3 -5 2 -12 -3 -15
-5 -3 -9 1 -9 9 0 17 3 19 12 6z m-298 -48 c-3 -10 -5 -2 -5 17 0 19 2 27 5
18 2 -10 2 -26 0 -35z m269 6 c2 -31 1 -31 -3 -4 -3 16 -10 34 -16 38 -8 6 -7
7 3 4 9 -2 16 -17 16 -38z m-859 4 c-9 -9 -20 -13 -24 -9 -4 4 1 14 11 22 25
18 35 8 13 -13z m-40 -17 c-3 -8 -3 -17 1 -19 4 -2 1 -2 -5 -1 -8 2 -13 -7
-13 -22 0 -18 4 -23 13 -17 6 4 4 -5 -5 -20 -10 -14 -18 -34 -19 -44 0 -17 -1
-17 -8 0 -6 17 -8 17 -20 3 -7 -8 -9 -21 -5 -27 4 -8 3 -9 -4 -5 -7 4 -17 16
-23 28 -8 15 -8 19 0 14 6 -4 11 0 11 9 0 10 5 13 12 9 7 -5 8 -3 4 5 -5 7
-14 10 -21 7 -9 -3 -11 2 -8 15 3 11 11 18 17 16 16 -6 46 11 46 26 0 12 19
37 28 37 2 0 2 -6 -1 -14z m810 -73 c-2 -16 -4 -5 -4 22 0 28 2 40 4 28 2 -13
2 -35 0 -50z m-857 37 c-8 -5 -17 -7 -19 -4 -3 3 1 9 9 14 8 5 17 7 19 4 3 -3
-1 -9 -9 -14z m687 -52 c-2 -13 -4 -3 -4 22 0 25 2 35 4 23 2 -13 2 -33 0 -45z
m280 30 c-3 -8 -6 -5 -6 6 -1 11 2 17 5 13 3 -3 4 -12 1 -19z m-1100 -30 c-3
-8 -6 -5 -6 6 -1 11 2 17 5 13 3 -3 4 -12 1 -19z m1021 -108 c0 -22 -1 -22 -8
5 -4 17 -8 41 -8 55 0 22 1 22 8 -5 4 -16 8 -41 8 -55z m-562 -15 c19 -24 64
-122 64 -140 0 -2 -12 3 -27 11 -16 7 -37 14 -48 14 -11 0 -47 14 -79 30 -39
20 -74 30 -102 30 -49 0 -55 11 -25 48 25 29 31 28 31 -8 0 -16 5 -30 10 -30
6 0 10 17 10 38 l0 38 71 0 c66 -1 73 -3 95 -31z m491 -37 c-3 -7 -5 -2 -5 12
0 14 2 19 5 13 2 -7 2 -19 0 -25z m80 0 c-3 -8 -6 -5 -6 6 -1 11 2 17 5 13 3
-3 4 -12 1 -19z m-130 -10 c-3 -8 -6 -5 -6 6 -1 11 2 17 5 13 3 -3 4 -12 1
-19z m-49 -39 c-3 -8 -7 -3 -11 10 -4 17 -3 21 5 13 5 -5 8 -16 6 -23z m220
-59 c0 -22 -1 -22 -8 5 -4 17 -8 39 -8 50 0 16 2 15 8 -5 4 -14 8 -36 8 -50z
m-828 5 c0 -8 -6 -15 -14 -15 -8 0 -16 7 -20 15 -4 10 1 15 14 15 11 0 20 -7
20 -15z m320 5 c0 -5 -5 -10 -11 -10 -5 0 -7 5 -4 10 3 6 8 10 11 10 2 0 4 -4
4 -10z m90 6 c0 -2 -7 -7 -16 -10 -8 -3 -12 -2 -9 4 6 10 25 14 25 6z m-292
-22 c-27 -14 -88 -16 -88 -3 0 10 28 17 75 17 l40 1 -27 -15z m131 -13 c18
-10 22 -19 19 -42 -3 -20 0 -29 9 -29 15 0 18 -26 3 -35 -6 -4 -8 -11 -5 -16
6 -8 -9 -13 -29 -10 -5 1 -6 -4 -3 -12 4 -10 -2 -13 -21 -10 -19 2 -22 1 -10
-4 16 -8 16 -9 -3 -21 -12 -8 -18 -9 -14 -3 3 7 -3 11 -15 11 -16 0 -20 -4
-16 -16 5 -14 4 -15 -8 -5 -11 9 -20 10 -36 1 -17 -9 -26 -8 -43 3 -12 8 -37
18 -55 22 -18 3 -30 11 -26 16 3 5 1 9 -4 9 -5 0 -9 11 -9 24 0 20 5 25 33 28
19 2 35 -1 38 -7 2 -5 11 -1 20 10 8 11 16 15 16 8 0 -7 5 -13 11 -13 5 0 7 5
4 10 -3 6 1 10 9 10 8 0 18 4 21 10 3 5 0 7 -8 4 -8 -3 -18 -1 -21 5 -3 5 7
12 24 16 16 4 33 11 36 17 4 6 -1 8 -15 3 -12 -4 -21 -2 -21 4 0 6 10 11 23
11 14 0 18 3 10 8 -22 14 60 7 86 -7z m112 -3 c9 -4 19 -16 22 -28 4 -17 3
-19 -9 -9 -7 6 -11 15 -8 20 3 5 -2 6 -10 3 -9 -3 -16 -1 -16 6 0 6 -5 8 -10
5 -6 -4 -8 -11 -5 -16 4 -5 -3 -5 -15 -1 -23 9 -24 25 -2 29 8 1 16 4 20 7 3
4 8 3 11 -2 3 -5 13 -11 22 -14z m476 -40 c-3 -7 -5 -2 -5 12 0 14 2 19 5 13
2 -7 2 -19 0 -25z m-203 6 c3 -8 2 -12 -4 -9 -6 3 -10 10 -10 16 0 14 7 11 14
-7z m213 -56 c-3 -8 -6 -5 -6 6 -1 11 2 17 5 13 3 -3 4 -12 1 -19z m20 -70
c-3 -8 -6 -5 -6 6 -1 11 2 17 5 13 3 -3 4 -12 1 -19z m43 -128 c7 -16 15 -28
19 -26 4 3 8 -4 8 -15 1 -11 16 -43 33 -71 17 -27 29 -52 27 -55 -7 -6 -117
186 -117 204 0 13 19 -11 30 -37z m-390 -35 c0 -8 -6 -15 -14 -15 -7 0 -20 -7
-27 -16 -10 -13 -3 -11 30 5 41 21 43 21 39 4 -4 -19 26 -56 37 -45 3 4 3 -2
-1 -12 -5 -13 -4 -17 3 -13 12 8 28 -88 17 -105 -4 -6 -3 -8 4 -4 13 8 23 -37
17 -78 -2 -15 -13 -38 -24 -50 -22 -23 -28 -42 -11 -31 6 3 10 1 10 -5 0 -7
-6 -10 -14 -7 -10 4 -39 -22 -82 -71 -37 -42 -76 -83 -88 -91 -11 -8 24 34 77
94 53 59 97 112 97 116 0 4 -4 11 -10 14 -5 3 -10 16 -10 28 -1 22 -1 22 -15
3 -14 -18 -15 -16 -15 30 0 33 -3 44 -9 35 -5 -8 -22 -16 -38 -18 -21 -3 -24
-1 -13 7 10 7 11 10 2 10 -8 0 -10 8 -6 25 5 22 3 24 -12 18 -18 -6 -18 -6 -1
14 21 24 23 40 2 23 -8 -7 -15 -9 -15 -5 0 4 -6 2 -14 -4 -12 -10 -14 -9 -12
5 2 10 8 20 14 22 7 2 10 8 6 13 -3 5 -14 4 -27 -3 -21 -11 -21 -10 -7 7 14
17 13 18 -2 12 -10 -3 -18 -2 -18 3 0 6 4 10 9 10 4 0 29 20 54 45 49 47 67
55 67 30z m390 -27 c0 -5 14 -27 31 -48 17 -21 29 -44 27 -51 -4 -13 -53 62
-75 116 -12 27 -12 28 2 11 8 -11 15 -24 15 -28z m-231 -224 c-12 -15 -11 -16
9 -10 16 5 24 3 28 -8 8 -20 24 -21 24 -1 0 20 19 19 27 -1 3 -8 12 -13 19
-10 23 9 16 0 -21 -28 l-35 -27 -22 21 c-12 11 -25 20 -30 20 -4 0 -8 7 -8 15
0 8 -5 15 -12 15 -6 0 -3 9 7 20 22 24 34 18 14 -6z m-170 -5 c-16 -10 -23 -4
-14 10 3 6 11 8 17 5 6 -4 5 -9 -3 -15z m161 -59 c6 -11 7 -20 2 -20 -6 0 -12
9 -15 20 -3 11 -3 20 -1 20 2 0 8 -9 14 -20z m299 6 c-2 -2 -26 -6 -53 -9 -30
-3 -43 -1 -35 4 13 8 97 13 88 5z m-344 -26 c3 -5 1 -10 -4 -10 -6 0 -11 5
-11 10 0 6 2 10 4 10 3 0 8 -4 11 -10z m360 0 c-3 -5 -1 -10 5 -10 6 0 9 -4 6
-9 -6 -9 -26 -7 -91 9 -38 9 -38 9 15 5 38 -3 49 -1 35 5 -18 8 -17 9 8 9 16
1 26 -3 22 -9z m-78 -26 c-3 -3 -12 -4 -19 -1 -8 3 -5 6 6 6 11 1 17 -2 13 -5z
m-217 -18 c0 -2 -8 -10 -17 -17 -16 -13 -17 -12 -4 4 13 16 21 21 21 13z m264
-48 c-5 -10 -4 -10 6 -1 7 6 18 9 26 6 10 -4 11 -9 1 -24 -9 -14 -9 -21 2 -31
11 -10 12 -10 7 0 -6 10 7 18 17 10 2 -2 16 5 31 16 25 16 28 16 23 2 -4 -10
-1 -16 8 -16 8 0 15 5 15 11 0 6 7 3 16 -5 8 -9 19 -14 23 -12 8 5 35 -51 44
-92 3 -13 -1 -29 -11 -38 -10 -11 -12 -18 -4 -23 6 -3 14 -19 17 -34 4 -15 14
-27 22 -27 8 0 11 -5 8 -10 -4 -6 -11 -8 -17 -4 -5 3 -2 -8 6 -25 17 -33 30
-42 19 -15 -5 14 -3 15 15 5 28 -15 28 -31 0 -32 -21 0 -20 -2 5 -11 22 -8 26
-14 21 -30 -4 -14 -3 -18 6 -13 7 4 10 1 8 -11 -2 -12 2 -18 10 -16 8 1 11 -2
7 -8 -4 -6 -14 -9 -22 -8 -9 2 -17 -3 -19 -10 -1 -7 0 -8 2 -3 8 16 32 -11 26
-28 -3 -9 -1 -12 6 -7 6 3 13 2 17 -4 3 -6 -4 -14 -16 -18 -15 -6 -18 -11 -11
-16 9 -5 9 -13 2 -27 -8 -14 -7 -19 2 -19 9 0 9 -3 -2 -10 -12 -8 -13 -12 -2
-19 10 -6 8 -10 -9 -14 -21 -6 -21 -7 -6 -30 15 -23 15 -25 -6 -34 -25 -10
-57 -6 -57 8 0 5 -7 9 -15 9 -8 0 -15 -4 -15 -10 0 -5 5 -10 10 -10 6 0 10 -7
10 -16 0 -21 -19 -7 -30 21 -7 18 -15 23 -33 19 -17 -3 -27 1 -31 12 -5 14 -4
15 9 4 8 -7 15 -10 15 -7 0 3 3 13 7 22 5 14 2 16 -14 11 -22 -7 -49 16 -38
33 3 6 -10 17 -30 25 -35 15 -45 31 -23 38 7 3 4 12 -10 26 -13 13 -20 28 -16
33 4 8 -3 9 -23 5 -29 -7 -30 -6 -25 20 4 21 2 25 -8 19 -10 -6 -12 -4 -7 9 4
11 -2 27 -18 44 -16 17 -23 33 -19 47 3 14 -4 30 -20 48 -18 20 -21 27 -10 27
8 0 12 5 9 11 -4 6 -12 8 -19 6 -22 -9 -44 16 -35 41 5 12 11 22 14 22 4 0 3
-6 -1 -12 -4 -8 -3 -10 2 -5 5 5 9 12 10 15 3 22 18 42 33 42 14 1 14 2 -2 11
-9 5 -23 7 -30 3 -6 -3 5 8 26 25 20 18 37 39 37 46 0 8 12 21 28 29 34 19 35
19 26 4z m-304 -1 c0 -2 -12 -14 -27 -28 l-28 -24 24 28 c23 25 31 32 31 24z
m375 -7 c3 -5 1 -10 -4 -10 -6 0 -11 5 -11 10 0 6 2 10 4 10 3 0 8 -4 11 -10z
m-467 -106 c-38 -53 -63 -74 -28 -23 28 40 51 69 57 69 2 0 -11 -21 -29 -46z
m-158 -17 c0 -2 -10 -12 -21 -23 -22 -19 -22 -19 -8 4 12 19 29 30 29 19z
m-47 -62 c-3 -9 -8 -14 -10 -11 -3 3 -2 9 2 15 9 16 15 13 8 -4z m137 -15
c-12 -16 -24 -30 -26 -30 -3 0 4 14 16 30 12 17 24 30 26 30 3 0 -4 -13 -16
-30z m-387 -35 c-3 -9 -8 -14 -10 -11 -3 3 -2 9 2 15 9 16 15 13 8 -4z m-16
-67 c-3 -7 -5 -2 -5 12 0 14 2 19 5 13 2 -7 2 -19 0 -25z m-10 -50 c-3 -7 -5
-2 -5 12 0 14 2 19 5 13 2 -7 2 -19 0 -25z m-167 2 c0 -5 -5 -10 -11 -10 -5 0
-7 5 -4 10 3 6 8 10 11 10 2 0 4 -4 4 -10z m-10 -30 c0 -5 -5 -10 -11 -10 -5
0 -7 5 -4 10 3 6 8 10 11 10 2 0 4 -4 4 -10z m167 -12 c-3 -8 -6 -5 -6 6 -1
11 2 17 5 13 3 -3 4 -12 1 -19z m164 -6 c-5 -10 -18 -25 -27 -33 -11 -9 -9 -2
6 19 26 35 36 42 21 14z m-174 -44 c-3 -7 -5 -2 -5 12 0 14 2 19 5 13 2 -7 2
-19 0 -25z m-10 -55 c-3 -10 -5 -4 -5 12 0 17 2 24 5 18 2 -7 2 -21 0 -30z
m-4 -108 c3 -46 1 -72 -3 -60 -8 19 -14 153 -6 144 2 -2 6 -40 9 -84z m207 41
c0 -2 -8 -10 -17 -17 -16 -13 -17 -12 -4 4 13 16 21 21 21 13z m800 -6 c0 -5
-4 -10 -10 -10 -5 0 -10 5 -10 10 0 6 5 10 10 10 6 0 10 -4 10 -10z m-1064
-213 c-14 -30 -33 -57 -42 -61 -25 -9 -27 -7 -9 10 9 9 13 24 10 32 -3 9 -3
13 1 9 4 -4 13 -2 20 4 10 8 11 15 1 30 -9 15 -8 21 8 33 34 25 39 0 11 -57z
m-465 -50 c74 -45 108 -70 109 -81 0 -5 -9 -1 -20 9 -23 20 -39 13 -21 -9 9
-11 9 -15 -1 -20 -7 -3 -3 -3 9 0 18 4 22 2 17 -10 -8 -21 -18 -20 -40 1 -12
12 -19 14 -21 6 -3 -7 -24 7 -50 32 -25 24 -54 47 -64 50 -17 6 -18 8 -3 31 9
13 19 24 23 24 4 0 32 -15 62 -33z m1139 -2 c13 -14 21 -25 18 -25 -2 0 -15
11 -28 25 -13 14 -21 25 -18 25 2 0 15 -11 28 -25z m-1047 -219 c21 -25 33
-46 27 -46 -6 0 -9 -8 -6 -18 4 -11 -2 -22 -17 -31 -12 -7 -19 -10 -15 -6 3 3
1 21 -6 38 -7 18 -11 45 -10 60 3 25 1 27 -13 15 -9 -7 -14 -8 -11 -3 4 6 0
19 -9 30 -13 19 -14 18 -7 -10 7 -27 6 -29 -9 -16 -15 12 -17 11 -17 -4 0 -13
-16 -3 -59 36 -61 56 -73 78 -43 75 11 -1 16 5 14 17 -4 25 131 -78 181 -137z
m51 92 c-4 -7 -2 -8 4 -4 13 8 35 -28 24 -39 -4 -5 -2 -5 5 -1 6 3 14 2 18 -4
3 -5 1 -10 -5 -10 -6 0 -4 -9 5 -23 8 -13 12 -27 8 -31 -4 -4 -1 -5 7 -2 9 3
30 -13 53 -40 40 -50 47 -67 20 -57 -15 5 -16 3 -5 -8 17 -18 15 -27 -5 -25
-13 1 -19 -7 -21 -26 -2 -16 -10 -28 -17 -28 -14 0 -64 44 -66 58 -1 4 -3 21
-4 37 l-4 30 19 -35 c11 -19 19 -28 20 -20 0 8 -7 28 -15 44 -8 15 -15 39 -15
52 0 16 -6 24 -17 24 -11 0 -14 -3 -7 -8 15 -9 14 -42 -1 -42 -14 0 -15 72 -2
81 5 4 -2 9 -15 12 -32 8 -53 44 -37 63 6 7 15 12 19 9 5 -3 11 -1 15 5 4 6
11 8 16 4 5 -3 6 -10 3 -16z m10 -261 c6 6 26 -15 47 -49 7 -14 6 -18 -7 -18
-9 0 -18 9 -21 20 -3 11 -10 20 -15 20 -11 0 -38 25 -38 36 0 3 6 1 13 -5 8
-6 17 -8 21 -4z m1606 -41 c0 -2 -7 -7 -16 -10 -8 -3 -12 -2 -9 4 6 10 25 14
25 6z m-46 -25 c3 -5 -3 -11 -13 -14 -14 -3 -18 -1 -14 9 6 16 19 18 27 5z
m54 -17 c5 3 9 -1 9 -8 0 -9 -7 -12 -16 -8 -8 3 -2 -11 15 -33 26 -34 26 -37
7 -26 -19 9 -22 9 -17 -3 3 -8 -1 -17 -8 -22 -7 -4 -10 -4 -6 1 4 4 3 16 -3
27 -7 13 -17 17 -32 13 -17 -5 -19 -4 -7 4 12 8 12 13 2 23 -19 19 -14 26 16
20 25 -5 26 -4 12 14 -14 17 -14 18 2 6 9 -8 21 -11 26 -8z m-58 -39 c0 -7
-30 -13 -34 -7 -3 4 4 9 15 9 10 1 19 0 19 -2z m-5 -44 c3 -6 -3 -9 -14 -8
-11 0 -17 5 -15 9 7 11 22 10 29 -1z m30 -1 c3 -5 1 -10 -4 -10 -6 0 -11 5
-11 10 0 6 2 10 4 10 3 0 8 -4 11 -10z m62 -47 c0 -9 -4 -10 -14 -2 -7 6 -13
12 -13 14 0 1 6 2 13 2 8 0 14 -6 14 -14z m-1786 -135 c21 -18 72 -88 67 -93
-5 -5 -80 44 -90 59 -4 6 -6 16 -3 23 2 6 -1 14 -8 17 -7 3 -6 5 4 5 8 1 22
-5 30 -11z m571 -62 c7 4 8 2 4 -5 -9 -13 -26 -5 -25 12 0 9 2 8 6 -1 2 -6 10
-9 15 -6z m1183 4 c-3 -5 -12 -10 -18 -10 -7 0 -6 4 3 10 19 12 23 12 15 0z
m-1071 -109 c3 -5 -1 -11 -9 -15 -8 -3 -15 -1 -15 5 0 6 -4 7 -10 4 -5 -3 -10
-1 -10 4 0 13 37 15 44 2z"/>
<path d="M3530 3329 c0 -5 5 -7 10 -4 6 3 10 8 10 11 0 2 -4 4 -10 4 -5 0 -10
-5 -10 -11z"/>
<path d="M3502 3253 c-6 -2 -10 -9 -6 -14 8 -14 21 -11 28 6 6 15 1 17 -22 8z"/>
<path d="M3450 3236 c0 -2 7 -9 15 -16 9 -7 15 -8 15 -2 0 5 -7 12 -15 16 -8
3 -15 4 -15 2z"/>
<path d="M3560 3175 c-10 -12 -10 -15 4 -15 9 0 16 7 16 15 0 8 -2 15 -4 15
-2 0 -9 -7 -16 -15z"/>
<path d="M3940 2669 c0 -5 5 -7 10 -4 6 3 10 8 10 11 0 2 -4 4 -10 4 -5 0 -10
-5 -10 -11z"/>
<path d="M3960 2652 c0 -8 -9 -11 -24 -8 -20 4 -23 0 -22 -24 2 -42 13 -46 42
-17 20 21 23 30 15 44 -6 10 -11 12 -11 5z"/>
<path d="M3900 2120 c-9 -6 -10 -10 -3 -10 6 0 15 5 18 10 8 12 4 12 -15 0z"/>
<path d="M4370 1757 c0 -8 7 -14 15 -14 11 0 12 4 4 14 -6 7 -13 13 -15 13 -2
0 -4 -6 -4 -13z"/>
<path d="M4476 1718 c3 -4 11 -5 19 -1 21 7 19 12 -4 10 -11 0 -18 -5 -15 -9z"/>
<path d="M4308 1683 c7 -3 16 -2 19 1 4 3 -2 6 -13 5 -11 0 -14 -3 -6 -6z"/>
<path d="M4265 1570 c3 -5 8 -10 11 -10 2 0 4 5 4 10 0 6 -5 10 -11 10 -5 0
-7 -4 -4 -10z"/>
<path d="M4660 1130 c0 -5 5 -10 11 -10 5 0 7 5 4 10 -3 6 -8 10 -11 10 -2 0
-4 -4 -4 -10z"/>
<path d="M2890 949 c0 -5 5 -7 10 -4 6 3 10 8 10 11 0 2 -4 4 -10 4 -5 0 -10
-5 -10 -11z"/>
<path d="M4705 420 c3 -5 8 -10 11 -10 2 0 4 5 4 10 0 6 -5 10 -11 10 -5 0 -7
-4 -4 -10z"/>
<path d="M4101 3444 c0 -11 3 -14 6 -6 3 7 2 16 -1 19 -3 4 -6 -2 -5 -13z"/>
<path d="M4390 3444 c0 -6 5 -15 10 -20 12 -12 37 -108 37 -144 1 -22 -1 -21
-14 10 -8 19 -19 46 -24 59 -8 19 -12 21 -24 11 -12 -10 -13 -16 -4 -26 14
-17 -3 -18 -20 -1 -10 10 -11 9 -7 -3 12 -35 14 -80 3 -73 -7 4 -8 0 -4 -11 4
-9 10 -43 13 -74 3 -31 10 -60 15 -63 5 -3 12 -18 15 -32 2 -15 10 -50 18 -79
7 -29 10 -55 6 -58 -7 -5 13 -85 31 -125 7 -15 8 -11 5 17 -4 30 -2 35 8 26 7
-7 11 -23 9 -37 -3 -23 -2 -24 6 -6 8 17 10 18 10 3 1 -10 6 -18 11 -18 6 0
10 -8 10 -19 0 -10 5 -32 11 -48 8 -25 15 -30 31 -25 l22 5 -22 8 c-17 6 -22
16 -21 41 l1 33 12 -34 c10 -28 14 -31 19 -17 9 23 9 28 -2 22 -10 -6 -31 94
-37 178 -4 68 1 72 11 6 4 -24 13 -63 21 -85 27 -72 36 -107 30 -121 -3 -7 -1
-16 3 -18 5 -3 11 -23 15 -45 3 -22 9 -47 13 -57 4 -12 3 -15 -5 -10 -8 4 -12
0 -13 -11 0 -10 -7 0 -15 22 -8 22 -13 48 -11 57 3 11 0 15 -10 11 -9 -3 -12
-12 -7 -22 14 -34 21 -90 12 -105 -5 -10 -4 -32 3 -58 15 -51 13 -45 23 -88
14 -65 38 -130 47 -130 5 0 9 -4 9 -9 0 -5 5 -22 12 -38 6 -15 13 -35 14 -43
8 -49 16 -75 29 -93 7 -10 11 -25 9 -32 -8 -21 63 -168 77 -159 7 4 9 3 6 -2
-3 -5 3 -21 13 -34 l19 -25 -5 40 c-4 22 -6 51 -5 64 1 13 -6 33 -16 43 -10
11 -12 18 -4 18 8 0 6 8 -5 25 -8 13 -13 28 -10 34 3 5 1 11 -4 13 -6 2 -12
14 -14 28 -2 14 -6 32 -9 40 -14 35 -30 120 -42 218 -12 94 -30 165 -46 185
-15 18 -18 19 -19 5 0 -9 4 -18 10 -20 5 -1 12 -19 15 -38 l5 -35 -20 40 c-11
22 -20 57 -20 78 0 20 -4 37 -8 37 -4 0 -8 8 -9 18 -1 9 -5 40 -7 67 -4 35 -3
44 3 30 5 -11 10 -31 11 -45 1 -34 41 -119 47 -101 3 7 1 16 -4 20 -20 12 -49
141 -33 141 6 0 10 9 10 20 0 11 -4 20 -10 20 -5 0 -10 15 -10 33 0 17 -7 60
-15 94 -10 45 -12 70 -5 90 9 26 9 27 -5 9 -11 -14 -15 -16 -15 -5 0 8 7 23
15 33 18 24 19 36 4 73 -10 26 -12 26 -19 8 l-7 -20 -6 20 c-3 11 -8 37 -12
58 -3 20 -10 37 -16 37 -6 0 -8 -12 -5 -27 3 -16 7 -46 11 -68 l5 -40 -14 35
c-8 19 -15 47 -15 62 -1 15 -20 67 -43 115 -22 49 -41 96 -40 105 0 10 -3 20
-9 23 -5 4 -9 0 -9 -7 -1 -8 -6 -6 -15 6 -8 11 -15 15 -15 10z m27 -256 c-3
-8 -6 -5 -6 6 -1 11 2 17 5 13 3 -3 4 -12 1 -19z m41 -243 c-3 -3 -9 2 -12 12
-6 14 -5 15 5 6 7 -7 10 -15 7 -18z m126 -20 l6 -30 -14 25 c-8 14 -12 28 -9
33 7 11 9 7 17 -28z m-17 -47 c-3 -8 -6 -5 -6 6 -1 11 2 17 5 13 3 -3 4 -12 1
-19z m33 -23 c0 -5 -5 -3 -10 5 -5 8 -10 20 -10 25 0 6 5 3 10 -5 5 -8 10 -19
10 -25z m-103 -37 c-3 -8 -6 -5 -6 6 -1 11 2 17 5 13 3 -3 4 -12 1 -19z m103
-22 c0 -26 -6 -18 -14 19 -5 22 -4 26 4 15 5 -8 10 -24 10 -34z m19 -256 c1
-13 0 -13 -9 0 -5 8 -9 26 -9 40 l1 25 8 -25 c4 -14 8 -32 9 -40z m56 -150 c3
-5 -1 -10 -9 -10 -9 0 -16 5 -16 10 0 6 4 10 9 10 6 0 13 -4 16 -10z m8 -49
c3 -12 0 -18 -7 -15 -6 2 -12 13 -12 24 0 23 12 17 19 -9z m-53 10 c0 -5 3
-17 7 -27 4 -11 3 -15 -4 -11 -14 9 -24 47 -12 47 5 0 9 -4 9 -9z"/>
<path d="M4360 3390 c0 -5 5 -10 11 -10 5 0 7 5 4 10 -3 6 -8 10 -11 10 -2 0
-4 -4 -4 -10z"/>
<path d="M4321 3334 c6 -21 13 -41 16 -44 9 -9 -9 65 -18 74 -4 5 -3 -8 2 -30z"/>
<path d="M4490 3310 c0 -5 5 -10 11 -10 5 0 7 5 4 10 -3 6 -8 10 -11 10 -2 0
-4 -4 -4 -10z"/>
<path d="M4291 3293 c0 -4 4 -17 9 -28 8 -19 9 -19 9 2 1 12 -3 25 -9 28 -5 3
-10 3 -9 -2z"/>
<path d="M4546 3270 c7 -28 12 -35 18 -29 2 2 -2 15 -10 29 l-15 25 7 -25z"/>
<path d="M4510 3273 c0 -4 5 -15 10 -23 8 -13 10 -13 10 2 0 9 -4 20 -10 23
-5 3 -10 3 -10 -2z"/>
<path d="M4570 3195 c0 -5 5 -17 10 -25 5 -8 10 -10 10 -5 0 6 -5 17 -10 25
-5 8 -10 11 -10 5z"/>
<path d="M4320 3153 c0 -4 5 -15 10 -23 8 -13 10 -13 10 2 0 9 -4 20 -10 23
-5 3 -10 3 -10 -2z"/>
<path d="M4351 3040 c0 -14 3 -32 9 -40 15 -24 18 -7 4 30 -11 31 -13 32 -13
10z"/>
<path d="M4360 2965 c0 -24 33 -145 40 -145 4 0 2 21 -6 47 -8 25 -14 56 -14
69 0 13 -4 26 -10 29 -5 3 -10 3 -10 0z"/>
<path d="M4320 2917 c0 -4 7 -21 15 -37 9 -18 11 -31 5 -35 -6 -3 -10 -17 -10
-30 0 -18 4 -23 15 -19 21 9 19 63 -5 99 -11 17 -20 26 -20 22z"/>
<path d="M1153 2847 c-103 -59 -136 -83 -145 -106 -25 -63 -32 -72 -50 -68
-10 3 -18 2 -18 -2 0 -4 -25 -11 -55 -17 -33 -6 -55 -6 -55 -1 0 18 -64 -3
-94 -31 -17 -15 -24 -18 -16 -8 14 18 14 19 -7 7 -13 -6 -23 -19 -23 -29 0
-14 -2 -15 -9 -3 -8 12 -18 6 -52 -30 -23 -24 -46 -43 -51 -41 -6 1 -16 -2
-22 -8 -7 -5 -16 -7 -19 -3 -4 3 -7 -1 -7 -9 0 -9 -11 -23 -24 -32 -14 -8 -39
-37 -57 -63 -18 -27 -25 -42 -16 -34 21 17 21 13 1 -29 -10 -20 -16 -51 -14
-84 3 -54 2 -122 -1 -144 -3 -20 -97 -114 -108 -108 -13 8 -93 -85 -87 -101 3
-8 2 -12 -3 -9 -10 7 -53 -39 -77 -84 -21 -39 -31 -53 -57 -81 -25 -28 -68
-110 -62 -119 3 -5 -1 -10 -7 -12 -10 -4 -14 -80 -17 -326 -3 -288 -1 -322 13
-322 9 0 13 6 10 14 -3 8 1 25 9 38 8 13 18 38 22 55 4 18 12 33 20 33 14 0
29 45 20 60 -4 6 -1 10 5 10 6 0 9 4 6 9 -10 15 5 40 20 34 10 -4 12 0 7 13
-5 12 -3 15 6 9 10 -6 11 -2 6 15 -6 19 -4 21 14 15 17 -5 21 -2 21 14 0 14 9
23 25 27 14 3 25 11 25 16 0 6 -7 8 -15 4 -8 -3 -15 -1 -15 4 0 5 8 10 17 12
10 2 18 10 19 18 3 48 5 52 19 46 8 -3 14 -2 13 2 -5 18 15 52 30 52 15 1 15
2 -1 11 -9 5 -22 7 -27 4 -6 -3 -7 1 -4 9 3 9 10 13 15 10 5 -3 9 2 9 10 0 9
4 16 8 16 4 0 8 17 9 38 0 31 5 60 13 82 3 8 7 24 8 38 1 6 9 12 18 12 8 0 12
5 9 11 -13 21 5 57 31 63 25 7 26 8 8 21 -11 8 -14 14 -9 14 19 0 42 -24 37
-39 -4 -12 -2 -11 11 2 10 10 25 14 38 11 14 -4 20 -2 16 5 -4 5 -1 13 5 15
10 4 10 6 1 6 -7 1 -13 6 -13 12 0 5 5 7 11 3 11 -7 29 12 29 31 -1 6 -5 2
-11 -7 -10 -17 -39 -14 -39 4 0 5 4 7 10 3 5 -3 17 -2 27 3 22 12 62 28 84 35
9 3 22 0 29 -6 13 -12 12 -8 -6 38 -4 10 0 15 11 15 9 0 14 -3 12 -7 -3 -5 2
-15 11 -22 14 -13 15 -12 8 10 -4 13 -9 33 -12 44 -4 18 -4 18 4 2 7 -17 9
-17 21 -3 7 9 9 16 4 16 -18 0 -7 43 13 51 10 4 13 8 6 8 -7 1 -10 6 -7 11 4
6 11 7 17 4 13 -8 2 13 -20 39 -15 16 -14 17 3 11 13 -5 16 -4 11 5 -5 7 0 21
10 32 16 18 16 19 -2 19 -13 0 -20 7 -20 19 0 11 3 18 7 15 9 -5 16 16 14 43
-1 14 3 19 12 16 16 -6 18 13 2 23 -8 4 -4 11 11 19 l23 12 -23 16 -22 15 21
14 c11 7 21 16 21 21 0 4 -4 5 -10 2 -14 -9 -13 8 2 23 9 9 9 12 -1 12 -7 0
-9 5 -5 11 4 8 11 3 20 -12 l13 -24 7 33 c3 17 10 32 15 32 5 0 9 5 9 12 0 9
-3 9 -12 0 -17 -17 -24 -15 -25 8 -1 11 2 18 8 15 5 -4 9 -4 9 0 0 3 -12 10
-27 16 -17 7 -23 13 -15 16 7 3 24 21 37 41 17 25 25 31 25 19 0 -10 4 -16 10
-12 5 3 6 13 3 23 -6 14 -4 15 9 4 13 -10 17 -10 22 3 3 9 2 13 -4 10 -6 -3
-7 1 -4 10 4 11 10 12 18 6 8 -7 21 -5 39 4 15 8 25 9 21 4 -9 -16 35 -1 68
23 15 11 36 20 46 21 11 0 19 8 18 16 -1 8 13 18 32 23 17 5 32 14 32 21 0 7
5 4 11 -6 10 -17 12 -17 35 -2 13 8 24 13 24 9 0 -4 6 -2 13 4 21 17 105 26
122 12 12 -10 15 -10 15 1 0 10 3 11 8 3 14 -22 100 -61 128 -58 17 1 33 -4
42 -14 7 -9 11 -11 7 -4 -9 17 20 15 35 -3 7 -8 16 -12 21 -9 5 3 12 -2 15
-10 3 -9 11 -16 16 -16 6 0 8 7 4 15 -9 26 3 17 25 -17 12 -18 18 -24 15 -14
-7 20 -7 20 15 0 18 -16 19 -20 5 -22 -9 -2 -16 -8 -16 -14 0 -5 7 -7 15 -4
18 7 33 -25 29 -62 -1 -13 4 -26 12 -29 8 -3 14 -11 14 -19 0 -8 4 -14 10 -14
5 0 7 -7 4 -15 -5 -13 -9 -13 -23 -3 -14 11 -14 11 -3 -4 10 -13 11 -22 2 -37
-8 -16 -8 -21 1 -21 7 0 5 -8 -5 -19 -10 -11 -15 -25 -10 -32 4 -8 3 -10 -4
-5 -7 4 -12 1 -12 -9 0 -8 -7 -18 -15 -21 -8 -4 -13 -10 -10 -14 3 -5 0 -12
-6 -16 -6 -3 -15 -1 -19 6 -11 18 -26 -30 -29 -91 -1 -15 -75 -59 -126 -74
-15 -5 -16 -8 -6 -14 9 -6 10 -14 5 -24 -6 -10 -14 -13 -23 -8 -10 7 -11 13
-1 31 13 23 8 36 -9 25 -6 -3 -9 -11 -6 -16 4 -5 -8 -9 -26 -9 l-32 0 24 -22
c17 -14 19 -19 7 -15 -10 4 -18 2 -18 -3 0 -6 5 -10 12 -10 8 0 6 -6 -5 -17
-16 -16 -18 -16 -40 7 l-22 24 23 -18 c12 -11 25 -16 30 -12 4 4 -1 13 -10 20
-10 7 -15 16 -11 19 9 10 -48 -9 -84 -27 -17 -9 -34 -24 -37 -32 -4 -9 -13
-14 -21 -10 -11 4 -15 0 -13 -10 2 -11 -5 -18 -20 -20 -15 -3 -21 0 -16 7 4 7
1 10 -7 7 -8 -3 -15 -12 -17 -21 -3 -13 1 -15 14 -10 16 6 17 5 4 -9 -13 -13
-16 -13 -33 6 -10 12 -16 16 -12 9 6 -13 -28 -36 -39 -26 -3 3 -14 -1 -24 -11
-12 -10 -26 -14 -38 -9 -17 6 -17 5 -5 -10 12 -15 12 -17 -3 -11 -12 5 -18 -1
-22 -25 -4 -17 -11 -31 -16 -31 -6 0 -8 7 -4 15 3 9 0 15 -9 15 -8 0 -15 -4
-15 -10 0 -14 -27 -13 -36 1 -3 6 -1 15 6 19 9 5 9 9 1 14 -6 4 -11 2 -11 -4
0 -7 -7 -10 -15 -7 -8 4 -17 2 -20 -3 -4 -6 -2 -10 3 -10 5 0 12 -9 15 -20 3
-11 9 -19 14 -18 4 2 9 -2 11 -7 1 -5 -8 -10 -20 -10 -14 0 -22 5 -20 13 2 10
-2 10 -20 1 -22 -12 -22 -12 -3 -19 18 -6 18 -7 1 -17 -12 -7 -15 -13 -7 -17
6 -4 11 -2 11 3 0 6 5 11 11 11 8 0 8 -4 0 -14 -9 -11 -9 -15 1 -20 7 -3 3 -3
-8 -1 -13 3 -28 -1 -37 -9 -13 -13 -17 -13 -33 7 -10 12 -12 16 -4 9 20 -17
32 -15 28 5 -4 22 -44 27 -52 6 -6 -14 -11 -12 -35 11 -18 18 -31 24 -35 17
-4 -6 0 -11 8 -11 9 0 16 -3 17 -7 0 -5 2 -16 4 -25 2 -11 -2 -15 -11 -11 -8
3 -11 10 -7 17 3 6 0 5 -8 -2 -12 -11 -11 -16 9 -32 12 -10 22 -23 22 -29 0
-6 7 -11 15 -11 9 0 15 -6 14 -12 -3 -26 1 -39 11 -33 6 3 10 0 10 -8 0 -10
11 -14 40 -12 28 1 40 -2 40 -11 0 -8 7 -14 15 -14 20 0 19 7 -5 38 -26 33
-12 52 25 32 23 -12 27 -11 50 14 15 16 29 25 32 22 4 -3 0 -12 -8 -19 -8 -6
-21 -21 -29 -32 -14 -19 -14 -19 6 -2 11 9 26 17 32 17 7 0 12 6 12 14 0 8 5
18 12 22 7 4 8 3 4 -4 -4 -7 -3 -12 3 -12 5 0 13 5 17 11 3 6 15 9 25 6 11 -3
17 -2 15 1 -2 4 2 13 10 20 12 11 14 10 14 -3 0 -9 5 -13 11 -9 6 3 15 0 20
-7 6 -10 9 -11 9 -1 0 6 9 12 20 12 11 0 20 -6 20 -12 0 -8 7 -5 15 6 9 12 15
15 15 7 0 -10 3 -11 14 -2 10 8 16 9 21 1 3 -6 10 -8 15 -5 15 9 21 -29 14
-92 -3 -35 -11 -66 -17 -70 -6 -4 -8 8 -4 33 3 21 3 31 1 22 -3 -10 -9 -18
-14 -18 -9 0 -25 -39 -22 -52 1 -5 -5 -8 -13 -8 -8 0 -15 -9 -15 -19 0 -11
-11 -29 -26 -40 -14 -11 -26 -23 -27 -28 -1 -4 -7 -7 -14 -7 -8 1 -9 -5 -2
-24 8 -20 7 -23 -3 -15 -17 14 -59 23 -53 12 8 -11 -13 -49 -26 -49 -6 0 -7 5
-3 11 4 7 1 10 -7 7 -9 -3 -13 -17 -12 -39 1 -19 -1 -26 -4 -16 -3 11 -11 16
-20 13 -8 -3 -17 -6 -19 -6 -2 0 -4 -8 -4 -17 0 -16 -2 -16 -11 -3 -8 11 -12
12 -16 3 -2 -7 -11 -13 -18 -13 -8 0 -11 -7 -8 -20 7 -25 23 -26 23 -2 0 14 8
19 30 20 17 0 30 -3 30 -8 0 -11 -80 -80 -94 -81 -44 -3 -58 -8 -76 -24 -11
-10 -20 -28 -21 -39 0 -21 -1 -21 -8 -1 -5 11 -5 22 -2 25 4 3 5 29 3 59 -3
34 -7 49 -13 40 -4 -7 -11 -10 -15 -7 -3 4 6 19 20 33 28 28 36 46 11 25 -8
-7 -15 -9 -15 -6 0 4 -8 3 -17 -3 -12 -6 -20 -5 -28 6 -10 13 -15 13 -36 3
-13 -7 -31 -16 -39 -20 -8 -4 -15 -13 -15 -20 0 -25 -25 -22 -35 4 -5 14 -15
26 -21 26 -8 0 -8 4 1 15 8 10 9 15 2 15 -13 0 -36 -39 -28 -48 3 -3 6 1 6 9
1 9 8 6 20 -10 19 -22 19 -24 3 -38 -17 -14 -17 -14 0 -9 15 5 16 3 6 -15 -6
-11 -8 -27 -5 -35 4 -9 2 -12 -5 -8 -6 3 -4 -5 6 -19 12 -19 13 -27 4 -33 -8
-4 -9 -3 -5 4 6 11 -13 17 -30 10 -3 -2 -10 5 -15 15 -6 9 -14 15 -19 12 -12
-7 -60 16 -60 29 0 6 -5 4 -10 -4 -9 -13 -11 -13 -20 0 -5 8 -10 20 -10 25 0
6 5 3 10 -5 9 -13 12 -13 24 2 7 10 17 18 21 18 4 0 2 -6 -4 -13 -8 -11 -5
-16 15 -25 30 -14 34 -15 34 -3 0 5 -10 12 -23 14 -22 4 -22 4 0 6 24 1 28 33
9 61 -12 16 -86 24 -86 9 0 -8 14 -13 32 -10 11 1 2 -33 -10 -37 -8 -2 -10 3
-5 14 5 13 3 15 -8 8 -8 -4 -23 -7 -34 -5 -16 3 -17 1 -6 -13 11 -13 11 -16
-2 -16 -8 0 -20 7 -27 15 -9 11 -9 15 -1 15 7 0 11 7 9 16 -2 10 3 19 11 22 8
3 11 0 7 -7 -4 -6 -2 -11 3 -11 14 0 14 17 1 25 -6 4 -4 12 5 21 8 9 19 12 25
9 5 -3 20 1 32 9 21 15 21 16 3 16 -17 0 -17 2 -5 10 8 5 16 14 16 20 3 23 5
24 14 10 7 -11 11 -9 19 13 6 15 13 27 15 27 3 0 2 -7 -1 -17 -4 -11 -3 -14 5
-9 8 4 10 2 6 -8 -7 -19 30 -10 48 12 11 13 10 15 -8 10 -14 -4 -27 1 -38 13
-9 11 -12 19 -6 19 5 0 13 -7 18 -16 8 -14 10 -13 23 2 12 15 12 17 0 9 -11
-6 -13 -4 -8 9 4 9 3 15 -2 12 -5 -3 -8 6 -9 20 0 15 -9 32 -23 42 -31 22 -59
23 -51 3 5 -14 3 -14 -11 -2 -19 15 -23 1 -5 -17 9 -9 6 -12 -13 -12 -30 0
-72 -50 -63 -74 3 -9 1 -16 -6 -16 -6 0 -8 5 -5 10 3 6 2 10 -4 10 -5 0 -13
-9 -16 -21 -4 -11 -17 -24 -30 -29 -18 -7 -21 -14 -18 -34 4 -21 2 -25 -11
-20 -16 6 -46 -11 -46 -27 0 -5 15 -6 33 -3 28 5 30 4 12 -7 -11 -7 -27 -21
-36 -31 -9 -10 -21 -18 -28 -18 -6 0 -11 -4 -11 -10 0 -12 67 -80 79 -80 5 0
7 -10 4 -21 -6 -21 -7 -21 -20 5 -7 14 -20 26 -27 26 -7 0 -19 7 -26 15 -17
20 -22 19 -44 -11 l-19 -26 29 18 29 18 -21 -21 c-11 -11 -30 -25 -42 -32 -12
-6 -19 -17 -17 -24 7 -17 80 -13 100 6 13 14 20 14 35 4 11 -6 20 -18 20 -25
0 -7 -4 -11 -8 -8 -4 2 -9 -7 -10 -22 -1 -15 -11 -34 -21 -43 -11 -9 -17 -19
-14 -23 11 -11 23 -6 23 9 0 8 5 15 11 15 7 0 5 -9 -5 -24 -9 -14 -12 -27 -7
-31 12 -7 41 4 41 16 0 5 9 9 21 9 11 0 17 -4 14 -10 -4 -6 1 -7 11 -3 13 5
15 3 9 -8 -8 -12 -6 -12 9 0 13 11 19 12 29 2 9 -10 9 -12 -3 -9 -20 4 -26
-40 -6 -48 9 -3 30 -31 47 -61 17 -30 42 -59 55 -65 30 -14 32 -30 1 -19 -26
9 -68 -23 -42 -33 8 -3 17 -17 21 -31 6 -25 15 -31 28 -18 12 12 37 12 29 0
-4 -7 -7 -21 -6 -32 1 -16 1 -16 -3 -3 -9 29 -27 21 -20 -8 l7 -27 -26 31
c-17 20 -31 29 -42 25 -11 -4 -14 -3 -9 5 4 7 0 15 -9 18 -13 6 -14 8 -3 15 9
6 4 9 -15 9 -15 0 -30 6 -33 14 -3 8 -11 13 -18 10 -7 -3 -26 8 -42 23 -16 15
-32 28 -36 28 -4 0 -17 8 -28 17 -11 10 -24 18 -29 18 -18 0 -19 29 -3 76 9
27 20 51 23 54 4 3 0 12 -9 20 -14 13 -15 12 -9 -4 5 -11 3 -16 -5 -14 -17 6
-23 68 -6 68 8 0 5 5 -5 11 -14 8 -21 7 -30 -3 -7 -8 -31 -29 -55 -47 -32 -25
-42 -39 -42 -62 0 -16 -5 -29 -11 -29 -5 0 -7 -4 -4 -10 9 -14 -13 -50 -31
-50 -8 0 -12 5 -9 10 3 6 2 10 -3 10 -27 0 -31 -203 -5 -232 15 -17 15 -18 0
-18 -10 0 -17 -8 -17 -20 0 -11 7 -20 16 -20 10 0 14 -7 12 -22 -2 -15 2 -22
10 -20 8 1 11 -2 8 -7 -3 -5 -15 -7 -26 -4 -20 5 -20 0 -20 -200 0 -113 4
-208 9 -211 5 -3 12 -22 15 -41 l7 -35 493 0 493 0 -15 63 c-35 154 -70 245
-177 462 -62 127 -120 247 -129 268 -15 37 -10 47 11 26 9 -9 14 -5 19 14 4
17 10 24 18 19 30 -19 109 -3 120 24 3 8 11 14 19 14 7 0 34 23 60 50 52 55
71 61 88 28 6 -13 40 -66 74 -119 72 -109 118 -211 140 -308 9 -36 38 -114 66
-174 40 -85 52 -125 60 -193 6 -47 16 -104 23 -127 l12 -42 119 -3 c78 -1 115
1 105 7 -8 5 -17 8 -21 5 -4 -2 -6 25 -6 60 2 62 16 83 18 28 1 -16 3 -20 6
-10 4 14 35 18 63 8 3 -2 8 -2 13 -1 4 0 7 -5 7 -13 0 -24 24 -27 95 -11 16 3
32 11 36 17 4 7 9 7 13 -1 4 -6 2 -11 -4 -11 -6 0 -8 -5 -4 -11 5 -8 9 -8 14
1 5 8 12 5 24 -11 10 -15 16 -18 16 -9 0 13 1 13 10 0 5 -8 11 -12 15 -9 9 10
-29 46 -44 41 -8 -3 -12 1 -9 9 3 8 14 15 26 15 12 1 19 -2 17 -7 -3 -4 -1
-10 5 -14 5 -3 10 0 10 8 0 21 40 29 58 11 10 -11 17 -12 22 -4 5 8 11 6 20
-4 7 -9 16 -13 21 -10 14 9 10 -6 -6 -22 -17 -18 -20 -64 -4 -64 7 0 9 10 7
25 -3 13 -2 22 3 20 4 -3 10 4 14 15 5 17 9 18 28 8 40 -22 53 -18 48 15 0 4
3 7 9 7 5 0 10 -6 10 -14 0 -8 5 -18 12 -22 6 -4 8 -3 5 3 -10 17 27 22 42 6
11 -12 15 -12 25 3 12 15 13 15 19 0 4 -9 2 -16 -3 -16 -6 0 -5 -9 2 -20 7
-11 17 -20 22 -20 4 0 4 6 -2 13 -12 14 4 32 28 32 8 0 14 6 12 13 -1 6 5 12
13 12 17 0 20 16 5 25 -14 9 -12 27 3 23 6 -3 12 -11 12 -19 0 -8 9 -13 23
-12 12 2 22 -2 22 -7 0 -6 7 -10 15 -10 8 0 15 -5 15 -10 0 -12 22 -9 32 4 6
9 123 -9 143 -22 6 -4 12 -7 15 -8 3 0 13 -4 23 -7 9 -4 25 -10 35 -14 9 -3
23 -5 31 -4 7 1 11 -1 8 -6 -3 -4 19 -9 48 -11 29 -1 56 2 60 7 3 6 12 8 20 4
8 -3 15 -1 15 4 0 6 -18 15 -39 22 -21 6 -41 18 -44 25 -4 9 -14 13 -29 9 -16
-3 -19 -2 -10 5 11 7 10 10 -3 16 -23 8 -27 8 -20 -4 10 -16 0 -11 -31 15 -31
27 -54 34 -34 11 10 -13 8 -13 -14 -3 -17 8 -21 14 -13 20 8 6 7 7 -3 4 -8 -2
-22 0 -32 4 -10 5 -31 3 -55 -6 l-38 -14 45 4 c44 5 44 5 10 -5 -19 -6 -42
-14 -51 -19 -18 -11 -33 -3 -42 21 -3 9 -13 15 -21 14 -27 -4 -31 -17 -8 -23
12 -3 22 -12 22 -20 0 -11 -6 -10 -26 6 -15 12 -33 21 -40 21 -8 0 -14 4 -14
10 0 5 6 7 13 4 7 -2 22 5 33 17 l19 22 -23 -12 c-13 -7 -26 -10 -29 -7 -4 3
-12 1 -20 -6 -7 -6 -16 -8 -19 -5 -3 3 -17 2 -30 -3 -20 -8 -24 -6 -24 8 0 10
-3 13 -8 7 -4 -6 -13 -10 -19 -9 -7 1 -19 2 -25 3 -9 1 -9 4 2 12 12 8 10 9
-7 4 -13 -4 -23 -2 -23 4 0 6 -6 8 -14 5 -8 -3 -17 -1 -21 5 -3 6 -15 11 -25
11 -10 0 -20 4 -22 10 -1 5 -32 20 -68 33 -39 15 -64 29 -62 37 2 8 -5 11 -22
8 -16 -3 -27 0 -31 10 -3 8 -12 11 -20 8 -8 -3 -15 -1 -15 5 0 6 -4 7 -10 4
-5 -3 -10 -2 -10 3 0 5 -19 14 -42 21 -46 13 -85 29 -106 45 -7 5 -30 10 -50
12 -20 1 -38 7 -40 13 -2 6 -12 11 -22 11 -10 0 -28 11 -41 25 -25 26 -44 33
-34 13 4 -7 1 -6 -7 3 -18 21 -68 34 -69 17 -1 -15 -23 44 -33 87 l-7 30 22
-33 c16 -24 24 -30 30 -21 6 11 15 10 44 -4 20 -10 33 -12 29 -6 -4 7 -1 10 7
7 8 -3 13 -10 12 -16 -1 -5 6 -8 15 -5 29 7 173 -35 212 -62 19 -13 50 -28 68
-31 18 -4 35 -10 38 -15 3 -5 -3 -6 -13 -3 -14 5 -15 4 -4 -4 7 -5 21 -9 30
-7 8 1 21 -4 29 -11 7 -7 19 -11 27 -8 8 4 15 2 15 -3 0 -6 11 -15 25 -21 19
-9 25 -9 25 1 0 8 4 7 11 -3 8 -11 12 -12 16 -3 3 10 8 10 18 -1 8 -7 29 -12
49 -10 28 2 36 -1 37 -14 0 -12 2 -13 6 -4 3 8 0 25 -8 38 -10 20 -20 24 -58
25 -25 0 -40 3 -33 6 6 2 12 10 12 15 0 6 -3 9 -6 5 -4 -3 -13 1 -22 9 -11 11
-17 12 -22 4 -6 -9 -13 -9 -28 -1 -17 9 -21 8 -25 -7 -3 -12 -5 -10 -7 8 -1
14 -2 29 -1 33 1 5 -3 6 -9 2 -5 -3 -10 -2 -10 2 0 5 -14 8 -30 7 -28 -2 -49
11 -37 22 3 3 25 8 49 10 70 7 67 5 55 25 -8 13 -13 15 -19 6 -6 -9 -8 -9 -8
0 0 6 -9 14 -20 17 -11 3 -30 9 -41 12 -14 4 -19 2 -15 -5 4 -6 2 -11 -3 -11
-6 0 -11 7 -11 15 0 8 -5 15 -11 15 -6 0 -8 8 -4 19 4 14 0 21 -12 24 -17 4
-17 5 0 6 9 0 17 5 17 10 0 5 -9 7 -20 4 -11 -3 -20 -9 -20 -14 0 -5 -5 -9
-12 -9 -6 0 -3 10 8 22 10 12 13 18 7 14 -8 -4 -13 -2 -13 6 0 11 -2 11 -9 0
-6 -10 -11 -9 -22 4 -12 16 -12 17 1 9 10 -5 12 -5 5 3 -5 6 -21 12 -35 15
-21 4 -20 4 7 6 17 0 35 5 38 11 3 5 0 7 -8 5 -7 -3 -24 4 -38 16 -16 15 -20
23 -11 26 6 3 10 9 6 14 -3 5 7 4 21 -3 24 -11 29 -10 42 7 10 14 14 15 13 5
-1 -8 -2 -20 -1 -25 1 -14 44 -14 53 -1 5 7 8 7 8 -1 0 -9 16 -13 44 -13 32 0
46 -5 50 -17 6 -14 9 -15 15 -4 6 9 20 12 40 9 26 -4 31 -1 31 16 0 17 -7 21
-36 23 -20 1 -46 8 -57 16 -13 8 -45 13 -79 11 -44 -1 -58 2 -58 13 0 11 -4
11 -21 3 -11 -7 -28 -9 -36 -5 -9 3 -20 0 -25 -7 -6 -10 -8 -8 -8 5 0 18 -20
19 -32 2 -5 -6 -8 -5 -8 2 0 7 -20 18 -45 24 -25 6 -45 15 -45 20 0 5 -3 8 -7
8 -33 -5 -48 26 -18 37 8 4 15 16 16 28 0 14 2 16 6 6 7 -18 23 -30 40 -30 7
0 10 7 7 15 -9 22 2 18 31 -10 21 -22 25 -23 25 -8 0 14 2 15 9 5 11 -17 21
-17 32 0 6 10 9 8 9 -7 0 -15 2 -17 9 -6 6 9 11 10 15 2 9 -13 102 -8 100 5
-1 5 -11 14 -23 20 -31 16 -36 24 -12 17 16 -4 21 -1 21 13 0 16 -2 17 -10 4
-8 -12 -10 -10 -10 8 0 16 -4 21 -12 16 -9 -5 -9 -2 1 9 15 19 1 23 -17 5 -9
-9 -12 -7 -13 13 0 22 -1 22 -9 4 l-9 -20 0 20 c-1 17 -3 17 -11 5 -8 -13 -10
-12 -10 4 0 11 -3 16 -6 13 -4 -3 -15 -2 -25 4 -15 8 -19 6 -20 -8 0 -14 -2
-15 -6 -3 -8 21 -26 31 -34 18 -4 -6 -14 -8 -24 -5 -9 4 -14 10 -12 14 3 5
-12 8 -34 8 -26 1 -40 -4 -43 -15 -2 -8 -2 5 0 30 3 33 2 40 -5 25 -9 -19 -10
-18 -11 5 l-2 25 -8 -25 -8 -25 -2 25 -2 25 -8 -25 -8 -25 -1 28 c-1 15 -5 27
-10 27 -4 0 -7 -12 -4 -27 3 -26 3 -27 -6 -6 -6 13 -16 23 -23 23 -9 0 -9 3 2
10 13 9 13 11 0 20 -11 7 -17 4 -22 -13 -5 -17 -6 -18 -7 -4 -1 11 -6 15 -12
11 -8 -4 -9 1 -4 17 7 23 7 24 -8 4 -16 -19 -16 -19 -11 5 2 14 1 19 -2 11 -5
-11 -8 -11 -15 0 -7 11 -9 9 -10 -6 -1 -12 -6 -4 -14 20 -11 33 -14 36 -15 15
-1 -23 -2 -23 -10 -5 -5 12 -9 14 -9 6 -1 -11 -5 -10 -16 5 -13 18 -14 18 -9
-6 4 -24 4 -24 -5 -3 -9 19 -14 21 -40 13 -19 -5 -31 -5 -31 1 0 5 7 9 15 9 9
0 34 9 55 20 22 11 40 18 40 16 0 -3 25 6 55 20 41 17 57 21 60 12 10 -34 15
-40 11 -16 -3 26 6 34 37 29 4 0 7 4 7 10 0 6 7 8 16 5 8 -3 12 -2 9 4 -3 6
-1 10 4 10 6 0 12 -12 12 -27 2 -25 2 -24 9 7 4 19 8 29 9 22 0 -7 6 -10 12
-6 6 3 15 0 20 -7 7 -11 9 -9 10 6 1 11 5 4 9 -15 l7 -35 3 40 c2 35 3 37 10
15 8 -24 8 -24 9 -2 1 12 7 22 16 22 9 0 15 10 16 23 1 21 1 21 9 -3 7 -21 8
-22 9 -5 1 17 3 17 11 5 6 -9 10 -11 10 -3 0 7 7 10 15 7 11 -5 15 1 16 22 1
28 1 28 8 5 6 -23 7 -23 24 -7 9 10 17 13 17 7 0 -6 5 -11 11 -11 5 0 7 4 4
10 -3 6 1 7 9 4 9 -3 16 -10 16 -16 0 -5 -4 -6 -10 -3 -5 3 -10 1 -10 -4 0 -6
7 -11 15 -11 8 0 15 5 15 12 0 6 3 8 7 5 3 -4 12 -2 20 5 11 9 13 8 11 -2 -2
-9 6 -15 21 -16 13 -1 27 -7 31 -14 6 -10 9 -8 13 6 4 17 5 17 6 -2 1 -17 8
-20 44 -21 132 -4 153 -7 154 -25 1 -10 -4 -18 -12 -18 -8 0 -11 -7 -8 -21 5
-17 11 -20 37 -15 17 3 46 2 64 -3 20 -6 30 -6 27 0 -10 15 32 10 45 -6 11
-13 10 -15 -6 -9 -18 5 -18 5 -1 -6 9 -6 25 -9 35 -6 9 3 24 1 32 -4 8 -5 11
-10 5 -10 -5 0 1 -7 13 -16 12 -8 26 -13 31 -10 8 5 58 -27 71 -46 3 -4 30 -9
59 -11 36 -3 57 -10 63 -21 5 -9 14 -16 20 -16 6 0 -1 11 -16 25 -14 13 -26
27 -26 31 0 12 -74 74 -88 74 -7 0 -12 7 -10 16 2 10 -3 19 -11 22 -10 3 -11
0 -5 -9 7 -12 5 -12 -9 0 -20 16 -22 37 -4 44 7 3 5 6 -5 6 -10 1 -18 5 -18
10 0 5 -9 13 -21 16 -12 4 -18 13 -15 20 3 8 0 16 -7 19 -7 2 -2 5 11 5 12 1
22 6 22 12 0 6 -9 9 -20 6 -11 -3 -23 -1 -26 4 -5 8 10 13 29 10 5 -1 6 3 2 8
-3 6 -11 8 -19 5 -18 -7 -68 14 -61 25 3 6 -4 8 -17 4 -13 -3 -31 -6 -40 -6
-14 -1 -15 -4 -5 -17 7 -9 3 -7 -10 3 -14 12 -29 16 -42 12 -14 -4 -23 -1 -27
9 -3 9 -10 16 -16 16 -5 0 -6 -4 -3 -10 3 -5 1 -10 -4 -10 -6 0 -11 5 -11 11
0 5 -4 7 -10 4 -5 -3 -10 -2 -10 4 0 6 -12 17 -27 25 -16 8 -23 15 -17 16 7 0
15 7 18 16 3 8 2 13 -2 10 -5 -3 -20 1 -35 9 -18 9 -27 10 -27 3 0 -6 -3 -8
-7 -5 -3 4 1 15 11 25 16 18 15 19 -23 18 -21 -1 -37 -4 -34 -8 2 -5 -3 -8
-11 -8 -19 0 -20 5 -5 31 5 11 14 17 19 14 6 -3 7 0 4 8 -3 8 2 22 11 31 9 9
12 16 7 16 -5 0 -35 -25 -68 -56 -92 -86 -173 -140 -296 -198 -119 -56 -395
-170 -406 -167 -1 1 -18 -6 -38 -14 -41 -17 -54 -19 -54 -7 0 4 30 16 67 26
37 11 62 21 55 24 -7 2 -26 -1 -42 -7 -29 -10 -37 -5 -22 15 4 5 -3 -1 -15
-13 -12 -13 -24 -20 -26 -15 -8 12 42 82 58 82 8 0 15 5 15 11 0 5 4 8 9 5 5
-4 22 1 38 9 48 25 162 75 171 75 16 0 184 73 252 110 124 67 284 258 239 286
-6 3 -7 15 -4 27 2 12 2 16 -1 10 -3 -7 -12 -13 -20 -13 -9 0 -12 -4 -9 -10 3
-6 -1 -7 -9 -4 -9 3 -14 9 -12 13 2 3 -7 11 -20 18 -17 8 -22 8 -17 0 4 -6 -7
-1 -24 11 -17 12 -33 19 -36 16 -6 -7 -56 18 -56 29 -1 4 -1 15 -1 25 0 14 -2
15 -10 2 -5 -8 -10 -11 -10 -6 0 5 -8 2 -17 -5 -15 -12 -16 -12 -10 4 4 10 3
16 -2 13 -5 -3 -14 1 -21 9 -15 18 -38 9 -43 -18 -3 -12 -4 -5 -3 15 2 20 8
44 15 52 7 9 10 23 7 32 -4 9 -1 23 5 31 9 11 8 17 -7 27 -17 13 -16 14 10 9
27 -6 28 -5 21 26 -4 20 -3 31 5 31 6 0 9 -4 6 -8 -3 -5 5 -8 17 -8 15 1 22
-5 22 -19 1 -11 6 -29 13 -40 10 -17 11 -14 8 22 -2 24 0 45 5 48 10 7 0 35
-13 35 -6 0 -6 -6 1 -14 8 -9 8 -16 2 -20 -18 -12 -18 29 1 50 15 17 16 21 3
21 -8 0 -15 -4 -15 -9 0 -5 -4 -7 -10 -3 -5 3 -2 14 7 25 9 10 21 16 26 13 6
-3 7 -1 3 6 -4 7 -16 9 -27 6 -14 -5 -20 -2 -18 7 1 7 0 20 -4 28 -14 38 -16
80 -4 80 25 0 37 21 25 44 -11 21 -11 21 11 2 26 -23 27 -13 2 22 -23 34 -43
72 -37 72 5 0 126 -186 126 -195 0 -3 -6 -3 -12 1 -8 4 -10 3 -5 -2 5 -5 12
-9 17 -9 9 0 109 -134 129 -173 11 -20 10 -26 -6 -39 -17 -14 -17 -14 4 -10
26 6 32 -13 44 -123 l8 -75 -4 93 c-2 83 -6 100 -36 158 -19 36 -61 104 -93
152 -32 48 -100 150 -150 227 -102 156 -155 206 -240 226 -28 6 -88 31 -133
55 -44 24 -89 44 -100 44 -10 0 2 -9 26 -20 23 -11 61 -34 83 -52 22 -17 57
-34 77 -38 l36 -6 -37 -5 c-20 -3 -35 -2 -33 1 8 13 -51 37 -94 39 -25 1 -48
4 -53 7 -4 3 -8 1 -8 -4 0 -13 -49 -22 -56 -11 -3 5 -10 9 -15 9 -6 0 -7 -5
-3 -12 4 -6 3 -8 -4 -5 -17 11 -3 47 16 39 15 -5 15 -3 4 10 -10 12 -10 18 -1
23 8 6 7 10 -2 16 -19 12 -40 11 -66 -4z m252 -97 c3 -5 -7 -7 -26 -5 -42 5
-50 15 -11 15 17 0 33 -4 37 -10z m172 -30 c18 -10 49 -37 70 -58 43 -45 90
-122 74 -122 -6 0 -11 5 -11 11 0 20 -62 100 -86 111 -13 6 -24 17 -24 24 0 6
-19 21 -42 33 -24 12 -36 21 -28 21 8 0 29 -9 47 -20z m-85 -2 c21 4 34 -16
19 -31 -8 -8 -11 -6 -11 6 0 19 -4 21 -29 8 -13 -7 -17 -5 -17 9 0 10 5 16 11
12 5 -4 17 -5 27 -4z m75 -25 c-4 -3 0 -11 9 -17 13 -10 12 -12 -7 -13 -11 -1
-19 1 -15 4 3 3 1 12 -5 20 -9 10 -7 13 6 13 10 0 15 -3 12 -7z m-907 -137 c0
-3 -4 -8 -10 -11 -5 -3 -10 -1 -10 4 0 6 5 11 10 11 6 0 10 -2 10 -4z m-80
-55 c0 -5 -7 -11 -14 -14 -10 -4 -13 -1 -9 9 6 15 23 19 23 5z m170 -67 c0 -8
-4 -12 -10 -9 -5 3 -10 13 -10 21 0 8 5 12 10 9 6 -3 10 -13 10 -21z m977
-186 c-3 -7 -5 -2 -5 12 0 14 2 19 5 13 2 -7 2 -19 0 -25z m-17 -52 c0 -8 -7
-16 -15 -20 -12 -4 -13 -2 -2 14 14 24 17 25 17 6z m-15 -236 c3 -5 1 -10 -4
-10 -6 0 -11 5 -11 10 0 6 2 10 4 10 3 0 8 -4 11 -10z m-1205 -100 c0 -5 -5
-10 -11 -10 -5 0 -7 5 -4 10 3 6 8 10 11 10 2 0 4 -4 4 -10z m-40 -20 c0 -5
-2 -10 -4 -10 -3 0 -8 5 -11 10 -3 6 -1 10 4 10 6 0 11 -4 11 -10z m10 -37 c0
-7 5 -13 12 -13 18 0 0 -13 -23 -17 -16 -2 -20 1 -15 12 3 8 1 15 -4 15 -6 0
-10 4 -10 9 0 6 9 9 20 8 11 -1 20 -7 20 -14z m525 -22 c-9 -8 -36 -10 -30 -2
2 4 11 8 20 8 8 0 13 -3 10 -6z m-55 -31 c0 -5 -5 -10 -11 -10 -5 0 -7 5 -4
10 3 6 8 10 11 10 2 0 4 -4 4 -10z m240 -320 c0 -5 -5 -10 -11 -10 -5 0 -7 5
-4 10 3 6 8 10 11 10 2 0 4 -4 4 -10z m580 -40 c-8 -5 -19 -10 -25 -10 -5 0
-3 5 5 10 8 5 20 10 25 10 6 0 3 -5 -5 -10z m640 -10 c0 -5 -5 -10 -11 -10 -5
0 -7 5 -4 10 3 6 8 10 11 10 2 0 4 -4 4 -10z m-705 -20 c3 -5 1 -10 -4 -10 -6
0 -11 5 -11 10 0 6 2 10 4 10 3 0 8 -4 11 -10z m-1345 -19 c0 -6 -5 -13 -12
-17 -6 -4 -8 -3 -4 4 3 5 0 13 -6 15 -8 3 -6 6 5 6 9 1 17 -3 17 -8z m1290 -1
c-8 -5 -19 -10 -25 -10 -5 0 -3 5 5 10 8 5 20 10 25 10 6 0 3 -5 -5 -10z
m-930 -90 c0 -5 -4 -10 -10 -10 -5 0 -10 5 -10 10 0 6 5 10 10 10 6 0 10 -4
10 -10z m23 -5 c-3 -9 -8 -14 -10 -11 -3 3 -2 9 2 15 9 16 15 13 8 -4z m1637
5 c0 -5 -2 -10 -4 -10 -3 0 -8 5 -11 10 -3 6 -1 10 4 10 6 0 11 -4 11 -10z
m-2045 -11 c11 -16 1 -19 -13 -3 -7 8 -8 14 -3 14 5 0 13 -5 16 -11z m190 -9
c-3 -5 -10 -10 -16 -10 -5 0 -9 5 -9 10 0 6 7 10 16 10 8 0 12 -4 9 -10z
m-150 -28 c-3 -3 -11 0 -18 7 -9 10 -8 11 6 5 10 -3 15 -9 12 -12z m850 -73
c9 -27 14 -55 12 -62 -3 -7 -6 -4 -6 6 -1 11 -6 15 -13 11 -6 -4 -8 -3 -5 3 6
9 -14 77 -26 89 -14 14 -7 26 7 14 8 -6 22 -34 31 -61z m-870 51 c-11 -5 -14
-9 -7 -9 7 -1 10 -5 7 -11 -4 -6 -11 -5 -19 3 -18 16 -10 27 17 26 21 0 21 -1
2 -9z m65 6 c0 -3 -4 -8 -10 -11 -5 -3 -10 -1 -10 4 0 6 5 11 10 11 6 0 10 -2
10 -4z m841 -33 c-12 -20 -14 -14 -5 12 4 9 9 14 11 11 3 -2 0 -13 -6 -23z
m58 -13 c0 -10 -3 -8 -9 5 -12 27 -12 43 0 25 5 -8 9 -22 9 -30z m-45 -17 c-4
-22 -3 -25 5 -13 10 13 11 13 10 0 0 -8 -4 -24 -9 -35 l-9 -20 0 20 c-1 17 -3
18 -12 5 -10 -15 -9 -7 7 53 8 28 15 20 8 -10z m-746 -6 c14 5 15 3 5 -8 -18
-19 -16 -29 7 -29 11 0 20 -4 20 -9 0 -5 8 -11 19 -14 13 -3 18 -12 16 -32 -3
-19 0 -25 10 -21 9 3 12 0 9 -8 -6 -15 -87 -40 -92 -28 -1 4 -21 6 -43 4 -29
-3 -40 -1 -37 8 2 6 6 10 9 8 8 -4 39 23 39 34 0 6 -6 6 -14 -1 -11 -9 -15 -6
-18 13 -4 18 -1 23 10 19 12 -5 12 -2 2 17 -9 17 -9 24 0 30 6 4 12 11 13 16
1 5 5 8 10 7 4 -2 8 3 8 10 1 6 3 4 6 -5 3 -11 10 -15 21 -11z m776 -31 c-3
-15 -8 -25 -11 -23 -2 3 -1 17 3 31 3 15 8 25 11 23 2 -3 1 -17 -3 -31z m38
19 c6 15 7 11 3 -15 -3 -23 -2 -30 4 -21 7 11 10 10 15 -5 3 -10 3 -1 1 21 -3
28 -2 34 4 20 l8 -20 6 20 c3 11 4 2 1 -20 l-4 -40 14 40 c9 25 14 32 15 20 1
-15 3 -17 10 -7 7 11 10 10 15 -3 9 -26 7 -42 -4 -25 -8 13 -10 12 -10 -2 0
-10 7 -18 15 -18 8 0 15 8 15 17 0 23 6 14 14 -22 5 -22 4 -26 -4 -15 -9 13
-10 13 -10 0 0 -13 -1 -13 -10 0 -9 13 -10 13 -10 0 0 -13 -1 -13 -10 0 -9 13
-10 13 -10 0 0 -13 -1 -13 -10 0 -9 13 -10 13 -10 0 0 -12 -2 -12 -9 -2 -11
18 -20 17 -36 -5 -13 -17 -14 -16 -9 7 5 20 3 22 -5 10 -10 -13 -11 -13 -11 0
0 13 -1 13 -11 0 -8 -12 -9 -11 -5 5 3 11 8 34 13 50 6 24 8 26 11 10 l5 -20
9 20z m138 -39 c0 -26 -6 -18 -14 19 -5 22 -4 26 4 15 5 -8 10 -24 10 -34z
m17 2 c-3 -8 -6 -5 -6 6 -1 11 2 17 5 13 3 -3 4 -12 1 -19z m30 -40 c-3 -8 -6
-5 -6 6 -1 11 2 17 5 13 3 -3 4 -12 1 -19z m40 -10 c-3 -8 -6 -5 -6 6 -1 11 2
17 5 13 3 -3 4 -12 1 -19z m-157 -38 c0 -5 -2 -10 -4 -10 -3 0 -8 5 -11 10 -3
6 -1 10 4 10 6 0 11 -4 11 -10z m76 -33 c-2 -7 -5 -3 -5 8 -1 17 -3 17 -11 5
-8 -13 -10 -13 -10 1 0 9 3 19 7 23 9 9 26 -22 19 -37z m54 29 c0 -3 -4 -8
-10 -11 -5 -3 -10 -1 -10 4 0 6 5 11 10 11 6 0 10 -2 10 -4z m-1065 -66 c11
-13 14 -20 6 -20 -13 0 -41 24 -41 34 0 12 18 5 35 -14z m1115 8 c0 -4 -7 -8
-15 -8 -8 0 -15 4 -15 8 0 5 7 9 15 9 8 0 15 -4 15 -9z m40 -18 c0 -5 -5 -10
-11 -10 -5 0 -7 5 -4 10 3 6 8 10 11 10 2 0 4 -4 4 -10z m-27 -35 c-7 -21 -13
-19 -13 6 0 11 4 18 10 14 5 -3 7 -12 3 -20z m-188 5 c3 -6 -4 -10 -17 -10
-18 0 -20 2 -8 10 19 12 18 12 25 0z m275 -85 c11 -13 10 -14 -4 -9 -9 3 -16
10 -16 15 0 13 6 11 20 -6z m74 -20 c-4 -8 -11 -12 -16 -9 -6 4 -5 10 3 15 19
12 19 11 13 -6z m-335 -45 c0 -10 -3 -8 -9 5 -12 27 -12 43 0 25 5 -8 9 -22 9
-30z m41 -119 c0 -9 -7 -3 -15 13 -19 36 -19 47 0 22 8 -11 15 -27 15 -35z
m298 -1 c6 0 12 -7 12 -16 0 -11 -4 -14 -12 -7 -14 10 -40 10 -78 -1 l-25 -7
25 20 c14 12 33 19 45 16 11 -3 26 -5 33 -5z m47 0 c3 -5 1 -10 -4 -10 -6 0
-11 5 -11 10 0 6 2 10 4 10 3 0 8 -4 11 -10z m-258 -20 c9 -14 10 -21 1 -26
-7 -4 -8 -3 -4 4 4 7 1 12 -7 12 -7 0 -14 7 -14 15 0 21 10 19 24 -5z m323
-19 c0 -6 -4 -13 -10 -16 -5 -3 -10 1 -10 9 0 9 5 16 10 16 6 0 10 -4 10 -9z
m-254 -14 c4 -4 -2 -7 -14 -7 -11 0 -23 4 -26 8 -6 10 30 9 40 -1z m-167 -30
c0 -21 -1 -21 -9 -2 -12 28 -12 37 0 30 6 -3 10 -16 9 -28z m-1044 -18 c4 -10
11 -19 17 -19 6 0 25 -11 42 -24 18 -13 40 -25 51 -28 17 -3 16 -6 -12 -23
-18 -10 -30 -22 -27 -26 2 -4 -9 -2 -26 4 -16 6 -30 18 -30 25 0 8 -9 16 -20
19 -11 3 -20 10 -20 15 0 5 5 6 10 3 22 -13 8 21 -15 39 -24 18 -36 44 -15 31
6 -3 10 -2 10 4 0 17 29 1 35 -20z m1575 6 c11 -13 10 -14 -4 -9 -9 3 -16 10
-16 15 0 13 6 11 20 -6z m-128 -42 c-6 -2 -9 -10 -6 -15 4 -7 2 -8 -5 -4 -13
9 -5 26 12 25 9 0 8 -2 -1 -6z m228 -95 c0 -5 -9 -4 -20 2 -11 6 -20 12 -20
14 0 2 9 2 20 -1 11 -3 20 -9 20 -15z m-1562 1 c-2 -6 -8 -10 -13 -10 -5 0
-11 4 -13 10 -2 6 4 11 13 11 9 0 15 -5 13 -11z m30 -21 c-3 -7 -15 -14 -29
-16 -24 -4 -24 -3 -4 12 24 19 38 20 33 4z m1617 -8 c3 -5 1 -10 -4 -10 -6 0
-11 5 -11 10 0 6 2 10 4 10 3 0 8 -4 11 -10z m-1553 -75 c0 -5 -5 -11 -11 -13
-6 -2 -11 4 -11 13 0 9 5 15 11 13 6 -2 11 -8 11 -13z m968 -6 c0 -6 -4 -7
-10 -4 -5 3 -10 11 -10 16 0 6 5 7 10 4 6 -3 10 -11 10 -16z m257 -141 c-3 -8
-6 -5 -6 6 -1 11 2 17 5 13 3 -3 4 -12 1 -19z m43 18 c0 -11 -19 -15 -25 -6
-3 5 1 10 9 10 9 0 16 -2 16 -4z m75 -6 c3 -5 1 -10 -4 -10 -6 0 -11 5 -11 10
0 6 2 10 4 10 3 0 8 -4 11 -10z m360 -35 c-1 -14 2 -25 8 -25 6 0 8 -2 5 -5
-3 -3 -16 -1 -29 4 -13 5 -19 10 -13 10 7 1 14 10 17 21 7 28 16 25 12 -5z
m-190 -5 c3 -5 2 -10 -4 -10 -5 0 -13 5 -16 10 -3 6 -2 10 4 10 5 0 13 -4 16
-10z"/>
<path d="M470 1101 c0 -6 4 -12 8 -15 5 -3 9 1 9 9 0 8 -4 15 -9 15 -4 0 -8
-4 -8 -9z"/>
<path d="M510 1060 c0 -5 5 -10 11 -10 5 0 7 5 4 10 -3 6 -8 10 -11 10 -2 0
-4 -4 -4 -10z"/>
<path d="M530 1019 c0 -6 -4 -7 -10 -4 -5 3 -10 1 -10 -4 0 -13 20 -14 38 -2
11 7 11 9 -2 14 -9 4 -16 2 -16 -4z"/>
<path d="M1381 1064 c0 -11 3 -14 6 -6 3 7 2 16 -1 19 -3 4 -6 -2 -5 -13z"/>
<path d="M4370 2811 c0 -6 4 -13 10 -16 6 -3 7 1 4 9 -7 18 -14 21 -14 7z"/>
<path d="M4262 2780 c0 -8 4 -26 8 -40 6 -20 8 -21 8 -5 0 11 -3 29 -8 40 -5
12 -8 14 -8 5z"/>
<path d="M4341 2764 c0 -11 3 -14 6 -6 3 7 2 16 -1 19 -3 4 -6 -2 -5 -13z"/>
<path d="M3082 2740 c-14 -23 -15 -30 -4 -30 4 0 12 11 19 25 13 30 3 33 -15
5z"/>
<path d="M4462 2720 c0 -14 2 -19 5 -12 2 6 2 18 0 25 -3 6 -5 1 -5 -13z"/>
<path d="M4646 2717 c3 -10 9 -15 12 -12 3 3 0 11 -7 18 -10 9 -11 8 -5 -6z"/>
<path d="M4490 2720 c1 -19 50 -135 58 -138 12 -4 -13 67 -40 113 -10 17 -18
28 -18 25z"/>
<path d="M4455 2673 c4 -10 15 -49 25 -88 39 -147 49 -183 78 -270 16 -49 32
-102 36 -117 3 -14 21 -59 40 -99 19 -40 32 -79 29 -88 -4 -13 -3 -13 5 -2 5
7 12 9 15 5 20 -34 47 -86 47 -91 0 -3 -7 0 -15 7 -8 7 -15 18 -15 25 0 7 -6
18 -14 24 -10 9 -15 8 -19 -3 -6 -15 46 -71 60 -64 4 2 19 -6 33 -19 19 -19
20 -22 5 -17 -15 6 -13 0 10 -30 16 -21 31 -34 33 -28 4 13 -33 88 -49 97 -5
4 -30 46 -53 93 -24 48 -55 107 -69 132 -14 25 -30 73 -36 106 -5 34 -14 71
-20 83 -6 12 -16 30 -21 41 -6 12 -8 25 -5 30 4 6 2 10 -3 10 -6 0 -13 7 -16
16 -6 15 -4 15 10 3 16 -13 16 -12 2 16 -8 17 -23 55 -33 85 -10 30 -22 60
-27 66 -5 7 -8 16 -6 20 3 12 -20 74 -28 74 -3 0 -3 -8 1 -17z m235 -713 c0
-5 -2 -10 -4 -10 -3 0 -8 5 -11 10 -3 6 -1 10 4 10 6 0 11 -4 11 -10z"/>
<path d="M4370 2644 c0 -16 5 -36 11 -44 7 -11 8 -4 3 25 -8 50 -14 58 -14 19z"/>
<path d="M4330 2652 c0 -5 6 -17 14 -27 13 -18 14 -18 9 8 -5 24 -23 39 -23
19z"/>
<path d="M4441 2630 c0 -8 4 -24 9 -35 5 -13 9 -14 9 -5 0 8 -4 24 -9 35 -5
13 -9 14 -9 5z"/>
<path d="M2832 2556 c56 -56 89 -74 69 -38 -23 37 -51 63 -88 78 l-38 15 57
-55z"/>
<path d="M4310 2590 c-1 -8 -2 -18 -2 -21 8 -63 62 -239 74 -239 5 0 6 4 3 10
-6 10 -50 166 -65 230 -4 19 -9 28 -10 20z"/>
<path d="M4331 2573 c0 -5 4 -17 9 -28 8 -18 9 -17 9 8 1 15 -3 27 -9 27 -5 0
-10 -3 -9 -7z"/>
<path d="M4371 2534 c0 -11 3 -14 6 -6 3 7 2 16 -1 19 -3 4 -6 -2 -5 -13z"/>
<path d="M4131 2529 c-1 -9 6 -30 14 -45 19 -36 19 -10 0 31 -8 17 -14 23 -14
14z"/>
<path d="M4357 2489 c4 -13 8 -18 11 -10 2 7 -1 18 -6 23 -8 8 -9 4 -5 -13z"/>
<path d="M4420 2453 c0 -4 5 -15 10 -23 8 -13 10 -13 10 2 0 9 -4 20 -10 23
-5 3 -10 3 -10 -2z"/>
<path d="M4406 2420 c3 -14 11 -32 16 -40 6 -10 7 -7 2 10 -3 14 -11 32 -16
40 -6 10 -7 7 -2 -10z"/>
<path d="M1775 2390 c3 -5 8 -10 11 -10 2 0 4 5 4 10 0 6 -5 10 -11 10 -5 0
-7 -4 -4 -10z"/>
<path d="M764 2320 c0 -13 4 -16 10 -10 7 7 7 13 0 20 -6 6 -10 3 -10 -10z"/>
<path d="M1761 2304 c0 -11 3 -14 6 -6 3 7 2 16 -1 19 -3 4 -6 -2 -5 -13z"/>
<path d="M4384 2304 c5 -10 11 -27 13 -36 3 -10 9 -18 14 -18 11 0 -10 58 -24
67 -7 4 -8 0 -3 -13z"/>
<path d="M1870 2256 c0 -2 7 -6 15 -10 8 -3 15 -1 15 4 0 6 -7 10 -15 10 -8 0
-15 -2 -15 -4z"/>
<path d="M4410 2236 c0 -2 11 -28 25 -57 25 -54 25 -33 -1 29 -11 27 -24 42
-24 28z"/>
<path d="M730 2209 c0 -5 5 -7 10 -4 6 3 10 8 10 11 0 2 -4 4 -10 4 -5 0 -10
-5 -10 -11z"/>
<path d="M1813 2213 c4 -3 1 -13 -6 -22 -11 -14 -10 -14 5 -2 16 12 16 31 1
31 -4 0 -3 -3 0 -7z"/>
<path d="M1910 2195 c7 -9 15 -13 17 -11 7 7 -7 26 -19 26 -6 0 -6 -6 2 -15z"/>
<path d="M4560 2201 c0 -6 4 -13 10 -16 6 -3 7 1 4 9 -7 18 -14 21 -14 7z"/>
<path d="M4541 2199 c-3 -20 23 -69 36 -69 9 0 13 -6 9 -15 -3 -8 -1 -15 5
-15 6 0 9 -7 5 -15 -5 -13 48 -105 60 -105 8 0 -24 56 -40 69 -9 8 -16 18 -16
23 0 6 7 5 15 -2 8 -7 15 -9 15 -6 0 13 -52 96 -59 96 -5 0 -13 10 -19 23 -6
12 -11 19 -11 16z"/>
<path d="M1870 2174 c0 -14 3 -14 15 -4 8 7 15 14 15 16 0 2 -7 4 -15 4 -8 0
-15 -7 -15 -16z"/>
<path d="M4471 2170 c14 -31 19 -36 19 -24 0 6 -7 19 -16 30 -14 18 -14 18 -3
-6z"/>
<path d="M4500 2171 c0 -6 4 -13 10 -16 6 -3 7 1 4 9 -7 18 -14 21 -14 7z"/>
<path d="M1957 2163 c-10 -9 -9 -33 1 -33 4 0 8 9 8 20 0 23 0 22 -9 13z"/>
<path d="M1896 2138 c7 -11 34 -10 34 1 0 6 -9 9 -19 8 -11 0 -17 -5 -15 -9z"/>
<path d="M4440 2021 c0 -14 69 -65 77 -57 3 3 4 7 2 9 -2 2 -21 15 -41 30 -21
16 -38 24 -38 18z"/>
<path d="M1080 1959 c0 -5 5 -7 10 -4 6 3 10 8 10 11 0 2 -4 4 -10 4 -5 0 -10
-5 -10 -11z"/>
<path d="M1040 1914 c0 -14 4 -23 9 -20 5 3 7 15 4 26 -7 28 -13 25 -13 -6z"/>
<path d="M1087 1925 c3 -8 9 -12 14 -9 12 7 11 11 -5 17 -10 4 -13 1 -9 -8z"/>
<path d="M4660 1931 c0 -6 4 -13 10 -16 6 -3 7 1 4 9 -7 18 -14 21 -14 7z"/>
<path d="M2738 1913 c7 -3 16 -2 19 1 4 3 -2 6 -13 5 -11 0 -14 -3 -6 -6z"/>
<path d="M980 1900 c0 -6 -4 -9 -9 -6 -4 3 -6 -6 -3 -20 5 -28 5 -28 21 3 7
14 8 24 1 28 -5 3 -10 1 -10 -5z"/>
<path d="M555 1830 c3 -5 11 -10 16 -10 6 0 7 5 4 10 -3 6 -11 10 -16 10 -6 0
-7 -4 -4 -10z"/>
<path d="M785 1770 c3 -5 8 -10 11 -10 2 0 4 5 4 10 0 6 -5 10 -11 10 -5 0 -7
-4 -4 -10z"/>
<path d="M746 1757 c3 -10 9 -15 12 -12 3 3 0 11 -7 18 -10 9 -11 8 -5 -6z"/>
<path d="M390 1729 c0 -5 5 -7 10 -4 6 3 10 8 10 11 0 2 -4 4 -10 4 -5 0 -10
-5 -10 -11z"/>
<path d="M365 1710 c-3 -5 -1 -10 4 -10 6 0 11 5 11 10 0 6 -2 10 -4 10 -3 0
-8 -4 -11 -10z"/>
<path d="M1956 1627 c-27 -28 -43 -44 -36 -34 10 14 10 17 -4 17 -9 0 -16 4
-16 10 0 5 6 7 13 4 8 -3 20 2 27 11 8 9 8 15 2 15 -6 0 -14 -5 -17 -10 -4 -6
-10 -8 -15 -5 -5 3 -24 -8 -42 -23 -48 -42 -150 -102 -251 -147 -64 -29 -83
-41 -72 -48 21 -11 9 -27 -19 -27 -34 0 -69 -31 -56 -50 7 -11 10 -11 10 -2 0
7 5 10 10 7 6 -3 15 -3 22 1 8 5 6 10 -7 14 -17 6 -16 8 7 12 15 3 25 1 22 -3
-7 -12 -6 -12 52 10 156 60 273 129 355 211 39 39 77 91 67 90 -2 0 -25 -24
-52 -53z m-90 -82 c-16 -14 -32 -25 -35 -25 -8 1 48 50 57 50 4 0 -6 -11 -22
-25z m-66 -9 c0 -2 -7 -7 -16 -10 -8 -3 -12 -2 -9 4 6 10 25 14 25 6z m20 -20
c0 -6 -103 -67 -107 -63 -2 3 20 19 49 36 55 32 58 33 58 27z m-100 -26 c-8
-5 -19 -10 -25 -10 -5 0 -3 5 5 10 8 5 20 10 25 10 6 0 3 -5 -5 -10z m-40 -15
c0 -2 -21 -13 -46 -24 -41 -18 -53 -41 -21 -41 7 0 6 4 -3 11 -13 9 -13 10 2
6 9 -3 19 -1 22 6 2 7 5 5 5 -4 1 -24 -26 -31 -56 -15 l-26 13 54 26 c55 26
69 30 69 22z m-5 -45 c-3 -5 -11 -10 -16 -10 -6 0 -7 5 -4 10 3 6 11 10 16 10
6 0 7 -4 4 -10z"/>
<path d="M4885 1670 c3 -5 8 -10 11 -10 2 0 4 5 4 10 0 6 -5 10 -11 10 -5 0
-7 -4 -4 -10z"/>
<path d="M870 1623 c0 -9 3 -13 7 -10 3 4 12 -1 19 -11 11 -14 13 -14 14 -2 0
8 -9 21 -20 28 -17 10 -20 10 -20 -5z"/>
<path d="M4920 1593 c0 -4 5 -15 10 -23 8 -13 10 -13 10 2 0 9 -4 20 -10 23
-5 3 -10 3 -10 -2z"/>
<path d="M4951 1540 c0 -8 4 -24 9 -35 5 -13 9 -14 9 -5 0 8 -4 24 -9 35 -5
13 -9 14 -9 5z"/>
<path d="M2153 1493 c9 -2 23 -2 30 0 6 3 -1 5 -18 5 -16 0 -22 -2 -12 -5z"/>
<path d="M1020 1461 c0 -5 7 -12 16 -15 14 -5 15 -4 4 9 -14 17 -20 19 -20 6z"/>
<path d="M295 1430 c-3 -5 -1 -10 4 -10 6 0 11 5 11 10 0 6 -2 10 -4 10 -3 0
-8 -4 -11 -10z"/>
<path d="M1095 1430 c-3 -5 -1 -10 4 -10 6 0 11 5 11 10 0 6 -2 10 -4 10 -3 0
-8 -4 -11 -10z"/>
<path d="M590 1420 c0 -13 28 -25 38 -16 3 4 0 11 -8 16 -20 13 -30 12 -30 0z"/>
<path d="M1013 1408 c-10 -24 -7 -48 6 -48 4 0 8 16 9 35 2 41 -1 43 -15 13z"/>
<path d="M310 1384 c0 -9 5 -14 12 -12 18 6 21 28 4 28 -9 0 -16 -7 -16 -16z"/>
<path d="M592 1377 c-6 -7 -7 -18 -3 -26 6 -9 11 -10 15 -2 4 6 2 11 -5 11 -8
0 -8 4 1 15 7 8 10 15 7 15 -2 0 -9 -6 -15 -13z"/>
<path d="M535 1350 c-3 -5 3 -10 14 -10 12 0 21 5 21 10 0 6 -6 10 -14 10 -8
0 -18 -4 -21 -10z"/>
<path d="M505 1340 c3 -5 8 -10 11 -10 2 0 4 5 4 10 0 6 -5 10 -11 10 -5 0 -7
-4 -4 -10z"/>
<path d="M1415 1342 c7 -7 -22 -31 -51 -42 -15 -6 -24 -13 -21 -16 3 -3 23 4
46 15 22 12 47 21 55 21 9 0 13 6 10 14 -3 8 -14 14 -24 13 -11 -1 -17 -3 -15
-5z"/>
<path d="M680 1330 c8 -5 20 -10 25 -10 6 0 3 5 -5 10 -8 5 -19 10 -25 10 -5
0 -3 -5 5 -10z"/>
<path d="M1345 1325 c-16 -8 -23 -14 -14 -15 8 0 24 7 35 15 23 18 18 18 -21
0z"/>
<path d="M770 1316 c0 -9 5 -16 10 -16 6 0 10 4 10 9 0 6 -4 13 -10 16 -5 3
-10 -1 -10 -9z"/>
<path d="M478 1303 c19 -7 14 -23 -5 -17 -14 5 -15 4 -4 -4 15 -11 41 -5 41 8
0 8 -26 21 -38 19 -4 0 -1 -3 6 -6z"/>
<path d="M625 1290 c-4 -6 -3 -16 3 -22 6 -6 12 -6 17 2 4 6 3 16 -3 22 -6 6
-12 6 -17 -2z"/>
<path d="M1590 1291 c0 -6 4 -13 10 -16 6 -3 7 1 4 9 -7 18 -14 21 -14 7z"/>
<path d="M1551 1274 c0 -11 3 -14 6 -6 3 7 2 16 -1 19 -3 4 -6 -2 -5 -13z"/>
<path d="M821 1266 c-16 -19 -11 -29 8 -17 7 5 12 14 9 21 -3 9 -8 7 -17 -4z"/>
<path d="M870 1259 c0 -5 5 -7 10 -4 6 3 10 8 10 11 0 2 -4 4 -10 4 -5 0 -10
-5 -10 -11z"/>
<path d="M2445 1160 c4 -6 11 -8 16 -5 14 9 11 15 -7 15 -8 0 -12 -5 -9 -10z"/>
<path d="M2575 1100 c-4 -6 3 -10 14 -10 11 0 23 -4 26 -10 3 -5 11 -10 16
-10 14 0 -11 24 -33 33 -10 3 -20 2 -23 -3z"/>
<path d="M1601 1068 c-1 -10 6 -18 14 -18 8 0 15 8 15 18 0 13 -2 14 -9 3 -7
-11 -9 -11 -14 0 -4 10 -6 9 -6 -3z"/>
<path d="M120 1057 c0 -8 7 -17 15 -21 8 -3 15 -2 15 3 0 5 -7 14 -15 21 -12
10 -15 10 -15 -3z"/>
<path d="M200 1050 c0 -5 5 -10 11 -10 5 0 7 5 4 10 -3 6 -8 10 -11 10 -2 0
-4 -4 -4 -10z"/>
<path d="M2796 1026 c3 -9 11 -16 16 -16 13 0 5 23 -10 28 -7 2 -10 -2 -6 -12z"/>
<path d="M2740 1000 c6 -11 12 -20 14 -20 2 0 2 9 -1 20 -3 11 -9 20 -15 20
-5 0 -4 -9 2 -20z"/>
<path d="M1902 930 c0 -14 2 -19 5 -12 2 6 2 18 0 25 -3 6 -5 1 -5 -13z"/>
<path d="M1921 874 c0 -12 6 -25 15 -28 10 -4 13 -2 8 6 -5 8 -2 9 9 5 10 -4
17 -2 17 4 0 6 -9 9 -19 6 -13 -3 -21 1 -24 12 -3 11 -5 10 -6 -5z"/>
<path d="M2090 722 c0 -15 4 -20 16 -15 9 3 12 9 7 12 -4 3 -11 10 -15 15 -5
5 -8 0 -8 -12z"/>
<path d="M1912 615 c0 -16 2 -22 5 -12 2 9 2 23 0 30 -3 6 -5 -1 -5 -18z"/>
<path d="M2000 625 c0 -7 7 -12 15 -12 8 0 15 5 15 11 0 7 3 7 8 -1 5 -8 12
-8 25 2 16 11 13 13 -23 12 -23 0 -40 -6 -40 -12z"/>
<path d="M1960 618 c0 -4 7 -8 15 -8 8 0 15 4 15 8 0 5 -7 9 -15 9 -8 0 -15
-4 -15 -9z"/>
<path d="M2080 540 c0 -6 7 -10 15 -10 8 0 15 2 15 4 0 2 -7 6 -15 10 -8 3
-15 1 -15 -4z"/>
<path d="M1510 521 c0 -6 4 -13 10 -16 6 -3 7 1 4 9 -7 18 -14 21 -14 7z"/>
<path d="M2044 521 c4 -5 0 -12 -6 -14 -8 -3 -6 -6 5 -6 9 -1 17 6 17 14 0 8
-5 15 -11 15 -5 0 -8 -4 -5 -9z"/>
<path d="M2105 470 c3 -5 8 -10 11 -10 2 0 4 5 4 10 0 6 -5 10 -11 10 -5 0 -7
-4 -4 -10z"/>
<path d="M2220 379 c0 -5 7 -9 15 -9 8 0 12 -6 10 -13 -3 -6 3 -17 13 -23 16
-10 18 -8 20 17 1 16 -1 29 -5 28 -5 -1 -10 0 -13 1 -19 7 -40 7 -40 -1z"/>
<path d="M2180 364 c0 -8 5 -12 10 -9 6 3 10 2 10 -4 0 -6 7 -8 15 -5 12 5 12
8 0 20 -18 19 -35 18 -35 -2z"/>
<path d="M2290 355 c0 -18 5 -25 20 -25 11 0 20 -4 20 -10 0 -5 5 -10 11 -10
5 0 7 5 3 12 -5 8 -2 9 9 5 10 -3 17 -2 17 4 0 6 5 7 12 3 7 -4 8 -3 4 4 -11
19 3 14 27 -8 12 -11 27 -18 34 -16 7 3 14 2 17 -3 3 -4 29 -5 58 -2 29 3 66
5 81 3 23 -3 26 -6 16 -18 -9 -11 -8 -14 7 -15 18 -1 24 -2 49 -8 6 -2 29 -2
53 -1 32 1 42 -2 42 -14 0 -9 -5 -16 -11 -16 -5 0 -8 4 -4 10 3 5 -7 8 -23 7
-19 -1 -28 -7 -25 -14 3 -7 9 -10 14 -8 5 3 23 -1 40 -10 18 -10 28 -12 24 -5
-4 7 -1 16 6 21 11 8 10 13 -8 28 -12 10 -21 20 -19 22 2 2 -3 11 -12 18 -14
13 -15 12 -10 -7 8 -28 -12 -29 -35 -2 -9 11 -24 20 -32 20 -23 0 -18 -17 7
-23 31 -9 19 -16 -15 -10 -22 4 -27 10 -25 31 2 14 -3 27 -11 30 -10 3 -11 0
-5 -9 6 -12 5 -12 -8 -1 -16 13 -44 12 -66 -2 -19 -11 -30 3 -12 15 12 9 11 9
-5 4 -11 -3 -24 -7 -30 -8 -5 -1 -13 -6 -17 -12 -5 -6 -8 -5 -8 4 0 7 -6 11
-14 8 -8 -3 -16 -1 -18 4 -2 5 -29 11 -61 13 -32 2 -61 6 -64 10 -15 15 -33 4
-33 -19z m52 -4 c3 8 9 9 18 4 11 -7 10 -10 -6 -15 -20 -7 -54 8 -54 24 0 5 9
1 19 -8 14 -13 20 -14 23 -5z m98 -11 c0 -5 -7 -7 -15 -4 -8 4 -15 8 -15 10 0
2 7 4 15 4 8 0 15 -4 15 -10z"/>
<path d="M2666 341 c-3 -5 3 -11 13 -14 14 -3 18 -1 14 9 -6 16 -19 18 -27 5z"/>
<path d="M2200 326 c0 -2 7 -6 15 -10 8 -3 15 -1 15 4 0 6 -7 10 -15 10 -8 0
-15 -2 -15 -4z"/>
<path d="M2400 311 c0 -7 -5 -9 -12 -5 -7 5 -8 3 -3 -5 5 -9 10 -10 18 -2 6 6
8 14 4 18 -4 3 -7 1 -7 -6z"/>
<path d="M1949 93 c-1 -5 -1 -12 0 -17 4 -19 -12 -46 -27 -46 -27 0 0 -18 32
-22 19 -2 30 2 33 12 4 13 3 13 -7 0 -10 -13 -11 -13 -6 2 3 10 1 20 -4 23 -4
3 -7 16 -5 30 2 22 -13 38 -16 18z"/>
<path d="M2356 65 c8 -19 9 -19 24 0 10 13 9 15 -8 15 -15 0 -20 -5 -16 -15z"/>
<path d="M1988 65 c-7 -8 14 -55 25 -55 9 0 -1 40 -12 53 -4 4 -10 5 -13 2z"/>
<path d="M2080 50 c0 -5 5 -10 10 -10 6 0 10 5 10 10 0 6 -4 10 -10 10 -5 0
-10 -4 -10 -10z"/>
<path d="M1730 40 c0 -5 6 -10 13 -10 7 -1 4 -7 -7 -15 -17 -13 -9 -14 69 -12
64 1 90 6 93 16 3 10 -2 11 -19 6 -21 -7 -22 -6 -10 9 13 15 12 16 -15 5 -47
-18 -81 -20 -88 -4 -6 17 -36 21 -36 5z"/>
<path d="M2060 29 c0 -7 25 -20 48 -25 6 -1 12 1 12 6 0 14 33 21 41 9 4 -7
15 -9 24 -5 10 3 15 9 12 12 -8 9 -137 11 -137 3z"/>
<path d="M2211 33 c-1 -18 19 -27 32 -13 9 10 8 12 -5 7 -9 -3 -19 -1 -22 6
-3 9 -5 9 -5 0z"/>
</g>
</svg>
