<?xml version="1.0" standalone="no"?>
<!DOCTYPE svg PUBLIC "-//W3C//DTD SVG 20010904//EN"
 "http://www.w3.org/TR/2001/REC-SVG-20010904/DTD/svg10.dtd">
<svg version="1.0" xmlns="http://www.w3.org/2000/svg"
 width="512.000000pt" height="512.000000pt" viewBox="0 0 512.000000 512.000000"
 preserveAspectRatio="xMidYMid meet">
<metadata>
Created by potrace 1.14, written by Peter Selinger 2001-2017
</metadata>
<g transform="translate(0.000000,512.000000) scale(0.100000,-0.100000)"
fill="#000000" stroke="none">
<path d="M441 5084 c-172 -96 -312 -236 -406 -407 l-35 -64 0 -2053 0 -2054
35 -63 c94 -172 236 -314 408 -408 l64 -35 132 0 133 0 -5 38 c-3 20 -10 66
-16 102 -6 36 -11 94 -11 130 0 36 -4 92 -9 125 -5 33 -12 99 -16 147 -3 48
-12 121 -20 163 -8 42 -13 80 -10 84 2 4 -1 52 -6 107 -12 111 -17 122 -118
261 -74 101 -132 226 -186 398 -20 66 -48 141 -61 167 -36 70 -31 102 30 222
30 58 64 132 76 163 51 139 144 324 226 448 66 101 155 199 244 272 19 15 59
52 88 80 50 49 52 53 26 47 -21 -4 -39 1 -64 18 -49 33 -53 82 -11 126 41 44
99 45 142 2 l30 -29 59 62 c54 58 57 62 37 69 -15 5 -12 6 10 3 24 -3 40 2 60
19 67 56 142 88 246 105 57 10 118 14 138 11 28 -5 42 -2 60 12 70 55 126 71
304 88 66 6 147 19 180 30 68 23 182 95 247 156 43 40 44 42 66 167 l24 126
-41 39 -41 39 0 80 c0 127 38 233 84 233 25 0 51 -23 43 -37 -3 -5 6 -10 19
-11 14 -1 27 5 30 12 4 11 21 13 80 9 44 -4 74 -2 74 4 0 5 -15 7 -32 6 -18
-2 -60 0 -92 4 -56 7 -59 9 -43 25 9 9 17 21 17 27 0 6 4 11 10 11 5 0 7 6 4
13 -5 15 91 123 107 119 6 -1 16 1 23 6 6 5 19 8 28 7 10 -2 17 0 17 3 -3 21
3 23 16 6 13 -16 14 -16 9 -1 -3 9 -1 17 5 17 6 0 11 7 11 15 0 26 65 83 109
96 58 17 151 -1 208 -42 23 -16 47 -29 55 -29 7 0 21 -7 31 -14 18 -14 18 -15
0 -25 -17 -10 -17 -10 0 -11 9 0 19 1 20 3 2 1 12 -5 22 -13 17 -14 18 -13 12
3 -6 17 -6 17 18 0 13 -10 22 -24 20 -31 -3 -8 3 -10 19 -6 19 4 28 0 42 -20
9 -15 14 -29 11 -33 -4 -3 -11 7 -17 22 -13 34 -23 27 -14 -9 4 -16 13 -26 24
-26 12 0 17 -7 15 -25 -2 -16 2 -25 11 -25 17 0 18 -12 2 -29 -11 -10 -9 -11
6 -5 17 7 17 5 2 -24 -10 -19 -12 -33 -6 -37 15 -9 12 -22 -6 -29 -10 -4 -13
-2 -9 7 4 6 0 4 -8 -5 -19 -24 -31 -23 -24 2 6 22 0 25 -22 11 -9 -6 -10 -11
-2 -15 6 -4 8 -12 5 -18 -4 -6 -2 -8 4 -4 6 3 13 2 17 -4 3 -5 2 -10 -3 -10
-18 0 -1 -36 23 -51 23 -14 23 -14 -20 -14 -24 0 -41 4 -37 9 3 6 -3 6 -14 1
-10 -4 -30 -9 -44 -10 -14 -1 -32 -5 -40 -9 -17 -7 -62 -4 -70 4 -3 3 -18 14
-33 24 -21 13 -27 23 -24 38 4 14 2 18 -9 14 -7 -3 -18 3 -24 14 -12 23 -116
85 -156 94 -16 4 -49 0 -74 -8 -30 -9 -37 -14 -22 -15 13 -1 21 -5 17 -10 -3
-6 10 -13 30 -17 19 -3 38 -11 41 -16 10 -15 -77 2 -94 18 -23 24 -50 35 -57
24 -3 -6 1 -12 9 -15 9 -3 23 -7 31 -10 20 -6 19 -31 -2 -39 -15 -6 -27 4 -36
28 -2 6 -34 11 -73 13 -75 3 -76 -2 -1 -12 41 -5 47 -9 42 -25 -4 -13 1 -22
15 -30 15 -8 20 -18 17 -31 -6 -21 8 -27 16 -6 4 7 6 6 6 -5 1 -9 -2 -24 -6
-34 -6 -16 -7 -16 -15 2 -6 13 -7 6 -3 -21 6 -50 26 -66 128 -99 97 -32 117
-32 147 -1 12 13 26 22 31 19 4 -2 20 16 34 41 24 40 51 56 67 39 3 -3 2 -22
-3 -42 -5 -20 -11 -68 -14 -107 -3 -38 -10 -87 -16 -108 -8 -31 -14 -38 -32
-35 -13 2 -21 9 -19 17 3 12 0 12 -12 2 -9 -7 -13 -18 -9 -25 3 -6 -5 -1 -18
11 -13 12 -36 25 -51 28 -34 9 -38 45 -8 75 29 29 25 38 -5 10 -34 -32 -44
-89 -19 -107 17 -13 15 -14 -24 -9 -25 3 -40 1 -37 -5 4 -5 1 -9 -4 -9 -6 0
-11 4 -11 10 0 5 -12 9 -27 9 -36 -2 -83 -19 -83 -30 0 -5 -11 -14 -25 -19
-14 -5 -25 -14 -25 -20 0 -5 -5 -10 -11 -10 -5 0 -8 4 -4 9 6 10 -34 37 -48
33 -5 -1 -6 2 -3 7 3 5 -2 15 -11 22 -14 12 -15 11 -10 -6 4 -11 2 -27 -3 -35
-8 -13 -10 -12 -10 3 0 10 -4 15 -10 12 -11 -7 -25 39 -15 54 3 7 0 8 -9 5
-12 -4 -16 0 -16 16 0 11 -4 18 -10 15 -15 -9 -12 4 5 21 10 10 12 21 5 38
-11 30 -1 167 15 209 4 9 4 17 1 17 -9 0 -25 -46 -42 -120 -56 -250 -74 -483
-41 -534 10 -14 17 -33 17 -43 1 -22 23 -53 38 -53 6 0 9 -7 6 -15 -4 -8 -1
-15 4 -15 6 0 25 -30 42 -67 18 -38 37 -74 43 -81 15 -18 20 -75 6 -66 -8 4
-8 1 -2 -12 5 -11 9 -28 9 -39 -1 -11 3 -23 8 -26 5 -4 8 -20 8 -35 0 -16 5
-38 11 -49 6 -11 10 -23 9 -27 -1 -5 3 -8 9 -8 5 0 8 -4 5 -9 -3 -5 1 -12 10
-15 8 -3 12 -2 9 4 -3 6 -1 10 4 10 6 0 11 21 11 50 l0 50 39 0 c28 0 45 -7
64 -26 15 -15 24 -31 20 -37 -3 -6 -1 -7 5 -3 6 3 37 2 69 -4 32 -5 68 -12 81
-14 12 -2 25 -6 29 -9 3 -4 14 -2 23 3 20 11 46 -12 35 -30 -3 -5 -2 -10 4
-10 5 0 18 14 28 30 9 17 22 30 28 31 5 0 19 2 30 4 11 2 23 -1 27 -8 5 -8 8
-7 8 5 0 20 39 16 55 -5 6 -8 15 -12 22 -10 6 2 30 -13 52 -35 22 -21 49 -38
60 -37 11 1 18 -2 16 -6 -3 -4 1 -12 9 -18 11 -9 15 -9 18 0 4 11 -36 59 -48
59 -3 0 -30 19 -60 42 -35 26 -53 46 -49 55 3 8 8 26 11 39 4 14 16 27 30 30
27 7 87 -11 104 -31 7 -8 16 -13 20 -10 4 3 25 -2 46 -11 22 -9 53 -20 69 -24
17 -4 39 -11 50 -16 l20 -7 -20 22 c-11 13 -29 27 -40 32 -14 7 -2 8 35 5 43
-4 60 -11 78 -31 12 -14 22 -34 22 -43 0 -9 9 -28 20 -42 11 -14 20 -33 20
-42 0 -10 5 -18 10 -18 16 0 69 -63 70 -82 0 -9 15 -24 34 -33 28 -13 35 -24
41 -58 14 -79 15 -108 3 -101 -8 5 -9 2 -5 -9 11 -29 -18 -19 -30 11 -7 15
-11 20 -11 12 1 -8 -3 -25 -8 -36 -7 -17 -14 -20 -31 -13 -13 5 -23 13 -23 19
0 6 -4 9 -9 6 -5 -4 -35 19 -68 49 -39 37 -64 53 -75 49 -13 -4 -18 0 -18 13
0 14 -2 15 -9 4 -7 -11 -13 -10 -35 4 -14 10 -26 21 -26 25 0 10 -84 50 -105
50 -11 0 -12 -5 -5 -25 6 -17 6 -25 -1 -25 -6 0 -7 -4 -4 -10 8 -14 -1 -13
-25 3 -17 10 -22 9 -30 -3 -8 -13 -14 -13 -42 -1 -43 18 -101 22 -110 8 -3 -5
-20 -9 -37 -8 -53 3 -65 3 -93 -2 -16 -2 -28 0 -28 5 0 5 -4 7 -10 3 -15 -9 0
-35 22 -35 11 0 33 -13 49 -30 22 -22 28 -35 24 -53 -5 -17 -2 -26 9 -30 24
-9 20 -23 -22 -70 -65 -72 -69 -84 -13 -34 56 50 65 54 77 35 4 -7 -22 -38
-67 -80 -55 -52 -65 -64 -37 -48 20 11 39 27 42 35 7 20 24 19 28 -2 2 -12 10
-7 28 20 17 26 37 41 65 49 22 6 46 16 53 21 7 5 37 15 67 22 47 11 55 11 55
-1 0 -8 -7 -14 -16 -14 -9 0 -44 -16 -78 -35 -35 -19 -69 -35 -75 -35 -7 0
-20 -9 -29 -20 -10 -12 -39 -32 -67 -46 -27 -13 -41 -22 -30 -18 11 3 36 8 57
11 35 5 37 4 56 -41 22 -48 39 -63 28 -23 -11 36 -14 95 -5 108 9 16 46 22 54
9 3 -6 7 -33 9 -60 2 -28 6 -53 10 -57 10 -10 7 -53 -5 -53 -5 0 -7 -4 -4 -10
3 -6 -1 -7 -9 -4 -9 3 -16 1 -16 -5 0 -6 -7 -11 -16 -11 -10 0 -14 6 -11 14 4
10 1 13 -8 10 -8 -3 -11 -13 -8 -21 4 -11 2 -14 -5 -9 -7 4 -12 2 -12 -5 0 -9
-3 -10 -11 -2 -6 6 -19 8 -30 6 -15 -4 -17 -8 -8 -19 10 -12 8 -13 -6 -8 -12
5 -16 4 -11 -4 7 -12 -61 -52 -89 -52 -8 0 -15 -7 -15 -15 0 -8 -4 -15 -10
-15 -5 0 -10 6 -10 13 0 8 -2 9 -8 1 -4 -6 -17 -14 -29 -18 -13 -4 -23 -12
-23 -18 0 -5 -7 -7 -16 -4 -11 4 -15 2 -11 -8 4 -10 1 -13 -8 -10 -8 3 -30 -4
-50 -16 -24 -15 -35 -18 -35 -9 0 10 -3 10 -11 2 -9 -9 -8 -18 4 -36 12 -19
29 -27 69 -32 29 -4 56 -12 60 -18 6 -9 -36 -50 -54 -53 -5 -1 -13 -2 -18 -3
-17 -2 38 -81 56 -81 3 0 20 -15 37 -32 29 -32 31 -32 36 -12 5 18 10 20 29
13 12 -5 22 -14 22 -21 0 -10 -2 -10 -9 1 -5 8 -11 9 -15 3 -3 -6 3 -13 14
-17 11 -3 25 -15 30 -26 12 -21 4 -43 -11 -33 -21 13 -107 16 -129 4 -18 -10
-21 -18 -17 -46 5 -27 2 -34 -11 -35 -9 0 -33 -2 -52 -3 -19 -1 -46 -8 -60
-16 -54 -30 -55 -28 -52 83 6 224 7 210 -17 212 -19 2 -22 -1 -20 -22 0 -5
-10 -10 -22 -13 -12 -3 -24 -11 -25 -18 -1 -7 0 -8 3 -2 7 14 24 13 20 -2 -3
-17 -19 -33 -40 -41 -13 -5 -16 -13 -12 -27 5 -15 3 -18 -9 -14 -10 4 -16 1
-16 -7 0 -11 -3 -11 -10 1 -10 15 -12 11 -14 -25 -1 -15 -7 -20 -26 -18 -14 1
-19 -1 -12 -3 20 -9 14 -26 -8 -19 -11 3 -20 2 -20 -3 0 -8 -11 -14 -55 -27
-5 -2 -19 -6 -30 -10 -17 -6 -18 -5 -5 5 13 10 13 11 -1 7 -10 -3 -35 -11 -57
-18 -42 -12 -64 -43 -59 -83 1 -13 -6 -20 -23 -23 -24 -3 -24 -3 -5 11 19 14
18 15 -13 11 -41 -5 -71 -23 -128 -81 -24 -25 -48 -43 -53 -40 -5 3 -12 -5
-15 -19 -4 -14 -13 -25 -21 -25 -8 0 -15 -5 -15 -11 0 -5 -5 -7 -11 -3 -7 4
-10 1 -7 -7 3 -8 1 -23 -5 -34 -9 -18 -9 -19 8 -5 17 14 18 14 6 -7 -6 -13
-18 -24 -26 -24 -8 -1 -21 -2 -27 -3 -7 0 -14 -11 -16 -22 -2 -15 4 -23 20
-28 22 -7 22 -8 4 -15 -31 -12 -2 -23 60 -24 42 -1 54 -4 55 -16 2 -47 12 -67
28 -57 11 7 5 54 -9 72 -10 12 18 43 56 63 17 8 25 7 33 -3 8 -9 35 -14 82
-14 39 -1 89 -8 112 -16 23 -8 61 -20 83 -26 45 -11 63 -42 41 -69 -9 -12 -9
-13 1 -7 6 4 12 2 12 -3 0 -6 6 -11 14 -11 7 0 16 -9 19 -19 3 -14 11 -18 26
-14 11 3 18 9 15 14 -3 5 2 9 10 9 19 0 56 47 56 71 0 13 7 19 23 20 12 0 16
3 10 6 -18 7 -16 43 2 43 22 0 18 18 -5 22 -18 3 -19 5 -6 31 8 15 12 27 8 27
-4 0 -8 22 -9 49 -1 43 1 49 15 45 10 -4 13 -3 7 3 -17 13 -17 63 0 69 8 4 15
12 15 19 0 7 6 17 13 23 15 13 137 22 137 11 0 -5 11 -11 25 -15 14 -3 22 -10
19 -15 -3 -5 2 -6 10 -3 10 4 16 1 16 -9 0 -9 -10 -19 -22 -23 -37 -11 -78
-44 -78 -62 1 -15 2 -15 14 1 13 17 14 16 13 -10 -2 -25 -40 -73 -59 -73 -4 0
-5 -7 -2 -14 7 -18 -26 -76 -42 -76 -7 0 -14 -6 -17 -14 -8 -20 38 -29 81 -17
20 6 30 6 27 0 -4 -5 -1 -9 4 -9 6 0 -3 -22 -19 -49 -35 -57 -37 -70 -10 -104
24 -30 25 -43 4 -51 -8 -3 -12 -2 -9 4 13 21 -5 9 -20 -13 -11 -18 -12 -31 -5
-57 7 -24 6 -37 -2 -45 -8 -7 -9 -5 -5 7 5 15 3 15 -30 2 -25 -11 -39 -12 -46
-5 -17 17 -27 13 -27 -9 0 -10 -8 -23 -17 -28 -18 -10 -27 -42 -12 -42 5 0 9
7 9 16 0 8 4 13 9 9 16 -9 4 -165 -14 -185 -12 -13 -13 -20 -5 -25 6 -4 9 -14
5 -24 -4 -12 -1 -11 15 5 25 24 39 79 40 146 0 55 13 93 33 101 15 6 15 -15 2
-150 -6 -61 6 -103 30 -103 6 0 10 -33 10 -80 0 -60 -3 -79 -12 -75 -7 2 -13
0 -13 -5 0 -6 7 -10 15 -10 8 0 15 -4 15 -9 0 -5 -8 -7 -19 -4 -20 5 -35 -11
-36 -37 0 -29 -260 -10 -430 32 -44 11 -118 29 -165 39 -47 11 -112 28 -145
38 -113 36 -204 61 -256 71 -60 12 -166 62 -191 92 -15 16 -18 17 -18 4 0 -19
60 -58 131 -86 28 -12 71 -34 95 -51 51 -35 56 -62 19 -98 -23 -22 -35 -48
-16 -37 10 6 31 -37 31 -64 0 -11 -14 -25 -37 -37 -34 -16 -38 -22 -41 -61 -2
-27 -9 -45 -18 -49 -8 -3 -26 -27 -40 -54 -24 -48 -26 -49 -69 -49 -25 0 -45
-4 -45 -10 0 -5 -12 -13 -26 -16 l-27 -7 23 -12 c19 -10 20 -13 6 -18 -9 -4
-16 -11 -16 -17 0 -7 467 -10 1472 -10 l1471 0 64 35 c172 94 314 236 408 408
l35 64 0 2053 0 2053 -35 64 c-94 172 -236 314 -408 408 l-64 35 -1339 0
-1339 0 -22 -49 c-17 -41 -27 -51 -55 -58 -18 -4 -187 -6 -376 -3 -326 5 -344
6 -358 24 -8 11 -14 35 -14 53 l0 33 -302 0 -303 0 -64 -36z m65 -149 c19 -46
18 -62 -6 -75 -17 -9 -20 -6 -30 30 -20 73 9 109 36 45z m927 -231 c175 -5
200 -8 222 -26 47 -37 24 -108 -41 -124 -15 -4 -132 -4 -262 -2 -213 5 -237 8
-261 25 -20 16 -26 29 -26 59 0 32 5 42 34 61 28 19 43 22 85 18 28 -3 140 -8
249 -11z m3382 -29 l189 0 15 -27 c15 -25 14 -29 -9 -54 -27 -28 -20 -28 -252
-11 -10 1 -18 5 -18 10 0 5 -6 7 -14 4 -7 -3 -19 0 -25 6 -8 8 -14 9 -19 1 -4
-6 -26 -18 -50 -27 -40 -16 -44 -16 -68 0 -29 19 -43 48 -36 75 5 21 50 38 77
30 11 -3 105 -6 210 -7z m-3291 -224 c20 -17 20 -79 1 -105 -13 -17 -29 -19
-227 -17 -179 2 -216 5 -230 18 -20 18 -23 60 -7 95 l10 24 219 -1 c163 -1
223 -5 234 -14z m2463 8 c8 -8 26 -8 66 1 78 16 297 9 320 -10 20 -17 21 -28
5 -80 -11 -34 -16 -39 -33 -33 -11 4 -68 6 -127 5 -77 -3 -119 1 -154 13 -42
14 -48 14 -64 0 -24 -22 -52 -18 -74 11 -12 17 -16 34 -12 52 4 15 7 33 8 40
2 15 50 16 65 1z m-83 -179 c17 -17 18 -25 10 -67 l-9 -48 -130 -3 c-180 -4
-176 -6 -174 71 1 34 5 66 7 71 3 5 63 6 141 2 116 -5 138 -9 155 -26z m185
11 c21 -16 23 -24 18 -60 -9 -73 -48 -93 -86 -45 -25 32 -27 71 -5 102 18 27
41 28 73 3z m-2652 -23 c25 -23 29 -57 12 -91 -16 -30 -28 -37 -70 -37 -45 0
-55 -9 -29 -27 15 -11 19 -22 16 -49 -7 -54 -34 -84 -77 -84 -23 0 -25 -4 -25
-37 1 -21 5 -44 9 -51 14 -21 1 -40 -33 -47 l-32 -7 22 -23 c18 -19 20 -27 11
-44 -7 -11 -23 -24 -36 -27 -23 -6 -23 -7 -8 -30 9 -15 12 -31 8 -41 -5 -10
-7 -22 -6 -26 1 -5 -8 -24 -20 -44 -21 -33 -24 -34 -63 -29 -22 4 -60 8 -84
11 -55 6 -88 37 -97 92 -5 34 -4 44 9 49 11 4 15 16 12 37 -4 38 9 67 29 67
19 0 19 8 0 26 -8 9 -15 22 -15 30 0 8 7 17 15 20 8 4 15 17 15 29 0 13 5 27
10 30 8 5 7 12 -2 22 -10 12 -9 17 4 24 15 8 15 12 3 36 -14 26 -8 54 15 68
13 8 1 35 -16 35 -33 0 -45 79 -18 118 15 21 20 22 216 22 193 0 203 -1 225
-22z m1548 -59 c37 -10 54 -23 55 -41 0 -4 -15 1 -32 12 -44 27 -72 25 -30 -1
37 -24 41 -33 10 -23 l-23 6 23 -24 c27 -29 27 -37 5 -54 -17 -12 -16 -13 5
-14 12 0 25 7 28 15 5 11 10 13 19 5 6 -5 15 -7 19 -3 4 4 15 8 24 8 10 0 16
7 16 17 -1 10 4 14 12 11 9 -3 14 1 14 12 0 10 -7 15 -17 13 -19 -3 -54 18
-67 40 -9 16 9 16 26 -1 7 -7 25 -18 41 -24 39 -18 35 -61 -7 -76 -10 -4 -16
-13 -13 -21 9 -22 -45 -66 -81 -66 -37 0 -101 24 -154 57 -39 24 -39 24 -16
86 9 24 30 39 27 20 -1 -5 -1 -15 0 -23 1 -12 4 -12 12 3 12 21 31 23 23 2 -7
-17 19 -30 42 -21 14 5 14 9 3 23 -10 12 -10 14 -1 9 6 -4 12 -3 12 2 0 12
-25 22 -56 22 -13 0 -24 5 -24 11 0 7 10 9 24 5 14 -3 27 -2 31 3 3 6 -14 12
-37 14 l-43 4 45 1 c25 1 63 -3 85 -9z m372 -175 c13 -4 20 -10 17 -16 -3 -5
-15 -6 -26 -2 -12 4 -24 1 -30 -7 -8 -11 -9 -10 -4 3 3 10 -1 18 -12 21 -11 3
-8 5 8 6 14 0 35 -2 47 -5z m-52 -72 c-7 -8 -45 20 -45 33 0 9 7 7 24 -8 14
-12 23 -23 21 -25z m69 8 c16 -32 11 -35 -29 -20 -22 9 -24 12 -13 30 17 27
24 25 42 -10z m196 -10 c8 -5 12 -11 9 -14 -3 -3 -14 1 -25 9 -21 16 -8 20 16
5z m-246 -31 c26 -17 46 -32 46 -34 0 -12 -68 22 -83 41 -23 31 -17 30 37 -7z
m-14 -46 c16 -19 -6 -16 -41 4 -31 19 -40 36 -12 26 13 -5 15 -2 10 13 -5 14
-2 13 13 -6 11 -14 25 -31 30 -37z m-11 -37 c19 -14 35 -35 36 -46 1 -11 -1
-18 -3 -15 -9 9 -43 -56 -36 -67 4 -7 2 -8 -4 -4 -13 8 -31 -23 -25 -44 3 -8
-5 0 -17 18 -18 26 -20 35 -10 47 9 10 10 29 6 58 -16 91 -15 97 3 88 9 -5 31
-21 50 -35z m-3182 -2 c-3 -3 -12 -4 -19 -1 -8 3 -5 6 6 6 11 1 17 -2 13 -5z
m3296 -1 c-7 -2 -19 -2 -25 0 -7 3 -2 5 12 5 14 0 19 -2 13 -5z m-3323 -23 c0
-5 -4 -10 -10 -10 -5 0 -10 5 -10 10 0 6 5 10 10 10 6 0 10 -4 10 -10z m2979
-19 c9 -16 7 -18 -13 -18 -18 0 -22 4 -19 18 3 11 9 19 14 19 4 0 13 -8 18
-19z m-439 -5 c0 -3 -4 -8 -10 -11 -5 -3 -10 -1 -10 4 0 6 5 11 10 11 6 0 10
-2 10 -4z m470 -52 c0 -8 -4 -12 -10 -9 -5 3 -10 10 -10 16 0 5 5 9 10 9 6 0
10 -7 10 -16z m-33 -20 c24 -9 43 -20 43 -25 0 -5 -6 -6 -14 -3 -8 3 -17 1
-21 -5 -3 -6 -11 -11 -16 -11 -6 0 -7 5 -4 10 4 6 -8 10 -27 10 -19 0 -43 7
-54 15 -10 8 -31 15 -46 15 -15 0 -30 5 -33 10 -10 16 122 3 172 -16z m-171
-17 c4 -4 15 -7 24 -7 10 0 34 -11 54 -25 42 -29 54 -32 36 -9 -12 13 -10 14
13 3 15 -7 24 -16 20 -22 -3 -5 2 -7 13 -3 13 4 23 -1 31 -14 19 -29 0 -33
-59 -11 -60 21 -86 30 -75 24 4 -3 7 -15 7 -28 0 -26 15 -41 25 -25 3 5 11 10
18 10 6 0 3 -6 -7 -13 -32 -24 -9 -48 45 -48 9 0 16 -7 16 -14 0 -8 -3 -12 -7
-10 -8 5 -43 -35 -36 -42 5 -6 -18 -33 -29 -33 -3 0 -1 9 5 20 6 11 7 21 3 21
-48 7 -65 6 -77 -6 -12 -13 -15 -12 -20 1 -3 9 -4 19 -2 23 3 4 -4 7 -16 7
-12 -1 -23 6 -25 14 -4 13 -3 13 6 0 5 -8 13 -12 16 -8 4 4 -4 14 -18 23 -16
10 -23 22 -20 34 3 11 -1 30 -8 42 -7 13 -12 30 -10 38 1 7 -2 10 -8 6 -7 -4
-11 4 -11 19 0 17 6 26 16 26 8 0 13 3 11 8 -6 9 59 9 69 -1z m1264 -85 c0
-37 -15 -60 -24 -37 -8 21 -8 60 0 68 12 12 24 -4 24 -31z m-953 -10 c1 -12
-2 -22 -7 -22 -7 0 -7 -6 -1 -18 11 -21 -3 -42 -29 -42 -12 0 -15 9 -12 40 3
27 9 40 19 40 10 0 13 6 9 16 -4 9 -1 14 6 12 6 -2 13 -14 15 -26z m-170 -53
c2 -16 -1 -19 -9 -11 -5 5 -7 15 -4 21 10 15 12 14 13 -10z m39 -76 c-3 -8 -6
-17 -6 -20 0 -3 -7 0 -15 7 -22 19 -19 39 6 33 12 -4 18 -11 15 -20z m-3028
-440 c2 -20 -1 -24 -9 -16 -7 7 -9 19 -6 27 9 23 12 20 15 -11z m3132 -63 c0
-5 -5 -10 -11 -10 -5 0 -7 5 -4 10 3 6 8 10 11 10 2 0 4 -4 4 -10z m686 -21
c3 -6 20 -20 38 -31 27 -17 28 -19 6 -13 l-25 7 24 -26 c14 -14 21 -26 17 -26
-4 0 -2 -9 4 -20 10 -19 10 -20 -9 -8 -12 7 -21 17 -21 21 0 5 -18 24 -39 44
-23 20 -37 41 -34 49 6 17 29 18 39 3z m-496 -229 c0 -5 -2 -10 -4 -10 -3 0
-8 5 -11 10 -3 6 -1 10 4 10 6 0 11 -4 11 -10z m-26 -53 c19 -36 19 -39 3 -48
-10 -6 -15 -14 -12 -19 3 -4 -2 -10 -10 -14 -19 -7 -23 2 -31 69 -6 52 -5 57
12 53 10 -1 27 -20 38 -41z m136 -7 c0 -12 -48 -6 -62 8 -5 5 -7 15 -4 21 8
12 66 -13 66 -29z m-103 15 c0 -8 -4 -12 -9 -9 -5 3 -6 10 -3 15 9 13 12 11
12 -6z m183 -55 c-16 -13 -37 -20 -67 -20 -43 0 -72 -13 -126 -57 -16 -13 -36
-23 -45 -23 -11 0 -13 3 -6 8 7 4 13 16 15 26 3 12 14 20 31 22 16 1 41 12 57
23 19 14 45 21 73 21 23 0 50 5 58 10 27 17 34 11 10 -10z m536 -36 c-4 -20
-10 -34 -13 -30 -3 3 -2 21 1 42 4 20 10 34 13 30 3 -3 2 -21 -1 -42z m-516
-29 c0 -8 -2 -15 -4 -15 -2 0 -6 7 -10 15 -3 8 -1 15 4 15 6 0 10 -7 10 -15z
m-40 -63 c0 -4 -10 -13 -22 -21 -23 -14 -23 -14 -4 8 20 22 26 25 26 13z m-50
-26 c0 -2 -7 -6 -15 -10 -8 -3 -15 -1 -15 4 0 6 7 10 15 10 8 0 15 -2 15 -4z
m17 -31 c-4 -8 -2 -17 2 -20 11 -6 2 -45 -10 -45 -5 0 -9 -8 -9 -17 0 -33 -17
2 -23 45 -5 40 -4 42 15 36 14 -4 18 -2 14 5 -4 6 -2 11 4 11 7 0 10 -7 7 -15z
m33 -17 c0 -19 -2 -20 -10 -8 -13 19 -13 30 0 30 6 0 10 -10 10 -22z m-3 -50
c-3 -8 -6 -5 -6 6 -1 11 2 17 5 13 3 -3 4 -12 1 -19z m427 -19 c-2 -4 2 -10 8
-12 9 -4 8 -6 -2 -6 -8 0 -26 6 -38 13 -24 13 -24 13 7 13 16 0 28 -4 25 -8z
m-17 -31 c7 -6 13 -7 13 -2 0 4 5 3 12 -4 7 -7 20 -12 30 -12 17 0 23 -12 18
-35 -1 -5 -4 -23 -6 -40 -4 -23 -2 -26 5 -15 14 19 14 9 1 -26 -7 -18 -7 -30
1 -40 6 -7 8 -19 4 -26 -4 -7 1 -4 10 7 9 11 21 32 27 48 14 38 32 35 24 -5
-12 -60 -36 -80 -132 -110 -49 -15 -96 -26 -104 -25 -9 2 -4 7 12 11 24 7 26
12 21 37 -4 19 -1 29 7 29 7 0 10 -7 6 -16 -11 -29 5 -34 46 -13 33 17 39 24
35 45 -3 16 0 24 9 24 8 0 14 5 14 10 0 23 -32 1 -63 -42 -11 -15 -14 -15 -31
-3 -19 14 -19 15 -1 35 10 11 13 20 8 20 -6 0 -16 -7 -23 -15 -15 -18 -34 -20
-24 -3 5 8 2 9 -10 5 -9 -4 -15 -3 -11 2 3 6 1 30 -5 55 -7 32 -7 53 2 73 6
15 12 33 13 38 0 6 6 9 13 8 7 -2 12 1 12 7 0 11 46 -4 67 -22z m273 -104 c0
-8 -7 -17 -15 -20 -8 -4 -15 -11 -15 -16 0 -7 5 -6 14 1 10 9 16 8 26 -4 10
-12 8 -23 -10 -59 -11 -25 -26 -46 -31 -48 -7 -2 -7 -12 0 -30 7 -19 7 -29 0
-34 -6 -3 -8 -12 -5 -20 3 -8 -1 -14 -10 -14 -8 0 -19 -11 -24 -25 -5 -14 -11
-25 -14 -25 -2 0 -10 -2 -18 -5 -8 -3 -13 3 -14 20 -1 14 2 23 6 20 4 -3 11 7
15 22 3 15 14 33 23 41 13 10 14 15 4 19 -10 4 -10 8 -1 19 10 12 8 17 -6 28
-14 10 -15 15 -5 21 9 5 11 4 6 -3 -4 -7 -1 -12 8 -12 15 0 13 20 -4 45 -4 6
-10 18 -13 28 -5 13 -2 17 11 15 12 -2 18 5 20 25 2 15 7 25 12 22 5 -3 11 -1
15 5 8 14 25 3 25 -16z m-90 -93 c0 -4 -3 -11 -7 -15 -4 -4 -8 -19 -8 -34 -1
-43 -27 -112 -45 -122 -14 -8 -16 -5 -12 17 3 18 1 24 -7 19 -6 -4 -11 -2 -11
3 0 6 5 11 11 11 6 0 9 9 6 20 -3 10 -2 19 2 18 22 -2 31 5 31 26 0 14 4 27 9
30 5 3 7 15 4 26 -4 16 -2 19 11 14 9 -3 16 -9 16 -13z m250 -136 c0 -7 6 -18
14 -24 8 -7 13 -23 11 -37 -1 -14 4 -31 11 -39 11 -11 9 -16 -12 -29 -13 -9
-22 -21 -19 -25 2 -5 -6 -16 -20 -25 -15 -10 -25 -12 -25 -6 0 7 -8 9 -19 5
-16 -5 -18 -2 -14 17 6 22 5 22 -24 -4 -27 -26 -63 -38 -63 -20 1 10 30 48 30
38 0 -28 46 66 48 98 3 40 17 76 36 88 12 8 46 -19 46 -37z m-184 -73 c-18
-16 -18 -16 -6 6 6 13 14 21 18 18 3 -4 -2 -14 -12 -24z m84 8 c0 -5 -4 -10
-10 -10 -5 0 -10 5 -10 10 0 6 5 10 10 10 6 0 10 -4 10 -10z m-63 -32 c-3 -8
-6 -5 -6 6 -1 11 2 17 5 13 3 -3 4 -12 1 -19z m-47 -33 c0 -20 17 -19 29 2 5
10 12 15 15 12 10 -10 -6 -69 -18 -69 -6 0 -19 -9 -29 -20 -9 -11 -22 -20 -29
-19 -10 0 -10 2 0 6 7 3 17 16 23 30 7 20 4 28 -19 48 l-27 24 28 1 c17 0 27
-5 27 -15z m228 -82 c-3 -25 0 -28 25 -27 15 1 27 -3 27 -7 0 -5 -6 -9 -12 -9
-10 0 -10 -2 0 -9 10 -6 6 -13 -18 -28 -30 -19 -31 -19 -10 -38 31 -28 25 -45
-16 -45 -32 0 -35 -2 -24 -15 7 -9 21 -13 31 -10 24 8 24 -7 1 -29 -18 -15
-19 -15 -30 9 -6 14 -16 25 -22 25 -7 0 -7 -7 1 -21 9 -17 8 -24 -2 -31 -20
-14 -70 -34 -101 -42 l-27 -6 21 35 c11 20 18 39 14 42 -3 4 -6 1 -6 -5 0 -7
-17 -31 -37 -54 -21 -23 -32 -38 -25 -34 7 4 29 10 50 12 20 2 49 7 65 10 48
10 26 -41 -25 -59 -10 -4 -18 -12 -18 -18 0 -7 4 -8 13 -2 6 5 24 14 39 20 23
10 27 9 31 -8 5 -17 3 -18 -9 -8 -12 10 -20 6 -46 -19 -17 -18 -34 -32 -38
-32 -10 0 -52 -71 -46 -77 2 -2 12 10 22 27 11 17 34 40 52 50 38 23 52 26 34
8 -16 -16 -15 -28 3 -28 8 0 15 5 15 10 0 6 8 5 20 -2 19 -12 19 -14 3 -25 -9
-7 -14 -16 -10 -19 11 -11 39 5 44 26 6 24 21 18 18 -7 -9 -71 -19 -104 -31
-99 -9 3 -14 -2 -14 -14 0 -10 -5 -22 -12 -26 -8 -5 -9 -1 -5 12 7 19 7 19 -8
0 -37 -48 -66 -76 -80 -76 -24 0 -18 45 11 80 15 17 24 33 21 36 -7 7 -87 -27
-87 -37 0 -5 -8 -9 -17 -10 -14 0 -13 -3 5 -11 25 -13 38 -49 26 -75 -6 -14
-9 -11 -12 15 -3 27 -10 36 -39 48 -39 17 -57 12 -24 -5 35 -19 54 -68 48
-124 -6 -49 -6 -49 13 -32 18 16 20 17 20 2 0 -41 33 -4 34 38 1 11 7 19 13
18 7 -2 23 12 35 30 12 18 35 43 52 55 l31 22 12 -27 c12 -28 12 -27 13 15 0
23 4 42 10 42 5 0 12 11 16 25 3 13 12 29 20 36 11 9 14 8 14 -8 0 -10 -5 -24
-10 -29 -7 -7 -8 -19 -1 -37 9 -23 5 -32 -29 -76 -21 -27 -44 -52 -50 -56 -6
-3 -16 -21 -24 -38 -10 -26 -22 -35 -62 -46 l-49 -13 32 -9 c18 -5 35 -14 39
-21 5 -7 0 -9 -14 -6 -12 4 -25 2 -28 -3 -3 -5 0 -9 5 -9 15 0 14 -33 -1 -48
-21 -21 -28 -13 -29 31 -1 23 -3 33 -6 22 -2 -11 -8 -29 -13 -40 -5 -11 -11
-37 -15 -57 -3 -21 -10 -38 -15 -38 -5 0 -7 13 -4 30 5 24 1 35 -25 59 -39 37
-39 52 2 71 37 17 49 48 18 45 -11 -1 -33 -18 -48 -38 -16 -20 -35 -37 -43
-39 -10 -3 -4 -10 18 -21 17 -10 32 -22 32 -28 0 -10 -59 27 -72 45 -4 6 9 20
27 33 51 34 75 93 39 93 -23 0 -44 -25 -44 -54 0 -16 -12 -35 -37 -55 -21 -17
-33 -31 -27 -31 5 0 16 6 24 12 7 7 5 1 -6 -14 -10 -15 -23 -28 -27 -28 -5 0
-6 -4 -3 -8 2 -4 1 -14 -4 -21 -11 -19 -31 -4 -23 16 6 15 5 16 -9 3 -9 -8
-12 -16 -7 -18 14 -5 11 -17 -11 -42 -11 -13 -20 -33 -20 -46 0 -17 -4 -22
-15 -18 -8 4 -15 1 -15 -5 0 -6 4 -11 9 -11 5 0 11 -7 14 -15 5 -11 0 -13 -23
-8 -27 5 -30 3 -30 -21 0 -27 -14 -35 -24 -13 -2 6 -4 2 -2 -11 1 -13 20 -35
44 -53 24 -17 49 -44 58 -60 8 -16 21 -29 29 -29 8 0 15 -4 15 -10 0 -5 7 -10
15 -10 24 0 28 -24 11 -64 -18 -44 -44 -56 -62 -31 -13 17 -14 15 -14 -21 l0
-39 -17 34 c-16 32 -16 34 2 47 10 8 17 16 14 18 -2 3 -22 -11 -44 -29 -29
-26 -42 -32 -52 -23 -9 8 -13 7 -13 -2 0 -8 -9 -11 -25 -8 -14 3 -28 1 -31 -3
-3 -5 -13 -9 -22 -9 -32 0 -44 -15 -33 -42 13 -35 -4 -56 -49 -60 -22 -2 -34
-8 -32 -16 3 -15 -46 -35 -71 -28 -10 2 -34 -4 -53 -14 -18 -11 -41 -17 -49
-14 -11 5 -14 2 -9 -12 6 -17 5 -17 -9 1 -24 30 -20 54 11 67 15 7 45 24 67
38 22 15 61 34 87 44 26 10 50 22 53 27 4 5 13 9 21 9 24 0 49 29 36 42 -8 8
-13 7 -18 -6 -5 -12 -9 -14 -14 -6 -6 9 -15 8 -36 -3 -38 -19 -80 -12 -88 16
-5 21 -5 21 -31 -3 -18 -17 -22 -26 -13 -31 18 -11 9 -16 -45 -21 -39 -5 -49
-2 -57 12 -8 15 -3 21 31 34 46 19 45 28 -4 32 -17 1 -36 3 -41 3 -5 1 0 9 10
18 11 10 18 27 16 38 -2 15 3 21 18 21 11 0 20 -6 20 -12 0 -21 41 -28 58 -10
15 15 14 16 -7 16 -12 0 -29 6 -37 14 -12 12 -10 19 15 45 31 33 54 33 78 2 8
-12 30 -16 87 -16 42 0 76 2 76 5 0 8 64 5 80 -4 8 -5 2 5 -14 22 -22 24 -39
32 -65 33 l-36 1 30 10 c43 15 59 32 105 109 83 139 151 336 184 527 13 77 40
144 72 183 29 35 34 48 35 97 1 69 12 112 23 94 4 -6 4 -16 1 -22 -3 -5 1 -10
9 -10 8 0 20 8 25 19 6 10 24 24 40 31 17 6 37 23 46 36 19 30 19 40 0 24 -8
-7 -15 -10 -15 -6 0 10 101 106 112 106 5 0 7 -12 6 -27z m366 1 c23 -23 30
-62 16 -89 -13 -24 -66 -50 -74 -37 -10 17 -27 123 -21 132 10 16 62 12 79 -6z
m-4614 -126 c11 7 22 12 24 12 3 0 12 -23 21 -52 17 -58 20 -164 5 -173 -5 -3
-1 -22 11 -44 15 -30 21 -65 24 -148 3 -59 7 -126 10 -148 2 -22 8 -78 14
-125 5 -47 14 -114 19 -150 19 -113 24 -290 10 -291 -38 -2 -66 -6 -95 -13
l-33 -8 0 84 c1 154 -21 782 -30 898 -7 89 -14 121 -30 142 -28 38 -25 56 5
28 22 -21 29 -22 45 -12z m4343 25 c-7 -2 -19 -2 -25 0 -7 3 -2 5 12 5 14 0
19 -2 13 -5z m-9 -38 c-4 -8 -8 -15 -10 -15 -2 0 -4 7 -4 15 0 8 4 15 10 15 5
0 7 -7 4 -15z m-4459 -5 c3 -5 1 -10 -4 -10 -6 0 -11 5 -11 10 0 6 2 10 4 10
3 0 8 -4 11 -10z m2475 -80 c0 -5 -4 -10 -10 -10 -5 0 -10 5 -10 10 0 6 5 10
10 10 6 0 10 -4 10 -10z m60 -4 c0 5 5 2 10 -6 7 -11 10 -12 10 -2 0 9 7 11
23 6 12 -4 32 -7 45 -6 13 1 31 -5 39 -14 9 -8 22 -13 29 -10 7 3 16 1 19 -4
4 -6 1 -10 -5 -10 -7 0 -10 -6 -7 -14 7 -19 -16 -38 -36 -30 -8 3 -18 1 -22
-5 -3 -7 0 -8 9 -5 9 3 16 4 16 1 0 -8 -60 -37 -75 -37 -8 0 -10 -10 -7 -25 4
-21 1 -24 -13 -18 -11 3 -16 2 -12 -3 3 -5 -6 -14 -19 -21 -14 -6 -26 -7 -30
-2 -3 5 -12 9 -20 9 -8 0 -12 -4 -9 -10 3 -5 1 -10 -4 -10 -15 0 -53 39 -47
49 8 12 -28 9 -36 -3 -5 -7 -8 -5 -8 5 0 9 7 22 15 29 8 7 15 24 15 37 0 34
88 117 107 101 7 -6 13 -7 13 -2z m-2490 -22 c0 -8 -4 -12 -10 -9 -5 3 -10 13
-10 21 0 8 5 12 10 9 6 -3 10 -13 10 -21z m4420 -34 c0 -5 -2 -10 -4 -10 -3 0
-8 5 -11 10 -3 6 -1 10 4 10 6 0 11 -4 11 -10z m-4413 -47 c-3 -10 -5 -4 -5
12 0 17 2 24 5 18 2 -7 2 -21 0 -30z m4374 4 c-8 -8 -11 -7 -11 4 0 20 13 34
18 19 3 -7 -1 -17 -7 -23z m-1383 -15 c-13 -16 -25 -24 -27 -19 -2 6 6 19 19
29 32 26 35 22 8 -10z m1359 -24 c-3 -8 -6 -5 -6 6 -1 11 2 17 5 13 3 -3 4
-12 1 -19z m138 3 c-3 -6 -11 -11 -17 -11 -6 0 -6 6 2 15 14 17 26 13 15 -4z
m-4480 -1 c3 -5 1 -10 -4 -10 -6 0 -11 5 -11 10 0 6 2 10 4 10 3 0 8 -4 11
-10z m4365 -74 c0 -3 -4 -8 -10 -11 -5 -3 -10 -1 -10 4 0 6 5 11 10 11 6 0 10
-2 10 -4z m62 -24 c3 -10 1 -26 -3 -37 -7 -17 -8 -16 -8 7 -1 15 -5 30 -11 33
-15 9 -12 25 4 19 8 -3 16 -13 18 -22z m-1261 -112 c-4 -3 -7 -15 -6 -27 2
-29 -12 -30 -21 -1 -6 21 -7 21 -20 3 -8 -10 -16 -16 -20 -13 -3 4 4 16 15 27
12 12 21 26 21 31 0 6 8 5 20 -2 10 -7 16 -15 11 -18z m-52 -144 c1 -56 -8
-39 -13 25 -3 36 -2 47 4 34 5 -11 9 -38 9 -59z m46 34 c-4 -12 -9 -19 -12
-17 -3 3 -2 15 2 27 4 12 9 19 12 17 3 -3 2 -15 -2 -27z m1004 -8 c-13 -21
-49 -47 -49 -34 0 11 51 64 57 59 2 -3 -1 -14 -8 -25z m-1224 -12 c3 -6 -1 -7
-9 -4 -18 7 -21 14 -7 14 6 0 13 -4 16 -10z m225 -40 c0 -5 -2 -10 -4 -10 -3
0 -8 5 -11 10 -3 6 -1 10 4 10 6 0 11 -4 11 -10z m-31 -212 c1 -31 -3 -60 -9
-63 -5 -3 -10 -22 -10 -42 0 -30 -2 -34 -15 -23 -19 16 -19 49 0 74 10 13 15
44 16 85 1 82 17 54 18 -31z m-231 -20 c0 -27 -4 -50 -8 -53 -4 -2 -6 -16 -5
-30 2 -14 -1 -25 -7 -25 -5 0 -8 38 -6 95 2 78 5 92 15 78 7 -9 12 -38 11 -65z
m1086 42 c-10 -4 -21 -6 -24 -3 -8 7 24 22 34 16 5 -4 1 -10 -10 -13z m-1037
-12 c-3 -8 -6 -5 -6 6 -1 11 2 17 5 13 3 -3 4 -12 1 -19z m981 -35 c6 -15 12
-34 11 -42 0 -9 -7 -2 -14 14 l-13 30 -12 -30 c-8 -18 -14 -25 -17 -17 -3 8 0
19 6 25 6 6 11 19 11 29 0 26 13 22 28 -9z m158 -5 c3 -3 -7 -5 -21 -5 -14 0
-28 3 -30 7 -5 9 42 6 51 -2z m38 -83 c-4 -8 -11 -15 -16 -15 -6 0 -5 6 2 15
7 8 14 15 16 15 2 0 1 -7 -2 -15z m-156 -7 c8 -8 15 -8 27 2 8 7 18 10 22 7 3
-4 -2 -9 -11 -13 -9 -3 -16 -13 -16 -21 0 -11 -5 -10 -25 4 -24 18 -32 33 -17
33 4 0 13 -5 20 -12z m91 9 c-2 -1 -13 -9 -24 -17 -19 -14 -19 -14 -6 3 7 9
18 17 24 17 6 0 8 -1 6 -3z m-1172 -52 c-4 -8 -12 -15 -19 -14 -10 0 -10 2 0
6 6 2 12 12 12 21 0 8 3 13 6 9 4 -3 4 -13 1 -22z m1018 -5 c-3 -5 -10 -10
-16 -10 -5 0 -9 5 -9 10 0 6 7 10 16 10 8 0 12 -4 9 -10z m65 -10 c18 -12 2
-12 -25 0 -13 6 -15 9 -5 9 8 0 22 -4 30 -9z m-497 -37 c-7 -2 -19 -2 -25 0
-7 3 -2 5 12 5 14 0 19 -2 13 -5z m517 -3 c4 0 10 -11 12 -25 4 -19 0 -26 -23
-34 -21 -7 -27 -15 -23 -28 5 -16 4 -16 -10 1 -18 22 -21 40 -6 31 13 -8 13 1
-1 27 -10 18 -8 19 13 13 21 -7 22 -7 8 10 -14 17 -13 18 3 12 10 -4 22 -7 27
-7z m-585 -12 c-29 -17 -44 -18 -38 -2 3 8 17 14 32 14 25 -1 25 -1 6 -12z
m194 1 c70 -15 71 -26 4 -28 -53 -1 -72 7 -73 32 0 9 10 9 69 -4z m-214 -49
c-10 -11 -21 -18 -23 -15 -3 3 3 12 14 20 27 20 30 18 9 -5z m-55 -51 c0 -6
-4 -7 -10 -4 -5 3 -10 11 -10 16 0 6 5 7 10 4 6 -3 10 -11 10 -16z m-288 -44
c-2 -25 -8 -42 -13 -39 -5 3 -6 17 -3 32 14 66 20 69 16 7z m-168 -50 c3 -9 0
-15 -9 -15 -9 0 -12 6 -9 15 4 8 7 15 9 15 2 0 5 -7 9 -15z m946 -35 c0 -5 -5
-10 -11 -10 -5 0 -7 5 -4 10 3 6 8 10 11 10 2 0 4 -4 4 -10z m-87 -23 c3 -7
-15 -33 -39 -57 -24 -24 -44 -48 -44 -52 0 -15 27 -8 45 12 14 16 20 17 27 8
6 -10 10 -10 18 2 5 8 10 11 10 5 0 -18 -17 -38 -27 -32 -6 4 -16 -6 -23 -21
-7 -15 -15 -22 -17 -15 -4 10 -8 9 -20 -2 -8 -8 -23 -15 -33 -15 -11 0 -17 -7
-16 -17 0 -10 -6 -18 -14 -18 -8 -1 -32 -9 -52 -18 -21 -9 -45 -17 -53 -17 -9
0 -13 -5 -10 -11 4 -6 -2 -5 -14 3 -12 7 -20 20 -19 28 4 21 97 69 134 70 26
0 34 6 44 30 7 17 16 30 21 30 11 0 42 60 35 68 -8 8 14 32 29 32 7 0 15 -6
18 -13z m-310 -34 c-32 -12 -63 -9 -63 7 0 10 47 17 75 11 17 -4 15 -7 -12
-18z m385 -28 c-3 -3 -9 2 -12 12 -6 14 -5 15 5 6 7 -7 10 -15 7 -18z"/>
<path d="M2890 4110 c0 -6 7 -10 15 -10 8 0 15 2 15 4 0 2 -7 6 -15 10 -8 3
-15 1 -15 -4z"/>
<path d="M3860 2935 c7 -8 17 -15 22 -15 6 0 5 7 -2 15 -7 8 -17 15 -22 15 -6
0 -5 -7 2 -15z"/>
<path d="M4168 1383 c7 -3 16 -2 19 1 4 3 -2 6 -13 5 -11 0 -14 -3 -6 -6z"/>
<path d="M4320 1330 c0 -5 -9 -10 -20 -10 -18 0 -47 -36 -37 -46 2 -3 21 5 40
16 23 14 34 27 30 36 -6 16 -13 19 -13 4z"/>
<path d="M4080 1137 c0 -44 7 -49 36 -30 28 18 33 7 7 -13 -16 -12 -13 -12 15
-3 54 18 32 73 -30 77 -25 2 -28 -1 -28 -31z"/>
<path d="M4260 1008 c-12 -22 -12 -22 6 -6 10 10 15 20 12 24 -4 3 -12 -5 -18
-18z"/>
<path d="M3786 495 c-26 -27 -31 -64 -10 -80 22 -16 32 -11 15 8 -8 11 -7 22
5 46 18 37 14 49 -10 26z"/>
<path d="M3900 496 c0 -8 5 -18 10 -21 6 -3 10 3 10 14 0 12 -4 21 -10 21 -5
0 -10 -6 -10 -14z"/>
<path d="M3704 461 c4 -6 16 -16 28 -22 15 -8 18 -8 14 0 -4 6 -16 16 -28 22
-15 8 -18 8 -14 0z"/>
<path d="M3882 458 c5 -15 28 -23 28 -10 0 5 -7 13 -16 16 -10 4 -14 1 -12 -6z"/>
<path d="M3835 429 c-4 -6 -5 -12 -2 -15 2 -3 7 2 10 11 7 17 1 20 -8 4z"/>
<path d="M2501 4243 c1 -43 2 -45 9 -18 4 17 11 38 15 48 5 12 2 17 -9 17 -13
0 -16 -10 -15 -47z"/>
<path d="M2528 4173 c0 -5 -2 -12 -2 -18 -1 -5 -8 -21 -15 -33 -19 -34 -8 -36
23 -4 17 19 24 35 20 45 -6 17 -23 23 -26 10z"/>
<path d="M2491 4068 c-1 -9 -4 -25 -7 -35 -5 -14 -4 -15 4 -4 9 12 13 12 26 2
11 -9 16 -10 16 -2 0 6 -5 11 -10 11 -6 0 -15 10 -20 23 -6 15 -9 17 -9 5z"/>
<path d="M3075 3929 c-4 -6 -5 -12 -2 -15 2 -3 7 2 10 11 7 17 1 20 -8 4z"/>
<path d="M2940 3900 c0 -5 5 -10 11 -10 5 0 7 5 4 10 -3 6 -8 10 -11 10 -2 0
-4 -4 -4 -10z"/>
<path d="M2906 3874 c-5 -14 -4 -15 9 -4 17 14 19 20 6 20 -5 0 -12 -7 -15
-16z"/>
<path d="M2720 3790 c0 -5 5 -10 10 -10 6 0 10 5 10 10 0 6 -4 10 -10 10 -5 0
-10 -4 -10 -10z"/>
<path d="M2390 3483 c0 -22 9 -40 31 -62 17 -17 36 -31 42 -31 7 0 -1 10 -16
23 -15 12 -34 40 -42 62 l-14 40 -1 -32z"/>
<path d="M1738 3313 c7 -3 16 -2 19 1 4 3 -2 6 -13 5 -11 0 -14 -3 -6 -6z"/>
<path d="M1801 3290 c20 -10 40 -27 43 -37 6 -14 9 -15 16 -3 10 17 -22 44
-65 53 -29 7 -29 6 6 -13z"/>
<path d="M1924 3285 c11 -8 27 -15 35 -15 10 1 7 6 -9 15 -33 19 -50 18 -26 0z"/>
<path d="M2370 3155 c30 -14 57 -30 58 -36 2 -5 7 -7 12 -4 5 3 14 0 22 -7 7
-7 19 -13 26 -14 27 -2 31 -5 36 -21 3 -11 17 -19 32 -20 35 -2 54 -20 34 -34
-13 -9 -13 -10 2 -6 12 4 18 -3 22 -29 4 -19 11 -34 15 -34 14 0 51 -37 44
-44 -4 -4 -1 -5 7 -2 9 3 23 -6 34 -22 11 -15 13 -21 6 -14 -20 17 -34 15 -16
-3 8 -8 17 -15 20 -15 3 0 15 -8 25 -17 20 -17 19 -33 -2 -33 -7 0 -6 4 3 10
11 7 12 10 2 10 -19 0 -73 -59 -70 -76 2 -7 -1 -13 -7 -13 -5 -1 -10 5 -10 12
0 6 -6 12 -13 12 -8 0 -19 8 -26 18 -14 19 -32 24 -20 6 3 -6 1 -15 -5 -19 -9
-5 -8 -10 4 -20 13 -11 14 -10 8 6 -6 15 -2 14 28 -6 19 -14 40 -24 46 -22 7
2 13 -1 13 -7 0 -5 -8 -8 -17 -7 -10 2 -21 -2 -25 -8 -5 -7 -8 -5 -8 6 0 11
-7 15 -25 13 -14 -1 -25 1 -25 6 0 5 -7 6 -15 3 -18 -7 -19 9 -4 37 13 25 -8
60 -22 37 -5 -8 -8 -6 -7 9 2 18 6 20 26 12 13 -5 25 -9 28 -9 6 0 -19 44 -31
52 -5 4 -7 8 -3 8 7 0 -64 74 -73 75 -12 0 -40 35 -35 44 4 5 -2 8 -11 6 -10
-2 -21 -4 -25 -4 -5 -1 -8 -6 -8 -12 0 -6 7 -9 15 -5 24 9 17 -10 -7 -23 -13
-6 -15 -9 -5 -7 18 6 24 -9 7 -19 -6 -3 -8 -18 -4 -33 5 -26 5 -26 -10 -8 -9
11 -19 17 -22 13 -11 -10 39 -45 56 -40 11 4 11 1 -2 -10 -20 -16 -14 -27 15
-27 16 0 19 -5 14 -30 -4 -16 -2 -32 3 -35 6 -3 10 -12 10 -18 0 -8 -3 -8 -9
1 -6 11 -9 9 -13 -6 -4 -16 -2 -19 11 -16 10 4 9 1 -4 -8 -40 -26 -20 -83 26
-73 18 4 29 3 29 -4 0 -6 -5 -11 -12 -11 -6 0 -2 -10 9 -22 11 -13 18 -29 15
-37 -3 -9 0 -11 7 -6 7 4 10 13 7 20 -6 16 35 45 61 45 15 0 15 -2 3 -9 -8 -6
-17 -8 -21 -5 -4 2 -10 0 -14 -6 -3 -5 -1 -10 6 -10 7 0 4 -7 -7 -16 -14 -11
-16 -17 -6 -21 10 -4 10 -8 0 -21 -7 -9 -8 -13 -3 -10 6 3 10 -5 10 -18 0 -13
-5 -26 -12 -28 -7 -3 -10 1 -6 10 3 8 0 20 -6 28 -6 7 -8 16 -4 19 3 4 -1 7
-11 7 -11 0 -14 -4 -10 -12 5 -7 8 -24 8 -38 1 -21 6 -25 31 -26 49 -1 66 -13
54 -36 -7 -13 -17 -18 -30 -15 -10 3 -22 0 -26 -5 -3 -7 -1 -8 5 -4 6 3 20 -3
30 -15 17 -18 23 -19 41 -7 25 15 27 26 5 35 -9 3 -12 8 -5 12 6 4 4 18 -6 39
-18 36 -8 57 20 46 19 -7 23 -24 7 -24 -14 0 -8 -32 8 -45 7 -6 12 -17 10 -25
-2 -8 2 -14 8 -13 6 1 11 -4 11 -11 0 -7 -6 -13 -14 -14 -7 -1 -20 -3 -28 -4
-8 -1 -14 -8 -13 -17 2 -10 -4 -15 -14 -15 -22 2 -24 -14 -3 -23 10 -3 25 6
40 23 24 28 34 24 15 -6 -6 -9 -5 -20 3 -30 6 -8 7 -12 3 -8 -5 4 -16 2 -24
-5 -13 -9 -14 -9 -8 0 5 9 2 11 -8 7 -9 -3 -14 -9 -12 -13 3 -4 -4 -7 -15 -7
-10 0 -19 5 -19 11 -1 5 -10 -1 -21 -15 l-21 -24 21 -18 22 -17 -22 2 c-12 1
-24 9 -27 19 -2 10 -8 18 -14 18 -5 0 -4 -9 2 -21 14 -25 13 -26 -23 -33 -14
-2 -31 -7 -37 -11 -5 -3 -15 5 -21 19 -13 28 -29 37 -79 42 -19 3 -41 7 -48 9
-7 3 -10 0 -7 -5 3 -6 0 -10 -7 -10 -13 0 -53 -46 -53 -61 0 -18 -15 -20 -30
-5 -9 9 -21 13 -26 10 -6 -3 -21 6 -33 19 -13 14 -26 23 -29 21 -9 -10 -39 45
-32 58 4 7 -1 4 -10 -7 -17 -20 -17 -20 -11 1 4 13 1 26 -9 34 -8 7 -13 16
-10 20 7 11 -50 51 -60 42 -5 -4 -5 1 -2 10 4 11 -1 22 -12 30 -9 7 -20 21
-24 31 -3 9 -13 17 -21 17 -7 0 -17 8 -20 18 -13 35 -43 84 -56 92 -10 6 -11
12 -2 22 6 8 7 19 2 28 -6 9 -2 24 11 42 26 36 12 36 -19 1 -22 -25 -22 -25
-8 -3 37 58 38 60 19 53 -12 -5 -5 10 20 44 37 51 45 73 27 73 -5 0 -10 -7
-10 -15 0 -8 -12 -22 -27 -32 -16 -9 -37 -26 -49 -37 -34 -34 -74 -66 -82 -67
-4 0 -14 -7 -23 -15 -8 -7 -31 -17 -50 -20 -19 -4 -50 -15 -69 -26 -41 -21
-61 -23 -79 -5 -11 10 -12 9 -6 -3 6 -12 5 -13 -6 -2 -16 15 -33 16 -24 2 4
-6 3 -16 -3 -23 -18 -23 -21 -45 -7 -43 8 1 18 5 21 9 16 16 26 5 19 -20 -6
-27 -6 -27 10 -8 9 11 13 14 9 6 -5 -11 -3 -13 9 -8 13 5 17 1 17 -16 0 -18 2
-19 10 -7 7 11 10 6 10 -22 0 -20 -4 -40 -10 -43 -5 -3 -10 -15 -10 -26 0 -11
-4 -17 -10 -14 -5 3 -10 3 -10 -2 0 -4 -12 -21 -26 -38 -14 -16 -28 -42 -31
-56 -3 -14 -18 -33 -34 -43 -16 -9 -29 -22 -29 -27 0 -6 4 -7 10 -4 5 3 2 -8
-8 -24 -9 -17 -18 -26 -20 -21 -2 6 -8 10 -13 10 -6 0 -8 -4 -4 -9 3 -6 -1
-13 -8 -18 -7 -4 -16 -15 -19 -24 -8 -21 -78 -63 -78 -46 0 7 -9 1 -19 -12
-10 -14 -27 -26 -37 -27 -10 -2 -20 -8 -22 -13 -2 -6 -8 -11 -13 -11 -17 0 -9
15 19 33 23 15 24 17 5 12 -14 -4 -23 -2 -23 4 0 6 8 11 18 12 10 0 12 3 5 6
-10 3 -9 8 3 20 8 8 12 18 9 21 -10 10 -75 -61 -75 -82 0 -20 0 -20 -15 0 -11
14 -14 15 -15 4 0 -13 -1 -13 -10 0 -6 9 -5 17 3 22 8 5 6 9 -7 14 -21 8 -36
-10 -36 -42 0 -11 -9 -29 -20 -39 -11 -10 -20 -24 -20 -32 0 -7 -7 -13 -16
-13 -10 0 -12 -4 -7 -12 14 -23 12 -78 -3 -78 -15 0 -19 -12 -7 -23 3 -4 11
-2 18 3 8 7 15 2 23 -16 11 -23 9 -26 -18 -42 -16 -9 -30 -25 -30 -35 0 -10
-7 -20 -15 -23 -16 -6 -21 -44 -7 -44 5 0 9 -16 10 -35 1 -19 9 -49 19 -67 18
-35 20 -39 22 -64 0 -8 5 -13 10 -10 4 3 13 -6 19 -19 9 -19 9 -25 -1 -25 -8
0 -7 -3 2 -9 8 -5 16 -17 17 -26 5 -31 38 -115 46 -115 4 0 8 -13 8 -30 0 -16
4 -30 9 -30 5 0 8 -8 7 -17 -2 -10 8 -32 21 -50 14 -18 22 -37 18 -43 -3 -5
-1 -10 4 -10 6 0 11 -5 11 -11 0 -18 82 -189 91 -189 4 0 -6 30 -22 66 -37 81
-33 94 6 22 16 -29 55 -86 87 -126 40 -50 62 -87 68 -115 4 -23 8 -35 9 -27 1
8 13 -5 27 -30 40 -67 94 -120 123 -120 14 0 36 10 49 23 14 12 22 17 18 10
-4 -7 3 -17 16 -24 21 -11 22 -11 10 4 -10 12 -11 32 -3 94 6 43 13 114 16
158 4 44 11 109 16 145 16 119 10 178 -35 370 -24 102 -51 219 -60 260 -30
138 -67 235 -126 336 -45 77 -55 102 -47 113 9 11 14 7 25 -20 8 -19 18 -37
24 -40 5 -3 10 -10 10 -15 0 -13 10 -27 32 -44 18 -13 19 -13 11 0 -4 8 1 6
12 -5 11 -11 19 -23 16 -27 -2 -4 3 -5 11 -2 9 3 16 2 16 -4 0 -6 -6 -12 -12
-14 -9 -3 -7 -10 6 -24 11 -10 21 -18 23 -16 12 9 13 -1 2 -15 -10 -12 -10
-15 -1 -9 7 4 24 10 39 12 15 3 32 9 39 15 6 5 14 6 17 2 4 -3 7 -1 7 5 0 7 7
12 15 12 10 0 7 8 -10 26 -14 15 -25 30 -25 34 0 13 -77 32 -99 25 -19 -6 -22
-4 -19 12 2 10 8 18 15 18 6 0 15 3 19 8 4 4 2 7 -4 7 -20 0 -13 16 11 28 12
6 16 11 10 11 -7 1 -13 6 -13 12 0 5 3 8 8 6 4 -2 15 4 25 15 13 14 14 18 3
18 -8 0 -17 -6 -20 -12 -6 -15 2 74 10 117 4 17 17 51 30 78 23 45 45 59 59
37 3 -5 0 -10 -7 -10 -10 0 -9 -3 2 -10 8 -5 12 -12 8 -15 -3 -3 -2 -21 2 -40
5 -24 3 -40 -7 -54 -8 -12 -10 -21 -4 -21 20 0 3 -35 -23 -45 -28 -12 -26 -28
2 -17 15 5 15 4 3 -11 -21 -26 4 -20 39 9 41 35 59 73 62 129 1 26 9 62 18 81
l18 33 18 -21 c11 -11 39 -35 64 -52 25 -17 46 -39 46 -49 2 -13 -1 -15 -11
-7 -9 7 -16 6 -25 -5 -7 -8 -15 -13 -19 -11 -4 3 -13 0 -21 -5 -13 -8 -12 -11
3 -20 9 -6 14 -15 11 -21 -4 -6 -3 -8 3 -5 6 4 17 0 24 -9 7 -9 36 -27 63 -41
28 -14 69 -38 91 -53 22 -15 72 -38 112 -50 40 -13 70 -27 67 -32 -3 -4 2 -8
10 -8 9 0 16 -6 16 -12 1 -17 50 -53 50 -37 0 8 4 8 13 1 7 -6 22 -10 32 -10
11 1 33 -2 49 -6 23 -5 27 -4 23 7 -4 11 0 13 14 10 11 -3 18 -11 15 -19 -3
-9 11 -15 51 -20 44 -5 69 -2 117 14 34 11 73 18 87 15 18 -3 26 0 26 10 0 8
-5 14 -11 13 -28 -3 -14 20 19 33 30 12 38 12 45 2 12 -20 22 3 26 57 2 26 4
49 5 52 1 3 2 11 3 18 0 7 7 17 15 21 8 6 10 14 5 22 -12 19 -14 32 -20 124
-3 44 -10 109 -16 145 -5 36 -11 76 -13 90 -2 14 -4 25 -5 25 -2 0 -3 11 -4
25 -1 14 -5 31 -9 38 -5 6 -5 16 -2 22 3 5 1 19 -5 30 -9 16 -8 25 1 36 9 11
8 14 -5 14 -9 0 -16 8 -16 20 0 11 5 20 12 20 6 0 4 8 -6 19 -10 11 -16 24
-13 28 3 5 -5 22 -19 39 -117 137 -231 251 -272 273 -14 7 -55 20 -90 27 -36
7 -74 16 -86 19 -12 3 4 -6 34 -20z m295 -195 c3 -6 -1 -7 -9 -4 -18 7 -21 14
-7 14 6 0 13 -4 16 -10z m-169 -131 c19 -22 19 -22 -3 -8 -13 8 -23 17 -23 21
0 12 6 9 26 -13z m254 -82 c0 -8 -3 -8 -11 0 -6 6 -19 9 -28 6 -13 -4 -13 -3
-2 5 16 12 41 5 41 -11z m-101 -63 c22 -23 23 -26 8 -42 -16 -15 -18 -15 -32
3 -8 11 -12 26 -10 33 2 6 0 12 -6 12 -6 0 -7 5 -4 10 9 15 18 12 44 -16z
m-131 -15 c4 -11 2 -11 -8 -2 -14 13 -43 6 -34 -8 3 -5 10 -6 16 -3 7 4 8 2 4
-5 -6 -9 -11 -9 -23 0 -13 11 -13 15 3 26 21 15 36 13 42 -8z m172 -69 c0 -5
-2 -10 -4 -10 -3 0 -8 5 -11 10 -3 6 -1 10 4 10 6 0 11 -4 11 -10z m-33 -196
c-3 -3 -12 -4 -19 -1 -8 3 -5 6 6 6 11 1 17 -2 13 -5z m27 -129 c-4 -8 -11
-15 -16 -15 -6 0 -5 6 2 15 7 8 14 15 16 15 2 0 1 -7 -2 -15z m-76 -7 c-2 -6
-10 -14 -16 -16 -7 -2 -10 2 -6 12 7 18 28 22 22 4z m52 -30 c0 -4 -7 -8 -15
-8 -8 0 -15 4 -15 8 0 5 7 9 15 9 8 0 15 -4 15 -9z m-1030 -242 c0 -3 -4 -8
-10 -11 -5 -3 -10 -1 -10 4 0 6 5 11 10 11 6 0 10 -2 10 -4z m-524 -281 c-3
-8 -1 -25 4 -38 15 -34 48 -237 38 -237 -4 0 -9 8 -9 18 -1 18 -4 32 -9 45 -5
12 -7 26 -9 43 0 8 -5 13 -10 10 -12 -8 -55 80 -46 94 3 5 13 10 21 10 8 0 14
6 14 14 0 8 -7 13 -16 12 -9 0 -19 5 -22 13 -3 10 0 12 12 8 10 -4 16 -1 16 8
0 8 5 15 11 15 6 0 9 -7 5 -15z m94 5 c18 -11 26 -107 28 -350 2 -103 -1 -160
-7 -151 -5 8 -10 46 -10 84 -1 85 -4 108 -43 275 -26 113 -29 135 -17 143 18
11 30 11 49 -1z m-20 -340 c0 -11 -4 -20 -9 -20 -5 0 -7 9 -4 20 3 11 7 20 9
20 2 0 4 -9 4 -20z"/>
<path d="M2120 3156 c0 -2 7 -9 15 -16 13 -11 14 -10 9 4 -5 14 -24 23 -24 12z"/>
<path d="M2665 3050 c3 -5 8 -10 11 -10 2 0 4 5 4 10 0 6 -5 10 -11 10 -5 0
-7 -4 -4 -10z"/>
<path d="M3063 2865 c-17 -13 -17 -14 0 -15 9 0 17 5 17 11 0 8 5 8 15 -1 9
-7 15 -8 15 -2 0 17 -27 21 -47 7z"/>
<path d="M2390 2825 c7 -8 9 -15 4 -16 -5 0 2 -5 15 -10 15 -6 21 -14 17 -25
-3 -8 -2 -12 3 -9 5 3 12 1 16 -5 10 -17 22 -11 20 10 -1 11 -7 26 -15 33 -10
9 -11 9 -6 0 13 -23 -12 -13 -32 12 -11 14 -23 25 -27 25 -4 0 -2 -7 5 -15z"/>
<path d="M3115 2830 c-4 -6 -11 -8 -16 -5 -5 4 -9 1 -9 -4 0 -14 17 -14 25 -1
4 6 11 8 16 5 5 -4 9 -1 9 4 0 14 -17 14 -25 1z"/>
<path d="M3400 2820 c0 -5 5 -10 11 -10 5 0 7 5 4 10 -3 6 -8 10 -11 10 -2 0
-4 -4 -4 -10z"/>
<path d="M2675 2800 c-3 -5 3 -10 15 -10 12 0 18 5 15 10 -3 6 -10 10 -15 10
-5 0 -12 -4 -15 -10z"/>
<path d="M3135 2800 c-3 -6 1 -10 9 -10 9 0 13 -6 10 -14 -3 -8 0 -17 7 -22 9
-5 10 -2 6 9 -3 9 -2 17 4 19 5 2 0 9 -10 15 -13 8 -22 9 -26 3z"/>
<path d="M3095 2630 c3 -5 8 -10 11 -10 2 0 4 5 4 10 0 6 -5 10 -11 10 -5 0
-7 -4 -4 -10z"/>
<path d="M2460 2599 c0 -11 5 -17 10 -14 6 3 10 13 10 21 0 8 -4 14 -10 14 -5
0 -10 -9 -10 -21z"/>
<path d="M2490 2603 c0 -15 18 -35 23 -27 3 5 -1 15 -9 22 -8 7 -14 9 -14 5z"/>
<path d="M2480 2521 c0 -5 9 -7 20 -4 11 3 20 7 20 9 0 2 -9 4 -20 4 -11 0
-20 -4 -20 -9z"/>
<path d="M2640 2500 c0 -5 5 -10 10 -10 6 0 10 5 10 10 0 6 -4 10 -10 10 -5 0
-10 -4 -10 -10z"/>
<path d="M2477 2474 c4 -11 8 -12 13 -4 6 9 11 7 19 -6 6 -11 11 -14 11 -8 0
14 -21 34 -37 34 -7 0 -10 -7 -6 -16z"/>
<path d="M2510 2396 c0 -2 8 -10 18 -17 15 -13 16 -12 3 4 -13 16 -21 21 -21
13z"/>
<path d="M2580 2373 c0 -5 4 -14 9 -21 7 -11 9 -11 14 1 3 8 3 18 0 21 -9 8
-23 7 -23 -1z"/>
<path d="M3400 2306 c0 -9 5 -16 10 -16 6 0 10 4 10 9 0 6 -4 13 -10 16 -5 3
-10 -1 -10 -9z"/>
<path d="M1390 2215 c0 -8 2 -15 4 -15 2 0 6 7 10 15 3 8 1 15 -4 15 -6 0 -10
-7 -10 -15z"/>
<path d="M1265 2120 c3 -5 8 -10 11 -10 2 0 4 5 4 10 0 6 -5 10 -11 10 -5 0
-7 -4 -4 -10z"/>
<path d="M1915 2090 c3 -5 11 -10 16 -10 6 0 7 5 4 10 -3 6 -11 10 -16 10 -6
0 -7 -4 -4 -10z"/>
<path d="M1955 2090 c-3 -5 -3 -14 0 -20 3 -5 1 -10 -5 -10 -6 0 -9 -4 -6 -9
10 -15 55 -10 49 5 -3 8 -12 14 -20 14 -9 0 -13 6 -9 15 6 17 0 20 -9 5z"/>
<path d="M2025 2040 c27 -12 43 -12 25 0 -8 5 -22 9 -30 9 -10 0 -8 -3 5 -9z"/>
<path d="M1830 1935 c-34 -13 -34 -13 -10 -18 21 -5 73 -4 104 1 15 3 -27 31
-44 30 -8 0 -31 -6 -50 -13z"/>
<path d="M1007 1841 c3 -11 11 -22 19 -25 17 -6 17 -1 4 25 -14 25 -30 25 -23
0z"/>
<path d="M1050 1840 c0 -5 5 -10 11 -10 5 0 7 5 4 10 -3 6 -8 10 -11 10 -2 0
-4 -4 -4 -10z"/>
<path d="M412 1759 c2 -7 10 -15 17 -17 8 -3 12 1 9 9 -2 7 -10 15 -17 17 -8
3 -12 -1 -9 -9z"/>
<path d="M427 1684 c-3 -5 2 -29 10 -53 11 -33 12 -46 3 -51 -9 -5 -9 -9 -1
-11 6 -2 12 -19 14 -37 2 -19 10 -38 18 -43 13 -8 5 -13 -16 -10 -5 1 -2 -6 8
-16 14 -15 21 -16 37 -5 28 17 38 15 45 -8 3 -11 14 -20 24 -20 9 0 22 -5 29
-12 6 -6 14 -9 18 -6 3 4 -3 14 -15 24 -11 10 -18 21 -15 25 2 4 -18 31 -44
61 -77 84 -85 96 -89 119 -4 29 -19 54 -26 43z"/>
<path d="M1963 1483 c9 -2 15 -9 12 -14 -9 -14 1 -11 13 4 8 10 5 13 -16 14
-15 0 -19 -1 -9 -4z"/>
<path d="M2053 1449 c31 -42 36 -68 7 -39 -11 11 -25 20 -31 20 -6 0 -8 7 -4
18 5 14 4 15 -6 5 -10 -10 -10 -16 -1 -25 9 -9 9 -15 0 -25 -8 -10 -7 -17 8
-29 18 -15 17 -15 -5 -2 -14 8 -27 21 -29 28 -3 7 0 10 7 6 7 -5 9 -1 5 9 -9
22 -35 0 -28 -23 5 -15 4 -16 -8 -1 -7 9 -20 14 -28 11 -13 -5 -13 -3 -1 11
10 13 10 17 1 17 -10 0 -9 4 1 18 11 14 11 15 -1 5 -20 -18 -23 -53 -5 -59 8
-4 15 -14 15 -25 0 -10 8 -22 18 -27 18 -10 45 -5 38 6 -2 4 11 8 30 9 19 1
34 -3 34 -8 0 -6 7 -3 16 5 8 9 12 20 9 26 -9 14 2 12 30 -6 22 -14 23 -14 21
2 -1 9 -10 22 -19 29 -9 7 -17 17 -17 24 0 6 -6 11 -14 11 -7 0 -26 10 -42 23
l-29 22 28 -36z m-68 -99 c3 -6 -1 -7 -9 -4 -18 7 -21 14 -7 14 6 0 13 -4 16
-10z"/>
<path d="M498 1423 c-3 -12 0 -33 8 -48 11 -22 11 -27 0 -31 -11 -4 -9 -14 8
-47 11 -23 25 -44 29 -45 4 -2 3 -10 -4 -18 -10 -12 -8 -13 7 -8 15 6 17 4 7
-6 -9 -10 3 -34 54 -109 36 -53 82 -116 102 -141 67 -83 335 -345 432 -422
l96 -76 2 -84 c1 -46 6 -120 10 -163 10 -86 7 -96 -38 -118 -14 -7 -27 -22
-29 -34 -5 -32 -30 -48 -78 -48 -24 0 -49 -6 -56 -13 -9 -9 37 -12 220 -12
l232 0 2 48 1 47 7 -50 7 -50 3 40 c1 22 1 45 0 50 -2 6 -5 21 -8 35 -5 23 -4
24 12 10 15 -12 17 -24 12 -72 -7 -57 -6 -58 18 -58 13 0 26 5 28 11 3 9 9 9
25 0 42 -22 54 -15 47 29 -5 33 -4 40 10 40 9 0 16 5 16 10 0 6 -10 10 -22 10
-19 0 -20 2 -8 10 14 9 7 14 -13 11 -4 -1 -28 10 -53 24 -24 14 -50 25 -57 25
-13 0 -82 67 -82 79 0 10 -48 71 -56 71 -20 0 -15 -33 7 -55 14 -14 21 -25 17
-25 -4 0 -1 -5 7 -10 13 -8 13 -10 -2 -10 -9 0 -23 11 -30 24 -7 13 -21 38
-31 55 -21 36 -30 114 -13 108 6 -2 15 -18 20 -35 5 -18 12 -32 15 -32 11 0
11 39 0 45 -5 4 -9 11 -9 16 0 6 4 8 9 5 5 -3 12 1 15 10 4 10 -7 29 -32 52
-52 50 -75 89 -69 118 3 18 0 24 -14 24 -27 0 -71 22 -59 30 17 10 3 33 -35
58 -42 27 -63 28 -82 5 -10 -12 -10 -9 1 10 9 15 13 27 9 26 -30 -5 -45 2 -38
19 5 14 4 15 -7 4 -11 -11 -10 -16 5 -26 23 -18 21 -26 -6 -26 -26 0 -61 32
-50 45 5 4 3 5 -4 2 -9 -6 -60 29 -102 69 -3 3 5 3 17 1 12 -2 32 -13 45 -25
28 -27 50 -28 68 -4 11 14 11 15 -1 5 -8 -7 -23 -13 -35 -13 -12 0 -15 3 -9 8
17 11 13 41 -4 34 -9 -3 -13 -1 -9 5 7 10 -48 27 -62 19 -3 -2 -7 6 -7 19 -1
16 2 22 12 18 8 -3 14 1 14 11 0 9 -5 16 -11 16 -5 0 -7 5 -4 11 4 6 14 8 22
5 9 -4 22 -1 29 5 7 6 18 8 24 4 5 -3 10 -1 10 4 0 6 -3 11 -7 12 -25 2 -47
10 -118 44 -44 21 -91 37 -103 37 -20 0 -23 5 -19 24 2 13 0 25 -5 26 -5 2
-10 13 -10 25 -1 11 -7 19 -13 17 -6 -3 -23 8 -37 25 -14 16 -30 30 -35 32
-13 6 -63 76 -57 82 3 3 -8 14 -25 26 -20 15 -28 27 -24 38 4 11 2 14 -5 9
-13 -8 -32 25 -42 69 -5 27 -7 28 -12 8z m242 -313 c0 -5 -4 -10 -10 -10 -5 0
-10 5 -10 10 0 6 5 10 10 10 6 0 10 -4 10 -10z m146 -224 c10 -8 15 -18 11
-22 -4 -4 -17 2 -29 14 -25 25 -13 30 18 8z m231 -272 c-3 -3 -12 -4 -19 -1
-8 3 -5 6 6 6 11 1 17 -2 13 -5z m330 -439 c-8 -6 -17 -19 -19 -30 -5 -19 -5
-19 -13 -2 -4 10 -3 29 4 44 10 21 14 23 27 12 14 -11 14 -14 1 -24z m183
-120 c6 -8 10 -22 7 -32 -4 -15 -6 -15 -12 5 -6 18 -10 20 -16 10 -6 -9 -9 -7
-9 10 0 25 12 29 30 7z"/>
<path d="M1043 1401 c7 -42 13 -48 22 -22 4 14 0 27 -10 38 -16 15 -16 14 -12
-16z"/>
<path d="M1078 1323 c-2 -28 1 -51 9 -59 7 -7 13 -16 13 -19 0 -4 14 -20 31
-36 34 -32 54 -32 25 -1 -9 11 -14 26 -10 36 5 12 2 15 -11 10 -13 -5 -16 -2
-14 17 1 13 -3 37 -9 52 -7 16 -12 33 -12 38 0 5 -4 9 -9 9 -5 0 -11 -21 -13
-47z"/>
<path d="M2870 1340 c0 -5 5 -10 10 -10 6 0 10 5 10 10 0 6 -4 10 -10 10 -5 0
-10 -4 -10 -10z"/>
<path d="M700 1296 c0 -8 -6 -17 -12 -19 -10 -4 -10 -6 0 -6 6 -1 12 -7 12
-13 0 -7 9 -24 20 -38 14 -19 16 -28 7 -39 -10 -11 -8 -13 12 -6 16 5 21 4 17
-4 -4 -6 -17 -11 -29 -12 -16 -1 -14 -3 11 -10 17 -5 32 -14 32 -19 0 -13 80
-92 109 -108 31 -16 58 3 28 20 -11 5 -24 23 -31 38 -6 15 -44 62 -84 105 -49
52 -72 84 -72 101 0 13 -4 24 -10 24 -5 0 -10 -6 -10 -14z"/>
<path d="M1955 1303 c-25 -6 -44 -23 -26 -23 15 0 41 -25 41 -40 0 -6 5 -8 13
-4 9 6 9 4 -1 -8 -10 -12 -10 -18 -1 -23 11 -8 9 -149 -4 -161 -16 -16 -28 11
-23 50 3 22 6 48 6 56 0 8 0 32 0 53 1 47 -7 62 -26 46 -10 -8 -11 -16 -4 -30
11 -20 3 -138 -10 -154 -10 -12 5 -43 16 -32 4 4 13 2 21 -5 19 -15 62 -18 94
-6 24 8 27 16 32 75 4 36 13 76 21 88 13 20 13 24 -2 37 -11 9 -28 12 -47 8
-25 -5 -27 -7 -12 -13 17 -6 18 -15 13 -81 -6 -83 -14 -108 -30 -103 -13 4
-21 87 -9 87 4 0 8 24 7 53 -1 28 3 58 9 65 6 8 5 12 -3 12 -8 0 -10 3 -7 7
10 9 -31 36 -43 28 -6 -3 -7 1 -4 9 3 9 5 15 3 15 -2 -1 -13 -3 -24 -6z"/>
<path d="M2117 1163 c-12 -14 -13 -20 -3 -29 9 -8 11 -29 5 -75 -4 -35 -5 -67
-3 -71 3 -4 16 -2 29 4 18 8 22 14 14 24 -16 20 -8 95 13 108 24 15 23 26 -3
26 -15 0 -19 5 -15 15 8 21 -17 19 -37 -2z"/>
<path d="M2334 1120 c-8 -35 -15 -37 -32 -10 -15 25 -54 26 -74 3 -9 -10 -21
-42 -29 -70 -10 -41 -17 -53 -32 -53 -11 0 -17 -5 -14 -12 2 -8 19 -12 42 -11
29 2 43 -3 61 -22 30 -33 46 -32 43 3 -4 57 1 112 12 112 8 0 9 -26 4 -89 -5
-61 -3 -95 5 -111 11 -21 12 -21 32 -4 11 10 18 14 17 9 -2 -6 5 -25 15 -43
13 -25 22 -32 34 -27 9 4 27 10 39 12 16 4 25 16 31 42 5 20 14 57 20 84 10
40 9 53 -6 85 -16 35 -20 37 -64 37 -43 1 -47 -1 -52 -28 -3 -16 -6 -44 -6
-61 0 -42 -10 -76 -22 -76 -12 0 -4 160 9 169 5 3 8 20 8 37 -3 58 -31 75 -41
24z m-73 -133 c-8 -8 -11 -2 -11 19 0 40 14 54 18 19 2 -15 -1 -32 -7 -38z
m208 -1 c8 -10 8 -30 -2 -77 -10 -52 -17 -64 -32 -64 -31 0 -43 37 -32 100 9
47 14 55 32 55 13 0 28 -6 34 -14z"/>
<path d="M2773 1060 c-42 -25 -40 -60 3 -72 48 -13 79 13 33 27 -34 11 -3 37
35 30 l31 -6 -24 21 c-29 25 -38 25 -78 0z"/>
<path d="M2557 976 c-31 -11 -42 -43 -50 -144 -5 -57 -3 -66 21 -94 l26 -31
23 29 24 29 -6 -36 c-6 -33 -5 -37 20 -43 18 -5 35 -1 51 9 29 19 33 41 4 25
-41 -22 -50 68 -9 97 9 7 26 28 36 46 l20 33 -23 29 c-19 23 -26 27 -36 17
-14 -14 -42 -17 -34 -3 3 4 -5 17 -17 28 -18 16 -27 18 -50 9z m24 -58 c3 -36
-4 -104 -12 -125 -12 -32 -39 -30 -39 3 0 60 47 173 51 122z m99 -30 c-1 -17
-28 -53 -35 -46 -8 8 13 58 25 58 5 0 10 -6 10 -12z m-68 -73 c-7 -39 -18 -38
-14 1 2 18 8 32 12 29 4 -2 5 -16 2 -30z"/>
<path d="M1330 961 c0 -8 -12 -28 -27 -43 -24 -25 -25 -28 -7 -28 38 0 63 40
44 70 -8 13 -10 13 -10 1z"/>
<path d="M2775 940 c-3 -5 -1 -10 4 -10 6 0 11 -7 11 -15 0 -19 -17 -19 -28 0
-6 12 -13 8 -34 -24 -31 -47 -28 -81 8 -81 13 0 28 -9 34 -19 14 -27 13 -31
-8 -31 -43 0 -78 -83 -48 -113 14 -14 20 -14 44 -2 15 8 35 16 45 19 14 4 16
10 8 24 -11 21 -3 104 10 96 5 -3 9 0 9 5 0 6 -4 11 -9 11 -5 0 -22 13 -39 28
-27 26 -28 28 -9 29 26 2 56 31 42 41 -5 4 -10 13 -11 20 -2 27 -4 32 -13 32
-6 0 -13 -4 -16 -10z m-10 -216 c14 -6 13 -9 -6 -30 -12 -13 -26 -24 -31 -24
-12 0 -10 34 4 48 14 14 12 14 33 6z"/>
<path d="M970 915 c-20 -24 -6 -28 15 -5 10 11 13 20 8 20 -6 0 -16 -7 -23
-15z"/>
<path d="M1340 889 c0 -5 -4 -7 -10 -4 -17 11 -11 -22 11 -60 14 -24 24 -32
29 -25 6 9 9 9 13 -1 3 -8 5 -2 4 14 -1 15 -5 27 -10 27 -5 0 -6 12 -2 28 6
26 6 26 -9 7 -8 -11 -18 -17 -22 -12 -4 4 -2 7 4 7 7 0 12 7 12 15 0 8 -4 15
-10 15 -5 0 -10 -5 -10 -11z"/>
<path d="M1386 765 c4 -8 8 -15 10 -15 2 0 4 7 4 15 0 8 -4 15 -10 15 -5 0 -7
-7 -4 -15z"/>
<path d="M1523 650 c12 -21 26 -35 31 -30 8 8 -31 70 -45 70 -4 0 2 -18 14
-40z"/>
<path d="M1610 595 c13 -14 25 -25 27 -25 2 0 -4 11 -13 25 -9 14 -21 25 -27
25 -6 0 0 -11 13 -25z"/>
<path d="M1580 586 c0 -2 7 -9 15 -16 13 -11 14 -10 9 4 -5 14 -24 23 -24 12z"/>
<path d="M2910 519 c0 -5 5 -7 10 -4 6 3 10 8 10 11 0 2 -4 4 -10 4 -5 0 -10
-5 -10 -11z"/>
<path d="M2900 449 c0 -5 5 -7 10 -4 6 3 10 8 10 11 0 2 -4 4 -10 4 -5 0 -10
-5 -10 -11z"/>
<path d="M1789 339 l-24 -20 28 17 c15 9 27 18 27 20 0 8 -8 4 -31 -17z"/>
</g>
</svg>
